<svg width="117" height="32" viewBox="0 0 117 32" fill="none" xmlns="http://www.w3.org/2000/svg">
<path fill-rule="evenodd" clip-rule="evenodd" d="M33.4762 5.83138L33.3926 7.58555H33.6852C33.7688 7.08462 33.8524 6.83385 34.0189 6.62487C34.2697 6.33293 34.4781 6.24871 35.7313 6.24871H35.8561V11.8032C35.8561 12.2623 35.6059 12.4713 34.8954 12.4713V12.6796H37.9022V12.4713C37.1093 12.4713 36.9415 12.3041 36.9415 11.5524V6.24871H37.1923C38.0276 6.24871 38.2783 6.29051 38.5291 6.4159C38.8211 6.58308 38.9882 6.87502 39.1136 7.58555H39.4062L39.3226 5.83138H33.4762ZM39.9077 5.83138V5.99856L40.0331 6.04036H40.2421C40.6177 6.12395 40.7848 6.33293 40.7848 6.70847V11.8032C40.7848 12.2623 40.5341 12.4713 39.9077 12.4713V12.6796H42.7891V12.4713C42.0375 12.4713 41.8703 12.2623 41.8703 11.636V9.50564H42.413L45.0442 12.6796H46.5476V12.4713C46.0885 12.4295 46.0049 12.3877 45.295 11.5106L43.5408 9.38088C44.8771 9.08831 45.3362 8.5038 45.378 7.54313C45.4198 6.95861 45.1278 6.58308 44.6263 6.20692C44.2501 5.99856 43.499 5.83138 42.9557 5.83138H39.9077ZM41.8709 9.13073V6.54128C41.8709 6.29113 41.9963 6.20692 42.4136 6.20692C43.6662 6.20692 44.2932 6.66667 44.2932 7.62672C44.2932 8.12764 44.0424 8.5456 43.6669 8.79637C43.2065 9.04652 42.7891 9.13073 41.8709 9.13073ZM50.4315 5.70599L47.9674 11.4688C47.6337 12.2205 47.3829 12.4713 47.0074 12.4713H46.9656V12.6796H49.0541V12.4713H48.9281C48.5519 12.4713 48.343 12.3041 48.343 12.0539C48.343 11.9285 48.3848 11.7614 48.4266 11.6366C48.4266 11.5948 48.5937 11.2604 48.8445 10.593L48.8863 10.4258H51.6005C51.6297 10.4765 51.6442 10.5344 51.6423 10.593C52.1014 11.553 52.2268 11.8874 52.2268 12.0963C52.2268 12.3889 52.0596 12.4725 51.5169 12.4725H51.4751V12.6809H54.1482V12.4725C53.6891 12.4307 53.5219 12.3053 53.2711 11.679L50.6405 5.70724H50.4315V5.70599ZM50.2649 7.16759L51.434 10.0072H49.0541L50.2649 7.16759ZM54.6079 5.83138V5.99856C55.0671 6.04036 55.1924 6.08215 55.5268 6.49948L55.6104 6.58308V11.3434C55.6104 12.1787 55.3603 12.4713 54.6086 12.4713V12.6796H57.0308V12.4713C56.3209 12.4713 56.0702 12.1787 56.0702 11.3434V7.084L60.6639 12.805H60.8311V7.20876C60.8311 6.37347 60.9983 6.1227 61.6658 6.03911L61.8342 5.99731V5.83138H59.3695V5.99856L59.5367 6.04036C60.1218 6.08215 60.3726 6.37472 60.3726 7.08462V10.8013L56.4051 5.832L54.6079 5.83138ZM66.5515 5.6642C66.4673 5.91497 66.3843 6.04036 66.2165 6.04036C66.1335 6.04036 66.0493 5.99856 65.967 5.99856L65.3818 5.78958C65.1694 5.70395 64.9421 5.66133 64.7131 5.6642C63.6277 5.6642 62.876 6.41589 62.876 7.41836C62.876 8.12826 63.2528 8.71278 63.9202 9.13073L64.9227 9.71525C65.0057 9.79884 65.1311 9.84064 65.2153 9.92423C66.0081 10.5087 66.1753 10.7171 66.1753 11.2604C66.1753 11.9703 65.6744 12.4713 64.9227 12.4713C64.0038 12.4713 63.3351 11.845 62.8342 10.5923H62.5416L62.8753 12.8056H63.1261C63.1261 12.5966 63.2515 12.4713 63.4187 12.4713H63.5859L64.4218 12.7632C64.589 12.805 64.7555 12.805 64.9639 12.805C66.3007 12.805 67.219 12.0533 67.219 10.9672C67.219 10.2573 66.801 9.58924 66.0081 9.13011L64.8809 8.42021C64.0868 7.96108 63.7524 7.54313 63.7524 7.0422C63.7524 6.49949 64.2116 6.08153 64.8379 6.08153C65.7149 6.08153 66.5084 6.87502 66.718 7.87749H67.0106L66.7598 5.6642H66.5515ZM68.305 5.83138V5.99856C68.3474 6.04036 68.3892 6.04036 68.4304 6.04036C69.0155 6.12395 69.1409 6.24871 69.1409 6.70847V11.762C69.1409 12.2629 68.9738 12.4301 68.305 12.4719V12.6802H71.1864V12.4719H71.1452C70.4347 12.4719 70.2264 12.2629 70.2264 11.6366V9.67408C70.5601 9.67408 70.6855 9.71587 70.9781 9.71587C71.6044 9.71587 72.1053 9.63228 72.5233 9.4651C73.2338 9.21495 73.7341 8.50442 73.7341 7.75273C73.7341 7.16821 73.4415 6.66729 72.857 6.20754C72.5233 5.95739 71.7298 5.832 71.1452 5.832L68.305 5.83138ZM70.2264 9.2555V6.54066C70.2264 6.29051 70.3093 6.20629 70.5601 6.20629C71.9793 6.20629 72.6068 6.70722 72.6068 7.75148C72.6068 8.75333 71.9793 9.29667 70.8527 9.29667C70.6019 9.29729 70.5189 9.2555 70.2264 9.2555ZM77.0334 5.70599L74.57 11.4688C74.2774 12.2205 73.9848 12.4713 73.6087 12.4713V12.6796H75.6554V12.4713H75.5712C75.1533 12.4713 74.9449 12.3041 74.9449 12.0539C74.9449 11.9285 74.9861 11.7614 75.0291 11.6366C75.0291 11.5948 75.1963 11.2604 75.4458 10.593L75.4882 10.4258H78.2031C78.2318 10.4767 78.2461 10.5345 78.2443 10.593C78.7034 11.553 78.8294 11.8874 78.8294 12.0963C78.8294 12.3889 78.6622 12.4725 78.1189 12.4725H78.0777V12.6809H80.7495V12.4725C80.2904 12.4307 80.1232 12.3053 79.8737 11.679L77.2418 5.70724H77.0334V5.70599ZM76.8669 7.16759L78.0353 10.0072H75.6972L76.8669 7.16759ZM81.2517 5.83138V5.99856L81.3758 6.04036H81.5854C81.9609 6.12395 82.1275 6.33293 82.1275 6.70847V11.8032C82.1275 12.2623 81.878 12.4713 81.2517 12.4713V12.6796H84.1331V12.4713C83.3814 12.4713 83.2142 12.2623 83.2142 11.636V9.50564H83.7981L86.3882 12.6796H87.9333V12.4713C87.4312 12.4295 87.3482 12.3877 86.6383 11.5106L84.8848 9.38088C86.2216 9.08831 86.6795 8.5038 86.7637 7.54313C86.8049 6.95861 86.4711 6.58308 85.9708 6.20692C85.594 5.99856 84.8423 5.83138 84.3002 5.83138H81.2517ZM83.2142 9.13073V6.54128C83.2142 6.29113 83.3383 6.20692 83.7981 6.20692C85.0101 6.20692 85.6365 6.66667 85.6365 7.62672C85.6365 8.12764 85.3857 8.5456 85.0101 8.79637C84.5922 9.04652 84.1331 9.13073 83.2142 9.13073ZM88.3082 5.83138V5.99856C88.3507 6.04036 88.3925 6.04036 88.4336 6.04036C89.0599 6.12395 89.1853 6.24871 89.1853 6.83385V11.6366C89.1853 12.2629 88.977 12.4719 88.3082 12.4719V12.6802H93.9045L94.3636 10.9261H94.071C93.8215 11.427 93.7373 11.5942 93.4447 11.8449C93.111 12.1793 92.6101 12.3041 91.6912 12.3041H91.524L90.7723 12.2623C90.3955 12.2623 90.2701 12.1787 90.2701 11.9703V9.2555H91.9831C92.6924 9.29729 92.859 9.46385 92.9432 10.1744C92.9844 10.1744 92.9844 10.2162 92.9844 10.2998H93.2351V7.87749H92.9844C92.859 8.62918 92.6506 8.87934 92.0655 8.87934H90.2695V6.54066C90.2695 6.37347 90.3119 6.29051 90.3537 6.24809C90.4367 6.20629 90.6463 6.20629 91.2308 6.20629C92.3162 6.20629 92.8172 6.24809 93.0255 6.37348C93.3181 6.49886 93.4023 6.62362 93.5277 7.16696C93.5277 7.20876 93.5689 7.25056 93.5689 7.29235H93.8614L93.8203 5.83076L88.3082 5.83138ZM94.8234 5.83138V5.99856C95.2413 6.04036 95.3667 6.08215 95.7004 6.49948L95.8258 6.58308V11.3434C95.8258 12.1787 95.5751 12.4713 94.8234 12.4713V12.6796H97.2456V12.4713C96.5364 12.4713 96.2856 12.1787 96.2856 11.3434V7.084L100.838 12.805H101.005V7.20876C101.005 6.37347 101.213 6.1227 101.882 6.03911L102.007 5.99731V5.83138H99.5425V5.99856L99.7097 6.04036C100.337 6.08215 100.546 6.37472 100.546 7.08462V10.8013L96.5788 5.832L94.8234 5.83138ZM108.437 5.6642C108.355 5.91497 108.229 5.99856 107.978 5.99856H107.853L106.934 5.74779C106.701 5.69441 106.464 5.66638 106.225 5.6642C104.095 5.6642 102.633 7.16759 102.633 9.29729C102.633 11.427 104.011 12.8056 106.058 12.8056C107.267 12.8056 108.27 12.3465 108.897 11.5106L108.729 11.3022C107.978 12.0539 107.267 12.3465 106.391 12.3465C104.804 12.3465 103.844 11.1768 103.844 9.21433C103.844 7.29298 104.763 6.08215 106.266 6.08215C107.393 6.08215 108.187 6.75026 108.521 8.00288H108.771L108.688 5.6642H108.437ZM109.648 5.83138V6.03973C110.107 6.08153 110.4 6.29051 110.943 7.084L112.697 9.63103L112.656 11.6771C112.656 12.3035 112.447 12.4706 111.611 12.4706V12.679H114.827V12.4706C113.951 12.4706 113.782 12.3035 113.782 11.7607L113.741 9.54744L115.286 7.20876L115.371 7.08338L115.538 6.8326C115.915 6.28988 116.205 6.0809 116.707 5.99731V5.83138H114.452V5.99856C114.953 6.04036 115.163 6.12395 115.163 6.33293C115.163 6.45831 115.079 6.62487 114.912 6.87565L113.534 9.08894L111.946 6.66667C111.863 6.58308 111.822 6.41589 111.822 6.3323C111.822 6.12333 111.905 6.08153 112.449 6.03973C112.449 6.03973 112.49 6.03974 112.574 5.99794V5.83138H109.648ZM33.2261 15.7706V15.9796H33.3508L33.5598 16.0208C34.0189 16.0208 34.2279 16.2291 34.2279 16.7725V21.6582C34.2279 22.2845 34.0189 22.451 33.2261 22.451V22.6606H36.3165V22.451C35.523 22.4099 35.314 22.2427 35.314 21.6582V16.7731C35.314 16.2297 35.523 16.0214 36.1493 15.9802H36.3165V15.7712H33.2261V15.7706ZM36.6084 15.7706V15.9796C37.0681 15.9796 37.1935 16.0626 37.5273 16.4387L37.6109 16.5629V21.3244C37.6109 22.1603 37.3601 22.4517 36.6084 22.4517V22.6613H39.0725V22.4517C38.3208 22.4105 38.07 22.1179 38.07 21.3244V17.065L42.6638 22.7442H42.8309V17.148C42.8309 16.3133 43.0393 16.0626 43.708 15.9796H43.8334V15.7706H41.3693V15.9796H41.5365C42.1628 16.0626 42.3718 16.3133 42.3718 17.065V20.7811L38.4044 15.77L36.6084 15.7706ZM44.2089 15.7706L44.1254 17.566H44.4173C44.5009 17.065 44.5845 16.8143 44.7517 16.6059C45.0018 16.2722 45.2526 16.2291 46.4634 16.2291H46.5888V21.7424C46.5888 22.2433 46.3387 22.4099 45.6281 22.4517V22.6613H48.6767V22.4517C47.8414 22.4105 47.6749 22.2433 47.6749 21.5328V16.2291H47.925C48.7603 16.2291 49.0111 16.2291 49.2618 16.3545C49.5538 16.5217 49.721 16.8136 49.8464 17.5653H50.1389L50.0553 15.77L44.2089 15.7706ZM50.4315 15.7706V15.9796H50.5569C51.1832 16.0626 51.3504 16.2291 51.3504 16.8143V21.617C51.3504 22.2433 51.1002 22.4099 50.4315 22.4517V22.6613H56.0271L56.4869 20.8653H56.1943C55.9435 21.4086 55.8599 21.5758 55.568 21.7842C55.2336 22.1179 54.7327 22.2433 53.8556 22.2433H52.8956C52.5612 22.2021 52.3946 22.1179 52.3946 21.9507V19.2359H54.107C54.8169 19.2359 54.9841 19.4455 55.1089 20.113V20.2384H55.3596V17.8585H55.1089C54.9835 18.6102 54.8169 18.861 54.19 18.861H52.3946V16.4805C52.3946 16.3551 52.4358 16.2297 52.52 16.2297C52.5618 16.1886 52.812 16.1468 53.3553 16.1468C54.4414 16.1468 54.9423 16.1879 55.1924 16.314C55.4432 16.4393 55.5686 16.6065 55.6934 17.1486V17.274H56.0277L55.9859 15.7706H50.4315ZM56.8206 15.7706V15.9796H56.946L57.1132 16.0208C57.4893 16.0619 57.6983 16.2715 57.6983 16.6882V21.7424C57.6983 22.2433 57.4475 22.4517 56.8212 22.4517V22.6613H59.7026V22.4517C58.9509 22.4105 58.7837 22.2433 58.7837 21.617C58.7837 20.6145 58.7837 19.9052 58.7426 19.4873H59.3277L61.9165 22.6613H63.4617V22.4517C62.9608 22.4105 62.9196 22.3687 62.2091 21.4916L60.4549 19.3207C61.7918 19.07 62.2509 18.4848 62.2921 17.5248C62.3345 16.8985 62.0425 16.5635 61.5404 16.1879C61.1237 15.9372 60.372 15.7706 59.871 15.7706H56.8206ZM58.7419 19.0693V16.4805C58.7419 16.2297 58.9091 16.1468 59.3271 16.1468C60.5797 16.1468 61.1642 16.6477 61.1642 17.566C61.1642 18.1093 60.9559 18.526 60.5379 18.7356C60.12 18.9851 59.702 19.0693 58.7419 19.0693ZM63.6701 15.7706V15.9796C64.1292 15.9796 64.254 16.0626 64.589 16.4387L64.6719 16.5629V21.3244C64.6719 22.1603 64.4224 22.4517 63.6707 22.4517V22.6613H66.1341V22.4517C65.3825 22.4105 65.1317 22.1179 65.1317 21.3244V17.065L69.7261 22.7442H69.8932V17.148C69.8932 16.3133 70.1016 16.0626 70.7691 15.9796H70.8945V15.7706H68.431V15.9796H68.5982C69.2245 16.0626 69.4341 16.3133 69.4341 17.065V20.7811L65.466 15.77L63.6701 15.7706ZM74.6112 15.6452L72.1889 21.4086C71.8551 22.1603 71.6037 22.4517 71.2288 22.4517H71.1864V22.6613H73.2332V22.4517H73.1489C72.7734 22.4517 72.5638 22.2845 72.5638 22.035V21.9925C72.5638 21.8684 72.6062 21.743 72.648 21.617C72.648 21.5758 72.7734 21.2402 73.066 20.5316L73.1071 20.4062H75.822C75.822 20.4473 75.8632 20.4891 75.8632 20.5316C76.2811 21.4916 76.4065 21.8253 76.4065 22.0767C76.4065 22.3281 76.2393 22.4523 75.7378 22.4523H75.6966V22.6619H78.3696V22.4523C77.9105 22.4111 77.7433 22.2851 77.4508 21.6594L74.8607 15.6458L74.6112 15.6452ZM74.4446 17.148L75.6554 19.9882H73.275L74.4446 17.148ZM77.9935 15.7706L77.9105 17.566H78.2031C78.2861 17.065 78.3703 16.8143 78.5368 16.6059C78.7863 16.2722 78.9959 16.2291 80.2486 16.2291H80.374V21.7424C80.374 22.2433 80.1232 22.4099 79.4139 22.4517V22.6613H82.4194V22.4517C81.6266 22.4105 81.4182 22.2433 81.4182 21.5328V16.2291H81.7108C82.5455 16.2291 82.7962 16.2291 83.0476 16.3545C83.3389 16.5217 83.5067 16.8136 83.6315 17.5653H83.9241L83.8411 15.77L77.9935 15.7706ZM84.2584 15.7706V15.9796H84.3826L84.5922 16.0208C85.0931 16.0208 85.2597 16.2291 85.2597 16.7725V21.6582C85.2597 22.2845 85.0513 22.451 84.2584 22.451V22.6606H87.3482V22.451C86.5553 22.4099 86.3457 22.2427 86.3457 21.6582V16.7731C86.3457 16.2297 86.5553 16.0214 87.1816 15.9802H87.3488V15.7712H84.2584V15.7706ZM91.1073 15.6452C89.2271 15.7288 87.8909 17.191 87.8909 19.2365C87.8909 21.3251 89.2702 22.7866 91.2745 22.7866C93.2788 22.7866 94.6568 21.3244 94.6568 19.1947C94.6568 17.1062 93.2788 15.6452 91.2333 15.6452H91.1073ZM91.2739 16.0214H91.315C92.6101 16.0214 93.4872 17.274 93.4872 19.2365C93.4872 21.199 92.6101 22.4105 91.2732 22.4105C89.8952 22.4105 89.0593 21.1997 89.0593 19.1536C89.0606 17.2322 89.8959 16.0214 91.2739 16.0214ZM95.1571 15.7706V15.9796C95.5751 15.9796 95.7004 16.0626 96.0342 16.4387L96.1596 16.5629V21.3244C96.1596 22.1603 95.9088 22.4517 95.1571 22.4517V22.6613H97.5806V22.4517C96.8701 22.4105 96.6193 22.1179 96.6193 21.3244V17.065L101.171 22.7442H101.338V17.148C101.338 16.3133 101.548 16.0626 102.216 15.9796H102.341V15.7706H99.8775V15.9796H100.045C100.671 16.0626 100.879 16.3133 100.879 17.065V20.7811L96.9125 15.77L95.1571 15.7706ZM106.099 15.6452L103.635 21.4086C103.343 22.1603 103.051 22.4517 102.675 22.4517H102.634V22.6613H104.722V22.4517H104.638C104.22 22.4517 104.012 22.2845 104.012 22.035V21.9925C104.012 21.8684 104.053 21.743 104.096 21.617C104.096 21.5758 104.263 21.2402 104.512 20.5316L104.555 20.4062H107.268C107.311 20.4473 107.311 20.4891 107.311 20.5316C107.77 21.4916 107.896 21.8253 107.896 22.0767C107.896 22.3281 107.728 22.4523 107.185 22.4523H107.144V22.6619H109.816V22.4523C109.357 22.4111 109.19 22.2851 108.939 21.6594L106.308 15.6458L106.099 15.6452ZM105.932 17.148L107.101 19.9882H104.763L105.932 17.148ZM110.108 15.7706V15.9796H110.233C110.819 16.0626 110.985 16.2291 110.985 16.6889V21.617C110.985 22.2433 110.777 22.4099 110.108 22.4517V22.6613H115.662L116.163 20.8241H115.914C115.663 21.4093 115.412 21.743 115.078 21.9514C114.702 22.161 114.326 22.2439 113.407 22.2439H112.906C112.196 22.2439 112.071 22.161 112.071 21.7848V16.7319C112.071 16.2297 112.238 16.0632 112.863 15.9802H113.031V15.7712H110.108V15.7706Z" fill="#596B8E"/>
<path fill-rule="evenodd" clip-rule="evenodd" d="M44.7943 27.6985C44.7107 27.8657 44.6689 27.8657 44.5435 28.0753C44.4599 28.1582 44.4182 28.1994 44.3764 28.2425C44.3346 28.2836 44.251 28.3678 44.0838 28.492L44.042 28.5344L44.0838 28.5756H44.3764V30.2455C44.3764 30.6635 44.5435 30.913 44.8355 30.913C45.1274 30.913 45.3364 30.7458 45.5036 30.4963L45.42 30.4121C45.2946 30.5793 45.2116 30.6204 45.0856 30.6204C44.9185 30.6204 44.8355 30.4532 44.8355 30.2037V28.5749H45.3782V28.4078H44.8355V27.7384L44.7943 27.6985ZM46.3395 27.1564L46.2559 27.1976L46.0051 27.2387L45.9215 27.2799C45.7544 27.3223 45.7132 27.3641 45.546 27.4053V27.4895H45.6714C45.8386 27.4895 45.8804 27.5307 45.8804 27.6979V30.4127C45.8804 30.6635 45.7968 30.7053 45.546 30.7464V30.8307H46.715V30.7464C46.4231 30.7464 46.3395 30.6635 46.3395 30.3709V28.9929C46.5897 28.7421 46.7568 28.6592 46.924 28.6592C47.1748 28.6592 47.3413 28.8263 47.3413 29.1601V30.3285C47.3413 30.6635 47.2578 30.7464 46.9652 30.7464V30.8307H48.1348V30.7464C47.8423 30.7053 47.8005 30.6635 47.8005 30.3709V29.0341C47.8005 28.6585 47.5079 28.3666 47.1324 28.3666C46.8404 28.3666 46.5897 28.4907 46.3395 28.7833V27.1564ZM50.3899 29.3273C50.3488 28.701 50.0144 28.3672 49.471 28.3672C48.7611 28.3672 48.302 28.9093 48.302 29.7028C48.302 30.4133 48.7194 30.9136 49.3457 30.9136C49.8466 30.9136 50.2645 30.5799 50.4729 29.9947L50.3893 29.9536C50.1392 30.3715 49.8884 30.5387 49.554 30.5387C49.0531 30.5387 48.7611 30.1208 48.7187 29.3279L50.3899 29.3273ZM48.7194 29.1601C48.7611 28.7833 48.9701 28.5338 49.3045 28.5338C49.5971 28.5338 49.7218 28.701 49.8054 29.1189L49.8472 29.1601H48.7194ZM54.232 29.9947C53.9812 30.3715 53.7729 30.4969 53.4803 30.4969C52.9794 30.4969 52.645 30.079 52.645 29.4526C52.645 28.9093 52.9376 28.5338 53.3549 28.5338C53.5221 28.5338 53.6057 28.5749 53.6469 28.7421L53.7305 28.9505C53.7722 29.0759 53.8558 29.1601 53.9812 29.1601C54.0463 29.1557 54.1076 29.1279 54.1537 29.0818C54.1998 29.0356 54.2276 28.9744 54.232 28.9093C54.232 28.6167 53.8558 28.3672 53.3967 28.3672C52.7286 28.3672 52.2271 28.9511 52.2271 29.7028C52.2271 30.3715 52.6444 30.9136 53.2289 30.9136C53.6887 30.9136 54.0642 30.6211 54.315 30.0378L54.232 29.9947ZM55.819 28.3672C55.1091 28.3672 54.6082 28.8681 54.6082 29.6198C54.6082 30.3715 55.1509 30.9136 55.819 30.9136C56.4871 30.9136 57.0298 30.3285 57.0298 29.5768C57.0298 28.8681 56.5289 28.3672 55.819 28.3672ZM55.1091 29.4526V29.3684C55.1091 28.8675 55.3599 28.5338 55.7354 28.5338C56.1945 28.5338 56.5283 29.0347 56.5283 29.7446C56.5283 30.3709 56.2781 30.7458 55.9019 30.7458C55.4428 30.7464 55.1509 30.2461 55.1091 29.4526ZM59.5781 30.4969C59.4527 30.5799 59.4097 30.5799 59.3273 30.5799C59.2019 30.5799 59.1601 30.4969 59.1601 30.3291V29.1195C59.1601 28.6174 58.9094 28.3678 58.3666 28.3678C57.8657 28.3678 57.4896 28.6174 57.4896 28.9517C57.4896 29.0771 57.5731 29.2025 57.6985 29.2025C57.8239 29.2025 57.9487 29.0771 57.9487 28.9517L57.9069 28.7845V28.7434C57.9069 28.618 58.1152 28.4926 58.3242 28.4926C58.575 28.4926 58.7004 28.661 58.7004 28.9517V29.2867C58.4078 29.3697 58.283 29.4121 58.0323 29.578C57.5731 29.7876 57.3642 29.996 57.3642 30.3297C57.3642 30.6647 57.6149 30.9149 57.9487 30.9149C58.1995 30.9149 58.4078 30.7907 58.7422 30.4982C58.7422 30.7907 58.8676 30.9149 59.0759 30.9149C59.2431 30.9149 59.3685 30.8319 59.5781 30.6223V30.4969ZM58.7004 29.4115V30.0378C58.7004 30.4545 58.6168 30.5799 58.1995 30.5799C57.9905 30.5799 57.8651 30.4127 57.8651 30.1619C57.8651 29.9947 57.9069 29.8706 58.0323 29.7452C58.2413 29.5768 58.3248 29.5356 58.7004 29.4115ZM60.5381 27.1564C60.2874 27.2394 59.9118 27.3236 59.6611 27.4059V27.4901H59.8282C59.9954 27.4901 60.079 27.5313 60.079 27.6155V30.4545C60.079 30.6641 59.9536 30.7471 59.6611 30.7471V30.8313H60.9561V30.7471C60.6224 30.7471 60.5381 30.6641 60.5381 30.4133V27.1564ZM61.749 27.1564C61.6236 27.1564 61.4982 27.2805 61.4982 27.449C61.4982 27.5731 61.6236 27.6985 61.749 27.6985C61.9161 27.6985 62.0415 27.5731 62.0415 27.449C62.0426 27.4103 62.0357 27.3718 62.0214 27.3358C62.007 27.2998 61.9855 27.2672 61.9581 27.2398C61.9308 27.2124 61.8981 27.1909 61.8621 27.1766C61.8262 27.1622 61.7877 27.1554 61.749 27.1564ZM62.0004 28.3672H61.9579L61.5824 28.4914L61.4152 28.5756C61.2898 28.6167 61.2898 28.6167 61.1644 28.6598V28.7428C61.2898 28.7428 61.3316 28.7016 61.3728 28.7016C61.54 28.7016 61.5824 28.7845 61.5824 28.9941V30.3722C61.5824 30.6647 61.4982 30.7477 61.1644 30.7477V30.8319H62.4595V30.7477C62.1245 30.7477 62.0415 30.6647 62.0415 30.4139V28.3685H62.0004V28.3672ZM63.3353 27.6985C63.2941 27.8657 63.2523 27.8657 63.127 28.0753C63.0427 28.1582 63.0016 28.1994 62.9598 28.2425C62.9186 28.2836 62.8344 28.3678 62.6672 28.492L62.626 28.5344C62.626 28.5344 62.626 28.5756 62.6672 28.5756H62.9598V30.2455C62.9598 30.6635 63.127 30.913 63.4189 30.913C63.6697 30.913 63.9198 30.7458 64.0864 30.4963L64.0034 30.4121C63.878 30.5793 63.7938 30.6204 63.6697 30.6204C63.5013 30.6204 63.4189 30.4532 63.4189 30.2037V28.5749H63.9623V28.4078H63.4195V27.7384L63.3353 27.6985ZM64.7564 27.1564C64.5892 27.1564 64.5056 27.2805 64.5056 27.449C64.5056 27.5731 64.631 27.6985 64.7564 27.6985C64.9235 27.6985 65.0489 27.5731 65.0489 27.449C65.0499 27.4103 65.0429 27.3718 65.0286 27.3359C65.0142 27.3 64.9927 27.2673 64.9653 27.24C64.938 27.2126 64.9054 27.1911 64.8694 27.1767C64.8335 27.1624 64.795 27.1554 64.7564 27.1564ZM65.0059 28.3672H64.9647L64.5892 28.4914L64.422 28.5756C64.2966 28.6167 64.2536 28.6167 64.1712 28.6598V28.7428C64.2966 28.7428 64.2966 28.7016 64.3796 28.7016C64.505 28.7016 64.5892 28.7845 64.5892 28.9941V30.3722C64.5892 30.6647 64.505 30.7477 64.1301 30.7477V30.8319H65.4238V30.7477C65.1313 30.7477 65.0483 30.6647 65.0483 30.4139V28.3685H65.0059V28.3672ZM66.8861 28.3672C66.1755 28.3672 65.7164 28.8681 65.7164 29.6198C65.7164 30.3715 66.2173 30.9136 66.9272 30.9136C67.596 30.9136 68.0969 30.3285 68.0969 29.5768C68.0969 28.8675 67.596 28.3672 66.9272 28.3672H66.8861ZM66.2167 29.4526V29.3684C66.2167 28.8675 66.4675 28.5338 66.8443 28.5338C67.3034 28.5338 67.6371 29.0347 67.6371 29.7446C67.6371 30.3709 67.3864 30.7458 66.9684 30.7458C66.5517 30.7464 66.2598 30.2461 66.2167 29.4526ZM69.0987 28.3672L69.0158 28.4084C68.639 28.5338 68.5566 28.5338 68.3483 28.6167V28.701C68.4313 28.6598 68.4724 28.6598 68.5155 28.6598C68.6396 28.6598 68.6827 28.7427 68.6827 28.9093V30.4545C68.6827 30.6641 68.5984 30.7471 68.3489 30.7471V30.8313H69.5173V30.7471C69.2678 30.7471 69.1418 30.6641 69.1418 30.4975V28.9511C69.3501 28.7428 69.5173 28.6598 69.6839 28.6598C69.9346 28.6598 70.1018 28.827 70.1018 29.0765V30.4133C70.1018 30.6641 70.0176 30.7471 69.7681 30.7471V30.8313H70.8953V30.7471C70.6458 30.7471 70.5616 30.6641 70.5616 30.4133V29.0765C70.5616 28.6598 70.269 28.3672 69.9353 28.3672C69.6845 28.3672 69.5173 28.4502 69.1424 28.7839V28.3672H69.0987ZM74.8197 30.4969C74.7368 30.5799 74.6944 30.5799 74.6114 30.5799C74.486 30.5799 74.4442 30.4969 74.4442 30.3291V29.1195C74.4442 28.6174 74.1934 28.3678 73.6513 28.3678C73.1492 28.3678 72.7743 28.6174 72.7743 28.9517C72.7743 29.0771 72.8572 29.2025 72.9826 29.2025C73.108 29.2025 73.2334 29.0771 73.2334 28.9517L73.191 28.7845V28.7434C73.191 28.618 73.4006 28.4926 73.6089 28.4926C73.8597 28.4926 73.9857 28.661 73.9857 28.9517V29.2867C73.6931 29.3697 73.5677 29.4121 73.317 29.578C72.8578 29.7876 72.6495 29.996 72.6495 30.3297C72.6495 30.6647 72.9003 30.9149 73.2346 30.9149C73.4842 30.9149 73.6938 30.7907 74.0275 30.4982C74.0275 30.7907 74.1529 30.9149 74.3612 30.9149C74.5284 30.9149 74.6538 30.8319 74.8204 30.6223L74.8197 30.4969ZM73.9857 29.4115V30.0378C73.9857 30.4545 73.8603 30.5799 73.4835 30.5799C73.2752 30.5799 73.1498 30.4127 73.1498 30.1619C73.1498 29.9947 73.191 29.8706 73.317 29.7452C73.5259 29.5768 73.6089 29.5356 73.9857 29.4115ZM77.3674 28.5344H77.159C76.9083 28.5344 76.8241 28.5344 76.7411 28.492L76.4485 28.409C76.3643 28.3678 76.2813 28.3678 76.1559 28.3678C75.6126 28.3678 75.2371 28.7434 75.2371 29.2437C75.2371 29.5774 75.4043 29.8288 75.738 29.9542L75.655 30.0384L75.4878 30.1625C75.3194 30.3297 75.2371 30.4551 75.2371 30.5393C75.2371 30.6647 75.32 30.7477 75.5296 30.8319L75.4454 30.8731C75.1529 31.1238 74.9863 31.291 74.9863 31.4994C74.9863 31.792 75.4043 32.0016 75.9052 32.0016C76.6993 32.0016 77.3256 31.5836 77.3256 31.0814C77.3256 30.7901 77.0748 30.5393 76.6993 30.5393L75.7804 30.4982C75.6962 30.4557 75.5708 30.4139 75.5708 30.3728C75.5708 30.2886 75.655 30.2056 75.738 30.0802C75.8222 30.039 75.8634 29.996 75.9052 29.996L76.1559 30.0384H76.1971C76.6562 30.0384 77.033 29.6616 77.033 29.2025C77.033 29.0353 77.033 28.9517 76.9488 28.7434H77.3668L77.3674 28.5344ZM76.0724 28.5344C76.3649 28.5344 76.6157 28.9099 76.6157 29.3691C76.6157 29.7028 76.4903 29.9124 76.2402 29.9124C75.9052 29.9124 75.655 29.5356 75.655 29.0353C75.6974 28.701 75.781 28.5344 76.0724 28.5344ZM75.6556 30.8724C75.8228 30.8724 75.864 30.9136 76.0312 30.9136L76.8671 30.956C77.0755 30.956 77.2008 31.039 77.2008 31.1644C77.2008 31.4981 76.7829 31.7077 76.1566 31.7077C75.6974 31.7077 75.3637 31.5393 75.3637 31.331C75.3631 31.2062 75.446 31.0808 75.6556 30.8724ZM79.915 30.4969C79.8308 30.5799 79.7897 30.5799 79.7067 30.5799C79.5813 30.5799 79.5383 30.4969 79.5383 30.3291V29.1195C79.5383 28.6174 79.2887 28.3678 78.7454 28.3678C78.2445 28.3678 77.8683 28.6174 77.8683 28.9517C77.8683 29.0771 77.9525 29.2025 78.0779 29.2025C78.2033 29.2025 78.3274 29.0771 78.3274 28.9517L78.2863 28.7845V28.7434C78.2863 28.618 78.4946 28.4926 78.7042 28.4926C78.955 28.4926 79.0798 28.661 79.0798 28.9517V29.2867C78.7872 29.3697 78.6631 29.4121 78.4123 29.578C77.9532 29.7876 77.7448 29.996 77.7448 30.3297C77.7448 30.6647 77.9943 30.9149 78.3287 30.9149C78.5795 30.9149 78.7878 30.7907 79.1228 30.4982C79.1228 30.7907 79.2469 30.9149 79.4565 30.9149C79.6237 30.9149 79.7491 30.8319 79.9157 30.6223V30.4969H79.915ZM79.0798 29.4115V30.0378C79.0798 30.4545 78.9556 30.5799 78.5788 30.5799C78.3705 30.5799 78.2451 30.4127 78.2451 30.1619C78.2451 29.9947 78.2863 29.8706 78.4123 29.7452C78.62 29.5768 78.7042 29.5356 79.0798 29.4115ZM80.6243 27.1564C80.5002 27.1564 80.3748 27.2805 80.3748 27.449C80.3748 27.5731 80.5002 27.6985 80.6243 27.6985C80.7928 27.6985 80.9181 27.5731 80.9181 27.449C80.9192 27.4101 80.9123 27.3715 80.8979 27.3355C80.8835 27.2994 80.8618 27.2667 80.8343 27.2393C80.8068 27.2119 80.774 27.1904 80.7379 27.1762C80.7018 27.1619 80.6631 27.1552 80.6243 27.1564ZM80.8751 28.3672H80.8339L80.4571 28.4914L80.29 28.5756C80.1658 28.6167 80.1658 28.6167 80.0404 28.6598V28.7428C80.1658 28.7428 80.2076 28.7016 80.2488 28.7016C80.416 28.7016 80.4571 28.7845 80.4571 28.9941V30.3722C80.4571 30.6647 80.3742 30.7477 80.0404 30.7477V30.8319H81.3342V30.7477C81.0005 30.7477 80.9175 30.6647 80.9175 30.4139V28.3685H80.8751V28.3672ZM82.2961 28.3672L82.1708 28.4084C81.8358 28.5338 81.7528 28.5338 81.5444 28.6167V28.701C81.6274 28.6598 81.6274 28.6598 81.6698 28.6598C81.794 28.6598 81.8782 28.7427 81.8782 28.9093V30.4545C81.8782 30.6641 81.794 30.7471 81.5444 30.7471V30.8313H82.7129V30.7471C82.4203 30.7471 82.3373 30.6641 82.3373 30.4975V28.9511C82.5457 28.7428 82.7129 28.6598 82.8794 28.6598C83.1302 28.6598 83.2562 28.827 83.2562 29.0765V30.4133C83.2562 30.6641 83.172 30.7471 82.9225 30.7471V30.8313H84.0497V30.7471C83.7989 30.7471 83.716 30.6641 83.716 30.4133V29.0765C83.716 28.6598 83.4652 28.3672 83.0896 28.3672C82.8389 28.3672 82.6717 28.4502 82.3379 28.7839V28.3672H82.2961ZM85.7608 28.4084C85.7196 28.4496 85.7196 28.4496 85.6778 28.4496C85.6361 28.4496 85.5525 28.4496 85.5107 28.4084C85.3853 28.3672 85.3011 28.3672 85.1769 28.3672C84.759 28.3672 84.4252 28.6598 84.4252 28.9935C84.4252 29.2861 84.5924 29.5356 84.8844 29.7028L85.3011 29.9536C85.5518 30.079 85.6361 30.2043 85.6361 30.4127C85.6361 30.6211 85.4689 30.7895 85.1769 30.7895C84.8419 30.7895 84.6748 30.5799 84.5494 30.1208L84.5082 30.0378H84.4252V30.8724H84.5082C84.5082 30.8313 84.5494 30.7895 84.6336 30.7895C84.6748 30.7895 84.6748 30.7895 84.7178 30.8307L85.0515 30.8718C85.0927 30.8718 85.1345 30.913 85.2187 30.913C85.6779 30.913 86.0116 30.5793 86.0116 30.2037C86.0116 30.0783 86.0116 29.9529 85.9274 29.9112C85.8444 29.744 85.6778 29.6186 85.1345 29.2848C84.8419 29.1595 84.759 29.0341 84.759 28.8257C84.759 28.6161 84.9262 28.4907 85.1769 28.4907C85.4695 28.4907 85.6778 28.7003 85.7608 29.1595H85.845V28.4078L85.7608 28.4084ZM87.0147 27.6985C86.9735 27.8657 86.9305 27.8657 86.7639 28.0753C86.7227 28.1582 86.6797 28.1994 86.6385 28.2425C86.5973 28.2836 86.5131 28.3678 86.346 28.492L86.3048 28.5344C86.3048 28.5344 86.3048 28.5756 86.346 28.5756H86.5967V30.2455C86.5967 30.6635 86.8051 30.913 87.0976 30.913C87.3484 30.913 87.5998 30.7458 87.7664 30.4963L87.6822 30.4121C87.5568 30.5793 87.4738 30.6204 87.3484 30.6204C87.1812 30.6204 87.0559 30.4532 87.0559 30.2037V28.5749H87.641V28.4078H87.0559V27.948L87.097 27.8226V27.7384L87.0147 27.6985ZM91.4001 29.9947C91.1493 30.3715 90.941 30.4969 90.606 30.4969C90.1051 30.4969 89.7713 30.079 89.7713 29.4526C89.7713 28.9093 90.1051 28.5338 90.523 28.5338C90.6902 28.5338 90.7738 28.5749 90.8156 28.7421L90.8985 28.9505C90.8985 29.0759 91.0239 29.1601 91.1082 29.1601C91.2753 29.1601 91.4007 29.0347 91.4007 28.9093C91.4007 28.6167 91.0239 28.3672 90.5648 28.3672C89.8973 28.3672 89.354 28.9511 89.354 29.7028C89.354 30.3715 89.8131 30.9136 90.3983 30.9136C90.8574 30.9136 91.1911 30.6211 91.4425 30.0378L91.4001 29.9947ZM92.9447 28.3672C92.2341 28.3672 91.775 28.8681 91.775 29.6198C91.775 30.3715 92.2772 30.9136 92.9858 30.9136C93.6546 30.9136 94.1555 30.3285 94.1555 29.5768C94.1555 28.8675 93.6546 28.3672 92.9858 28.3672H92.9447ZM92.2772 29.4526V29.3684C92.2772 28.8675 92.5267 28.5338 92.9035 28.5338C93.3626 28.5338 93.6964 29.0347 93.6964 29.7446C93.6964 30.3709 93.4456 30.7458 93.0276 30.7458C92.6109 30.7464 92.3183 30.2461 92.2772 29.4526ZM95.1573 28.3672H95.1162L94.9908 28.4084L94.8666 28.4914L94.7412 28.5338L94.5741 28.5749L94.4056 28.6161L94.3645 28.6585V28.7415C94.4487 28.7003 94.4898 28.7003 94.5316 28.7003C94.657 28.7003 94.7412 28.7833 94.7412 28.9499V30.4532C94.7412 30.6204 94.657 30.704 94.4063 30.7458H94.3651V30.83H95.6601V30.7458C95.3264 30.7458 95.201 30.6628 95.201 30.4121V29.1183C95.201 29.0759 95.2422 28.9499 95.3264 28.8257C95.4093 28.7833 95.4936 28.7003 95.5759 28.7003C95.5759 28.7003 95.6183 28.7003 95.6183 28.7415L95.8267 28.8669C95.8267 28.8669 95.8678 28.9081 95.9096 28.9081C96.0781 28.9081 96.1604 28.8251 96.1604 28.6585C96.1604 28.4489 96.035 28.366 95.8267 28.366C95.6183 28.366 95.4499 28.4901 95.2415 28.7827L95.2004 28.8251V28.366H95.1573V28.3672Z" fill="#B0685A"/>
<path fill-rule="evenodd" clip-rule="evenodd" d="M96.9535 28.3672H96.9123L96.787 28.4083L96.6616 28.4913L96.5374 28.5337L96.369 28.5749L96.2018 28.6161L96.1606 28.6585V28.7415C96.2449 28.7003 96.286 28.7003 96.3278 28.7003C96.4532 28.7003 96.5374 28.7833 96.5374 28.9498V30.4532C96.5374 30.6204 96.4532 30.704 96.2024 30.7458H96.1613V30.83H97.4563V30.7458C97.1213 30.7458 96.9972 30.6628 96.9972 30.412V29.1182C96.9972 29.0758 97.0801 28.9498 97.1213 28.8257C97.2055 28.7833 97.2897 28.7003 97.3721 28.7003C97.3721 28.7003 97.4133 28.7003 97.4133 28.7415L97.6229 28.8669C97.6229 28.8669 97.664 28.908 97.7058 28.908C97.873 28.908 97.9566 28.8251 97.9566 28.6585C97.9566 28.4489 97.8312 28.3659 97.6229 28.3659C97.4133 28.3659 97.2461 28.4901 97.0377 28.7826L96.9966 28.8251V28.3659H96.9535V28.3672ZM97.956 28.4083V28.4913C98.2068 28.4913 98.2897 28.5755 98.2897 28.7839V30.2461C98.2897 30.6216 98.5823 30.9136 98.9585 30.9136C99.251 30.9136 99.4176 30.7894 99.7513 30.4545V30.8724H99.8343L100.085 30.7894L100.293 30.7052L100.461 30.6641H100.503V30.5798H100.419C100.252 30.5798 100.169 30.4969 100.169 30.3291V28.409H99.3334V28.4919C99.6259 28.5344 99.7089 28.5762 99.7089 28.7845V30.1625C99.7089 30.4133 99.4594 30.5805 99.1668 30.5805C98.916 30.5805 98.7489 30.4133 98.7489 30.2049V28.409L97.956 28.4083ZM101.464 28.3672H101.381L101.255 28.4501H101.213L101.046 28.4913L100.712 28.6167H100.671V28.7009H100.796C100.963 28.7009 101.005 28.7839 101.005 28.9093V31.6241C101.005 31.8325 100.922 31.8749 100.629 31.9167V32.0009H101.965V31.9161C101.589 31.9161 101.464 31.8318 101.464 31.5823V30.6634C101.672 30.8306 101.797 30.913 102.007 30.913C102.675 30.913 103.175 30.2867 103.175 29.4938C103.175 28.8263 102.759 28.3666 102.257 28.3666C101.964 28.3666 101.714 28.4907 101.505 28.7833L101.464 28.3672ZM101.464 29.0347C101.464 28.9935 101.505 28.9935 101.505 28.9504C101.63 28.7833 101.84 28.7009 102.048 28.7009C102.424 28.7009 102.675 29.1189 102.675 29.7021C102.675 30.3284 102.424 30.7046 102.048 30.7046C101.923 30.7046 101.797 30.7046 101.714 30.6204C101.547 30.5374 101.464 30.4532 101.464 30.3709V29.0347ZM104.096 27.6984C104.053 27.8656 104.011 27.8656 103.845 28.0752C103.804 28.1582 103.719 28.1994 103.719 28.2424C103.678 28.2836 103.594 28.3678 103.427 28.4919L103.386 28.5344C103.386 28.5344 103.386 28.5755 103.427 28.5755H103.678V30.2455C103.678 30.6634 103.886 30.913 104.179 30.913C104.429 30.913 104.679 30.7458 104.846 30.4963L104.763 30.412C104.638 30.5792 104.555 30.6204 104.429 30.6204C104.262 30.6204 104.137 30.4532 104.137 30.2037V28.5749H104.679V28.4077H104.137V27.7384L104.096 27.6984ZM105.515 27.1564C105.476 27.1553 105.438 27.1622 105.402 27.1765C105.366 27.1909 105.333 27.2124 105.306 27.2398C105.278 27.2671 105.257 27.2998 105.242 27.3358C105.228 27.3717 105.221 27.4102 105.222 27.4489C105.222 27.5731 105.348 27.6984 105.515 27.6984C105.682 27.6984 105.807 27.5731 105.807 27.4489C105.808 27.4102 105.801 27.3717 105.787 27.3358C105.773 27.2998 105.751 27.2671 105.724 27.2398C105.697 27.2124 105.664 27.1909 105.628 27.1765C105.592 27.1622 105.553 27.1553 105.515 27.1564ZM105.765 28.3672H105.724L105.348 28.4913L105.181 28.5755C105.056 28.6167 105.013 28.6167 104.93 28.6597V28.7427C105.013 28.7427 105.056 28.7015 105.139 28.7015C105.264 28.7015 105.348 28.7845 105.348 28.9941V30.3721C105.348 30.6647 105.223 30.7477 104.889 30.7477V30.8319H106.183V30.7477C105.89 30.7477 105.807 30.6647 105.807 30.4139V28.3684H105.765V28.3672ZM107.645 28.3672C106.935 28.3672 106.475 28.8681 106.475 29.6198C106.475 30.3715 106.976 30.9136 107.645 30.9136C108.356 30.9136 108.856 30.3284 108.856 29.5768C108.856 28.8675 108.355 28.3672 107.686 28.3672H107.645ZM106.976 29.4526V29.3684C106.976 28.8675 107.226 28.5337 107.603 28.5337C108.062 28.5337 108.355 29.0347 108.355 29.7446C108.355 30.3709 108.104 30.7458 107.727 30.7458C107.311 30.7464 107.019 30.2461 106.976 29.4526ZM109.858 28.3672L109.733 28.4083C109.399 28.5337 109.315 28.5337 109.107 28.6167V28.7009C109.19 28.6597 109.231 28.6597 109.274 28.6597C109.399 28.6597 109.441 28.7427 109.441 28.9093V30.4545C109.441 30.6641 109.357 30.747 109.107 30.747V30.8312H110.276V30.747C110.026 30.747 109.9 30.6641 109.9 30.4975V28.9511C110.109 28.7427 110.276 28.6597 110.442 28.6597C110.693 28.6597 110.86 28.8269 110.86 29.0765V30.4133C110.86 30.6641 110.777 30.747 110.526 30.747V30.8312H111.654V30.747C111.362 30.747 111.32 30.6641 111.32 30.4133V29.0765C111.32 28.6597 111.027 28.3672 110.694 28.3672C110.443 28.3672 110.276 28.4501 109.901 28.7839V28.3672H109.858Z" fill="#B0685A"/>
<path fill-rule="evenodd" clip-rule="evenodd" d="M15.9852 0.665611C12.6229 2.6824 10.0596 6.57063 9.02784 11.3328C10.5655 11.7558 12.3203 11.9953 14.1812 11.9953C20.2259 11.9953 25.1566 9.46388 25.1566 6.35979C25.1566 6.18262 25.1403 6.00796 25.1085 5.83516C24.1489 4.55864 22.9657 3.46676 21.6164 2.61254L21.919 2.15964C25.9975 4.69732 28.7223 9.2206 28.7223 14.3615C28.7223 22.2708 22.2708 28.7223 14.3615 28.7223C6.45086 28.7223 0 22.2708 0 14.3615C0 6.45086 6.45149 0 14.3615 0C16.2816 0 18.1162 0.381152 19.7936 1.07109L19.5747 1.56141C18.4274 1.09194 17.2185 0.790243 15.9852 0.665611ZM27.3368 10.4957C26.0399 14.6116 20.725 17.7101 14.3983 17.7101C12.2985 17.7101 10.311 17.42 8.54438 16.8742C8.66727 20.3126 9.54436 23.5122 10.9567 26.1902C11.175 26.2551 11.3958 26.3144 11.6185 26.368C10.4489 24.0493 9.77891 21.3775 9.77891 18.5348C9.77891 18.2877 9.78452 18.0438 9.79451 17.7999C11.2293 18.1287 12.7807 18.3008 14.3983 18.3008C14.5561 18.3008 14.7139 18.2983 14.8711 18.2946C14.8649 18.5872 14.8649 18.8829 14.8717 19.1804C14.9322 21.846 15.4868 24.3693 16.4225 26.6075C22.7904 25.7423 27.726 20.2609 27.726 13.6622C27.726 12.5711 27.5907 11.51 27.3368 10.4957ZM5.03168 22.4766C4.01549 20.2808 3.44158 17.7918 3.44158 15.1587C3.44158 14.7682 3.45468 14.3802 3.47901 13.9965C2.7479 13.271 2.16775 12.4482 1.77038 11.5387C1.6548 12.2408 1.5966 12.9512 1.59634 13.6628C1.59634 17.0545 2.89949 20.1504 5.03168 22.4766ZM3.32368 7.1826C3.51457 7.84509 3.93128 8.47139 4.53263 9.03969C5.77215 5.70665 7.99418 2.93754 10.7889 1.18587C7.63509 2.17523 4.96972 4.31629 3.32368 7.1826ZM13.3989 5.91376C14.0112 5.91491 14.5981 6.15866 15.031 6.59161C15.464 7.02457 15.7077 7.61145 15.7089 8.22374C15.7077 8.83603 15.464 9.42291 15.031 9.85587C14.5981 10.2888 14.0112 10.5326 13.3989 10.5337C12.7865 10.5327 12.1995 10.2891 11.7664 9.85609C11.3333 9.42312 11.0895 8.83614 11.0883 8.22374C11.0896 7.61139 11.3335 7.02451 11.7666 6.59157C12.1996 6.15864 12.7866 5.91491 13.3989 5.91376Z" fill="#596B8E"/>
</svg>
