<svg width="117" height="32" viewBox="0 0 117 32" fill="none" xmlns="http://www.w3.org/2000/svg">
<path fill-rule="evenodd" clip-rule="evenodd" d="M33.4767 5.83138L33.3931 7.58555H33.6857C33.7693 7.08462 33.8529 6.83385 34.0194 6.62487C34.2702 6.33293 34.4786 6.24871 35.7318 6.24871H35.8566V11.8032C35.8566 12.2623 35.6064 12.4713 34.8959 12.4713V12.6796H37.9027V12.4713C37.1098 12.4713 36.942 12.3041 36.942 11.5524V6.24871H37.1928C38.0281 6.24871 38.2788 6.29051 38.5296 6.4159C38.8216 6.58308 38.9887 6.87502 39.1141 7.58555H39.4067L39.3231 5.83138H33.4767ZM39.9082 5.83138V5.99856L40.0336 6.04036H40.2426C40.6181 6.12395 40.7853 6.33293 40.7853 6.70847V11.8032C40.7853 12.2623 40.5345 12.4713 39.9082 12.4713V12.6796H42.7896V12.4713C42.0379 12.4713 41.8708 12.2623 41.8708 11.636V9.50564H42.4135L45.0447 12.6796H46.5481V12.4713C46.089 12.4295 46.0054 12.3877 45.2955 11.5106L43.5413 9.38088C44.8775 9.08831 45.3367 8.5038 45.3785 7.54313C45.4203 6.95861 45.1283 6.58308 44.6268 6.20692C44.2506 5.99856 43.4995 5.83138 42.9562 5.83138H39.9082ZM41.8714 9.13073V6.54128C41.8714 6.29113 41.9968 6.20692 42.4141 6.20692C43.6667 6.20692 44.2936 6.66667 44.2936 7.62672C44.2936 8.12764 44.0429 8.5456 43.6673 8.79637C43.207 9.04652 42.7896 9.13073 41.8714 9.13073ZM50.432 5.70599L47.9679 11.4688C47.6342 12.2205 47.3834 12.4713 47.0079 12.4713H46.9661V12.6796H49.0546V12.4713H48.9286C48.5524 12.4713 48.3435 12.3041 48.3435 12.0539C48.3435 11.9285 48.3853 11.7614 48.427 11.6366C48.427 11.5948 48.5942 11.2604 48.845 10.593L48.8868 10.4258H51.601C51.6302 10.4765 51.6447 10.5344 51.6428 10.593C52.1019 11.553 52.2273 11.8874 52.2273 12.0963C52.2273 12.3889 52.0601 12.4725 51.5174 12.4725H51.4756V12.6809H54.1487V12.4725C53.6895 12.4307 53.5224 12.3053 53.2716 11.679L50.641 5.70724H50.432V5.70599ZM50.2654 7.16759L51.4345 10.0072H49.0546L50.2654 7.16759ZM54.6084 5.83138V5.99856C55.0675 6.04036 55.1929 6.08215 55.5273 6.49948L55.6109 6.58308V11.3434C55.6109 12.1787 55.3607 12.4713 54.609 12.4713V12.6796H57.0313V12.4713C56.3214 12.4713 56.0706 12.1787 56.0706 11.3434V7.084L60.6644 12.805H60.8316V7.20876C60.8316 6.37347 60.9988 6.1227 61.6663 6.03911L61.8347 5.99731V5.83138H59.37V5.99856L59.5372 6.04036C60.1223 6.08215 60.3731 6.37472 60.3731 7.08462V10.8013L56.4056 5.832L54.6084 5.83138ZM66.552 5.6642C66.4678 5.91497 66.3848 6.04036 66.217 6.04036C66.134 6.04036 66.0498 5.99856 65.9675 5.99856L65.3823 5.78958C65.1699 5.70395 64.9426 5.66133 64.7136 5.6642C63.6281 5.6642 62.8765 6.41589 62.8765 7.41836C62.8765 8.12826 63.2532 8.71278 63.9207 9.13073L64.9232 9.71525C65.0062 9.79884 65.1315 9.84064 65.2158 9.92423C66.0086 10.5087 66.1758 10.7171 66.1758 11.2604C66.1758 11.9703 65.6749 12.4713 64.9232 12.4713C64.0043 12.4713 63.3356 11.845 62.8347 10.5923H62.5421L62.8758 12.8056H63.1266C63.1266 12.5966 63.252 12.4713 63.4192 12.4713H63.5864L64.4223 12.7632C64.5894 12.805 64.756 12.805 64.9644 12.805C66.3012 12.805 67.2195 12.0533 67.2195 10.9672C67.2195 10.2573 66.8015 9.58924 66.0086 9.13011L64.8814 8.42021C64.0873 7.96108 63.7529 7.54313 63.7529 7.0422C63.7529 6.49949 64.212 6.08153 64.8384 6.08153C65.7154 6.08153 66.5089 6.87502 66.7185 7.87749H67.0111L66.7603 5.6642H66.552ZM68.3055 5.83138V5.99856C68.3479 6.04036 68.3897 6.04036 68.4309 6.04036C69.016 6.12395 69.1414 6.24871 69.1414 6.70847V11.762C69.1414 12.2629 68.9742 12.4301 68.3055 12.4719V12.6802H71.1869V12.4719H71.1457C70.4352 12.4719 70.2269 12.2629 70.2269 11.6366V9.67408C70.5606 9.67408 70.686 9.71587 70.9785 9.71587C71.6049 9.71587 72.1058 9.63228 72.5237 9.4651C73.2343 9.21495 73.7346 8.50442 73.7346 7.75273C73.7346 7.16821 73.442 6.66729 72.8575 6.20754C72.5237 5.95739 71.7303 5.832 71.1457 5.832L68.3055 5.83138ZM70.2269 9.2555V6.54066C70.2269 6.29051 70.3098 6.20629 70.5606 6.20629C71.9798 6.20629 72.6073 6.70722 72.6073 7.75148C72.6073 8.75333 71.9798 9.29667 70.8532 9.29667C70.6024 9.29729 70.5194 9.2555 70.2269 9.2555ZM77.0339 5.70599L74.5705 11.4688C74.2779 12.2205 73.9853 12.4713 73.6092 12.4713V12.6796H75.6559V12.4713H75.5717C75.1537 12.4713 74.9454 12.3041 74.9454 12.0539C74.9454 11.9285 74.9866 11.7614 75.0296 11.6366C75.0296 11.5948 75.1968 11.2604 75.4463 10.593L75.4887 10.4258H78.2036C78.2323 10.4767 78.2465 10.5345 78.2447 10.593C78.7039 11.553 78.8299 11.8874 78.8299 12.0963C78.8299 12.3889 78.6627 12.4725 78.1194 12.4725H78.0782V12.6809H80.75V12.4725C80.2909 12.4307 80.1237 12.3053 79.8741 11.679L77.2423 5.70724H77.0339V5.70599ZM76.8674 7.16759L78.0358 10.0072H75.6977L76.8674 7.16759ZM81.2521 5.83138V5.99856L81.3763 6.04036H81.5859C81.9614 6.12395 82.128 6.33293 82.128 6.70847V11.8032C82.128 12.2623 81.8785 12.4713 81.2521 12.4713V12.6796H84.1335V12.4713C83.3819 12.4713 83.2147 12.2623 83.2147 11.636V9.50564H83.7986L86.3886 12.6796H87.9338V12.4713C87.4317 12.4295 87.3487 12.3877 86.6388 11.5106L84.8852 9.38088C86.2221 9.08831 86.68 8.5038 86.7642 7.54313C86.8053 6.95861 86.4716 6.58308 85.9713 6.20692C85.5945 5.99856 84.8428 5.83138 84.3007 5.83138H81.2521ZM83.2147 9.13073V6.54128C83.2147 6.29113 83.3388 6.20692 83.7986 6.20692C85.0106 6.20692 85.6369 6.66667 85.6369 7.62672C85.6369 8.12764 85.3862 8.5456 85.0106 8.79637C84.5927 9.04652 84.1335 9.13073 83.2147 9.13073ZM88.3087 5.83138V5.99856C88.3512 6.04036 88.3929 6.04036 88.4341 6.04036C89.0604 6.12395 89.1858 6.24871 89.1858 6.83385V11.6366C89.1858 12.2629 88.9775 12.4719 88.3087 12.4719V12.6802H93.905L94.3641 10.9261H94.0715C93.822 11.427 93.7378 11.5942 93.4452 11.8449C93.1115 12.1793 92.6106 12.3041 91.6917 12.3041H91.5245L90.7728 12.2623C90.396 12.2623 90.2706 12.1787 90.2706 11.9703V9.2555H91.9836C92.6929 9.29729 92.8595 9.46385 92.9437 10.1744C92.9848 10.1744 92.9848 10.2162 92.9848 10.2998H93.2356V7.87749H92.9848C92.8595 8.62918 92.6511 8.87934 92.066 8.87934H90.27V6.54066C90.27 6.37347 90.3124 6.29051 90.3542 6.24809C90.4372 6.20629 90.6468 6.20629 91.2313 6.20629C92.3167 6.20629 92.8177 6.24809 93.026 6.37348C93.3186 6.49886 93.4028 6.62362 93.5282 7.16696C93.5282 7.20876 93.5694 7.25056 93.5694 7.29235H93.8619L93.8208 5.83076L88.3087 5.83138ZM94.8238 5.83138V5.99856C95.2418 6.04036 95.3672 6.08215 95.7009 6.49948L95.8263 6.58308V11.3434C95.8263 12.1787 95.5755 12.4713 94.8238 12.4713V12.6796H97.2461V12.4713C96.5368 12.4713 96.2861 12.1787 96.2861 11.3434V7.084L100.838 12.805H101.005V7.20876C101.005 6.37347 101.214 6.1227 101.882 6.03911L102.008 5.99731V5.83138H99.543V5.99856L99.7102 6.04036C100.338 6.08215 100.546 6.37472 100.546 7.08462V10.8013L96.5793 5.832L94.8238 5.83138ZM108.438 5.6642C108.355 5.91497 108.23 5.99856 107.979 5.99856H107.853L106.935 5.74779C106.702 5.69441 106.464 5.66638 106.225 5.6642C104.096 5.6642 102.633 7.16759 102.633 9.29729C102.633 11.427 104.011 12.8056 106.058 12.8056C107.268 12.8056 108.271 12.3465 108.897 11.5106L108.73 11.3022C107.978 12.0539 107.268 12.3465 106.392 12.3465C104.804 12.3465 103.844 11.1768 103.844 9.21433C103.844 7.29298 104.763 6.08215 106.266 6.08215C107.394 6.08215 108.188 6.75026 108.522 8.00288H108.771L108.688 5.6642H108.438ZM109.649 5.83138V6.03973C110.108 6.08153 110.4 6.29051 110.944 7.084L112.697 9.63103L112.656 11.6771C112.656 12.3035 112.448 12.4706 111.612 12.4706V12.679H114.827V12.4706C113.951 12.4706 113.783 12.3035 113.783 11.7607L113.742 9.54744L115.287 7.20876L115.371 7.08338L115.538 6.8326C115.915 6.28988 116.206 6.0809 116.708 5.99731V5.83138H114.453V5.99856C114.954 6.04036 115.163 6.12395 115.163 6.33293C115.163 6.45831 115.079 6.62487 114.913 6.87565L113.535 9.08894L111.947 6.66667C111.864 6.58308 111.823 6.41589 111.823 6.3323C111.823 6.12333 111.906 6.08153 112.449 6.03973C112.449 6.03973 112.49 6.03974 112.574 5.99794V5.83138H109.649ZM33.2266 15.7706V15.9796H33.3513L33.5603 16.0208C34.0194 16.0208 34.2284 16.2291 34.2284 16.7725V21.6582C34.2284 22.2845 34.0194 22.451 33.2266 22.451V22.6606H36.3169V22.451C35.5234 22.4099 35.3145 22.2427 35.3145 21.6582V16.7731C35.3145 16.2297 35.5234 16.0214 36.1498 15.9802H36.3169V15.7712H33.2266V15.7706ZM36.6089 15.7706V15.9796C37.0686 15.9796 37.194 16.0626 37.5278 16.4387L37.6114 16.5629V21.3244C37.6114 22.1603 37.3606 22.4517 36.6089 22.4517V22.6613H39.073V22.4517C38.3213 22.4105 38.0705 22.1179 38.0705 21.3244V17.065L42.6642 22.7442H42.8314V17.148C42.8314 16.3133 43.0398 16.0626 43.7085 15.9796H43.8339V15.7706H41.3698V15.9796H41.537C42.1633 16.0626 42.3723 16.3133 42.3723 17.065V20.7811L38.4048 15.77L36.6089 15.7706ZM44.2094 15.7706L44.1258 17.566H44.4178C44.5014 17.065 44.585 16.8143 44.7522 16.6059C45.0023 16.2722 45.2531 16.2291 46.4639 16.2291H46.5893V21.7424C46.5893 22.2433 46.3391 22.4099 45.6286 22.4517V22.6613H48.6772V22.4517C47.8419 22.4105 47.6753 22.2433 47.6753 21.5328V16.2291H47.9255C48.7608 16.2291 49.0116 16.2291 49.2623 16.3545C49.5543 16.5217 49.7215 16.8136 49.8468 17.5653H50.1394L50.0558 15.77L44.2094 15.7706ZM50.432 15.7706V15.9796H50.5574C51.1837 16.0626 51.3509 16.2291 51.3509 16.8143V21.617C51.3509 22.2433 51.1007 22.4099 50.432 22.4517V22.6613H56.0276L56.4873 20.8653H56.1948C55.944 21.4086 55.8604 21.5758 55.5685 21.7842C55.2341 22.1179 54.7332 22.2433 53.8561 22.2433H52.896C52.5617 22.2021 52.3951 22.1179 52.3951 21.9507V19.2359H54.1075C54.8174 19.2359 54.9846 19.4455 55.1093 20.113V20.2384H55.3601V17.8585H55.1093C54.984 18.6102 54.8174 18.861 54.1905 18.861H52.3951V16.4805C52.3951 16.3551 52.4363 16.2297 52.5205 16.2297C52.5623 16.1886 52.8125 16.1468 53.3558 16.1468C54.4419 16.1468 54.9428 16.1879 55.1929 16.314C55.4437 16.4393 55.5691 16.6065 55.6939 17.1486V17.274H56.0282L55.9864 15.7706H50.432ZM56.8211 15.7706V15.9796H56.9465L57.1137 16.0208C57.4898 16.0619 57.6988 16.2715 57.6988 16.6882V21.7424C57.6988 22.2433 57.448 22.4517 56.8217 22.4517V22.6613H59.7031V22.4517C58.9514 22.4105 58.7842 22.2433 58.7842 21.617C58.7842 20.6145 58.7842 19.9052 58.7431 19.4873H59.3282L61.917 22.6613H63.4622V22.4517C62.9613 22.4105 62.9201 22.3687 62.2096 21.4916L60.4554 19.3207C61.7923 19.07 62.2514 18.4848 62.2926 17.5248C62.335 16.8985 62.043 16.5635 61.5409 16.1879C61.1242 15.9372 60.3725 15.7706 59.8715 15.7706H56.8211ZM58.7424 19.0693V16.4805C58.7424 16.2297 58.9096 16.1468 59.3276 16.1468C60.5802 16.1468 61.1647 16.6477 61.1647 17.566C61.1647 18.1093 60.9564 18.526 60.5384 18.7356C60.1204 18.9851 59.7025 19.0693 58.7424 19.0693ZM63.6706 15.7706V15.9796C64.1297 15.9796 64.2545 16.0626 64.5894 16.4387L64.6724 16.5629V21.3244C64.6724 22.1603 64.4229 22.4517 63.6712 22.4517V22.6613H66.1346V22.4517C65.3829 22.4105 65.1322 22.1179 65.1322 21.3244V17.065L69.7266 22.7442H69.8937V17.148C69.8937 16.3133 70.1021 16.0626 70.7696 15.9796H70.895V15.7706H68.4315V15.9796H68.5987C69.225 16.0626 69.4346 16.3133 69.4346 17.065V20.7811L65.4665 15.77L63.6706 15.7706ZM74.6116 15.6452L72.1894 21.4086C71.8556 22.1603 71.6042 22.4517 71.2293 22.4517H71.1869V22.6613H73.2336V22.4517H73.1494C72.7739 22.4517 72.5643 22.2845 72.5643 22.035V21.9925C72.5643 21.8684 72.6067 21.743 72.6485 21.617C72.6485 21.5758 72.7739 21.2402 73.0665 20.5316L73.1076 20.4062H75.8225C75.8225 20.4473 75.8636 20.4891 75.8636 20.5316C76.2816 21.4916 76.407 21.8253 76.407 22.0767C76.407 22.3281 76.2398 22.4523 75.7383 22.4523H75.6971V22.6619H78.3701V22.4523C77.911 22.4111 77.7438 22.2851 77.4512 21.6594L74.8612 15.6458L74.6116 15.6452ZM74.4451 17.148L75.6559 19.9882H73.2754L74.4451 17.148ZM77.994 15.7706L77.911 17.566H78.2036C78.2865 17.065 78.3707 16.8143 78.5373 16.6059C78.7868 16.2722 78.9964 16.2291 80.2491 16.2291H80.3744V21.7424C80.3744 22.2433 80.1237 22.4099 79.4144 22.4517V22.6613H82.4199V22.4517C81.6271 22.4105 81.4187 22.2433 81.4187 21.5328V16.2291H81.7113C82.5459 16.2291 82.7967 16.2291 83.0481 16.3545C83.3394 16.5217 83.5072 16.8136 83.632 17.5653H83.9246L83.8416 15.77L77.994 15.7706ZM84.2589 15.7706V15.9796H84.3831L84.5927 16.0208C85.0936 16.0208 85.2602 16.2291 85.2602 16.7725V21.6582C85.2602 22.2845 85.0518 22.451 84.2589 22.451V22.6606H87.3487V22.451C86.5558 22.4099 86.3462 22.2427 86.3462 21.6582V16.7731C86.3462 16.2297 86.5558 16.0214 87.1821 15.9802H87.3493V15.7712H84.2589V15.7706ZM91.1078 15.6452C89.2276 15.7288 87.8914 17.191 87.8914 19.2365C87.8914 21.3251 89.2707 22.7866 91.275 22.7866C93.2793 22.7866 94.6573 21.3244 94.6573 19.1947C94.6573 17.1062 93.2793 15.6452 91.2338 15.6452H91.1078ZM91.2743 16.0214H91.3155C92.6106 16.0214 93.4876 17.274 93.4876 19.2365C93.4876 21.199 92.6106 22.4105 91.2737 22.4105C89.8957 22.4105 89.0598 21.1997 89.0598 19.1536C89.0611 17.2322 89.8963 16.0214 91.2743 16.0214ZM95.1576 15.7706V15.9796C95.5755 15.9796 95.7009 16.0626 96.0347 16.4387L96.1601 16.5629V21.3244C96.1601 22.1603 95.9093 22.4517 95.1576 22.4517V22.6613H97.5811V22.4517C96.8706 22.4105 96.6198 22.1179 96.6198 21.3244V17.065L101.172 22.7442H101.339V17.148C101.339 16.3133 101.549 16.0626 102.216 15.9796H102.341V15.7706H99.878V15.9796H100.045C100.671 16.0626 100.88 16.3133 100.88 17.065V20.7811L96.913 15.77L95.1576 15.7706ZM106.1 15.6452L103.635 21.4086C103.344 22.1603 103.051 22.4517 102.675 22.4517H102.634V22.6613H104.723V22.4517H104.638C104.22 22.4517 104.012 22.2845 104.012 22.035V21.9925C104.012 21.8684 104.053 21.743 104.096 21.617C104.096 21.5758 104.263 21.2402 104.513 20.5316L104.555 20.4062H107.269C107.311 20.4473 107.311 20.4891 107.311 20.5316C107.77 21.4916 107.897 21.8253 107.897 22.0767C107.897 22.3281 107.728 22.4523 107.186 22.4523H107.145V22.6619H109.817V22.4523C109.357 22.4111 109.19 22.2851 108.94 21.6594L106.309 15.6458L106.1 15.6452ZM105.933 17.148L107.101 19.9882H104.763L105.933 17.148ZM110.109 15.7706V15.9796H110.234C110.819 16.0626 110.986 16.2291 110.986 16.6889V21.617C110.986 22.2433 110.777 22.4099 110.109 22.4517V22.6613H115.663L116.164 20.8241H115.914C115.664 21.4093 115.412 21.743 115.078 21.9514C114.703 22.161 114.327 22.2439 113.408 22.2439H112.907C112.196 22.2439 112.071 22.161 112.071 21.7848V16.7319C112.071 16.2297 112.238 16.0632 112.864 15.9802H113.031V15.7712H110.109V15.7706Z" fill="white"/>
<path fill-rule="evenodd" clip-rule="evenodd" d="M44.7933 27.6985C44.7097 27.8657 44.6679 27.8657 44.5426 28.0753C44.459 28.1582 44.4172 28.1994 44.3754 28.2425C44.3336 28.2836 44.25 28.3678 44.0828 28.492L44.041 28.5344L44.0828 28.5756H44.3754V30.2455C44.3754 30.6635 44.5426 30.913 44.8345 30.913C45.1265 30.913 45.3354 30.7458 45.5026 30.4963L45.419 30.4121C45.2936 30.5793 45.2107 30.6204 45.0847 30.6204C44.9175 30.6204 44.8345 30.4532 44.8345 30.2037V28.5749H45.3772V28.4078H44.8345V27.7384L44.7933 27.6985ZM46.3385 27.1564L46.2549 27.1976L46.0042 27.2387L45.9206 27.2799C45.7534 27.3223 45.7122 27.3641 45.545 27.4053V27.4895H45.6704C45.8376 27.4895 45.8794 27.5307 45.8794 27.6979V30.4127C45.8794 30.6635 45.7958 30.7053 45.545 30.7464V30.8307H46.7141V30.7464C46.4221 30.7464 46.3385 30.6635 46.3385 30.3709V28.9929C46.5887 28.7421 46.7559 28.6592 46.923 28.6592C47.1738 28.6592 47.3404 28.8263 47.3404 29.1601V30.3285C47.3404 30.6635 47.2568 30.7464 46.9642 30.7464V30.8307H48.1339V30.7464C47.8413 30.7053 47.7995 30.6635 47.7995 30.3709V29.0341C47.7995 28.6585 47.5069 28.3666 47.1314 28.3666C46.8394 28.3666 46.5887 28.4907 46.3385 28.7833V27.1564ZM50.389 29.3273C50.3478 28.701 50.0134 28.3672 49.4701 28.3672C48.7602 28.3672 48.301 28.9093 48.301 29.7028C48.301 30.4133 48.7184 30.9136 49.3447 30.9136C49.8456 30.9136 50.2636 30.5799 50.4719 29.9947L50.3883 29.9536C50.1382 30.3715 49.8874 30.5387 49.553 30.5387C49.0521 30.5387 48.7602 30.1208 48.7178 29.3279L50.389 29.3273ZM48.7184 29.1601C48.7602 28.7833 48.9692 28.5338 49.3035 28.5338C49.5961 28.5338 49.7208 28.701 49.8044 29.1189L49.8462 29.1601H48.7184ZM54.231 29.9947C53.9803 30.3715 53.7719 30.4969 53.4793 30.4969C52.9784 30.4969 52.644 30.079 52.644 29.4526C52.644 28.9093 52.9366 28.5338 53.3539 28.5338C53.5211 28.5338 53.6047 28.5749 53.6459 28.7421L53.7295 28.9505C53.7713 29.0759 53.8549 29.1601 53.9803 29.1601C54.0453 29.1557 54.1066 29.1279 54.1527 29.0818C54.1988 29.0356 54.2266 28.9744 54.231 28.9093C54.231 28.6167 53.8549 28.3672 53.3957 28.3672C52.7276 28.3672 52.2261 28.9511 52.2261 29.7028C52.2261 30.3715 52.6434 30.9136 53.2279 30.9136C53.6877 30.9136 54.0632 30.6211 54.314 30.0378L54.231 29.9947ZM55.818 28.3672C55.1081 28.3672 54.6072 28.8681 54.6072 29.6198C54.6072 30.3715 55.1499 30.9136 55.818 30.9136C56.4861 30.9136 57.0288 30.3285 57.0288 29.5768C57.0288 28.8681 56.5279 28.3672 55.818 28.3672ZM55.1081 29.4526V29.3684C55.1081 28.8675 55.3589 28.5338 55.7344 28.5338C56.1935 28.5338 56.5273 29.0347 56.5273 29.7446C56.5273 30.3709 56.2771 30.7458 55.901 30.7458C55.4418 30.7464 55.1499 30.2461 55.1081 29.4526ZM59.5771 30.4969C59.4517 30.5799 59.4087 30.5799 59.3263 30.5799C59.201 30.5799 59.1592 30.4969 59.1592 30.3291V29.1195C59.1592 28.6174 58.9084 28.3678 58.3657 28.3678C57.8647 28.3678 57.4886 28.6174 57.4886 28.9517C57.4886 29.0771 57.5722 29.2025 57.6976 29.2025C57.8229 29.2025 57.9477 29.0771 57.9477 28.9517L57.9059 28.7845V28.7434C57.9059 28.618 58.1143 28.4926 58.3232 28.4926C58.574 28.4926 58.6994 28.661 58.6994 28.9517V29.2867C58.4068 29.3697 58.2821 29.4121 58.0313 29.578C57.5722 29.7876 57.3632 29.996 57.3632 30.3297C57.3632 30.6647 57.614 30.9149 57.9477 30.9149C58.1985 30.9149 58.4068 30.7907 58.7412 30.4982C58.7412 30.7907 58.8666 30.9149 59.0749 30.9149C59.2421 30.9149 59.3675 30.8319 59.5771 30.6223V30.4969ZM58.6994 29.4115V30.0378C58.6994 30.4545 58.6158 30.5799 58.1985 30.5799C57.9895 30.5799 57.8641 30.4127 57.8641 30.1619C57.8641 29.9947 57.9059 29.8706 58.0313 29.7452C58.2403 29.5768 58.3239 29.5356 58.6994 29.4115ZM60.5372 27.1564C60.2864 27.2394 59.9108 27.3236 59.6601 27.4059V27.4901H59.8273C59.9944 27.4901 60.078 27.5313 60.078 27.6155V30.4545C60.078 30.6641 59.9526 30.7471 59.6601 30.7471V30.8313H60.9551V30.7471C60.6214 30.7471 60.5372 30.6641 60.5372 30.4133V27.1564ZM61.748 27.1564C61.6226 27.1564 61.4972 27.2805 61.4972 27.449C61.4972 27.5731 61.6226 27.6985 61.748 27.6985C61.9152 27.6985 62.0406 27.5731 62.0406 27.449C62.0416 27.4103 62.0347 27.3718 62.0204 27.3358C62.006 27.2998 61.9845 27.2672 61.9572 27.2398C61.9298 27.2124 61.8971 27.1909 61.8612 27.1766C61.8252 27.1622 61.7867 27.1554 61.748 27.1564ZM61.9994 28.3672H61.957L61.5814 28.4914L61.4142 28.5756C61.2889 28.6167 61.2889 28.6167 61.1635 28.6598V28.7428C61.2889 28.7428 61.3307 28.7016 61.3718 28.7016C61.539 28.7016 61.5814 28.7845 61.5814 28.9941V30.3722C61.5814 30.6647 61.4972 30.7477 61.1635 30.7477V30.8319H62.4585V30.7477C62.1235 30.7477 62.0406 30.6647 62.0406 30.4139V28.3685H61.9994V28.3672ZM63.3343 27.6985C63.2932 27.8657 63.2514 27.8657 63.126 28.0753C63.0418 28.1582 63.0006 28.1994 62.9588 28.2425C62.9176 28.2836 62.8334 28.3678 62.6662 28.492L62.6251 28.5344C62.6251 28.5344 62.6251 28.5756 62.6662 28.5756H62.9588V30.2455C62.9588 30.6635 63.126 30.913 63.4179 30.913C63.6687 30.913 63.9189 30.7458 64.0854 30.4963L64.0024 30.4121C63.8771 30.5793 63.7928 30.6204 63.6687 30.6204C63.5003 30.6204 63.4179 30.4532 63.4179 30.2037V28.5749H63.9613V28.4078H63.4186V27.7384L63.3343 27.6985ZM64.7554 27.1564C64.5882 27.1564 64.5046 27.2805 64.5046 27.449C64.5046 27.5731 64.63 27.6985 64.7554 27.6985C64.9226 27.6985 65.048 27.5731 65.048 27.449C65.0489 27.4103 65.042 27.3718 65.0276 27.3359C65.0132 27.3 64.9917 27.2673 64.9644 27.24C64.937 27.2126 64.9044 27.1911 64.8685 27.1767C64.8325 27.1624 64.7941 27.1554 64.7554 27.1564ZM65.0049 28.3672H64.9637L64.5882 28.4914L64.421 28.5756C64.2956 28.6167 64.2526 28.6167 64.1703 28.6598V28.7428C64.2956 28.7428 64.2956 28.7016 64.3786 28.7016C64.504 28.7016 64.5882 28.7845 64.5882 28.9941V30.3722C64.5882 30.6647 64.504 30.7477 64.1291 30.7477V30.8319H65.4229V30.7477C65.1303 30.7477 65.0473 30.6647 65.0473 30.4139V28.3685H65.0049V28.3672ZM66.8851 28.3672C66.1746 28.3672 65.7154 28.8681 65.7154 29.6198C65.7154 30.3715 66.2164 30.9136 66.9263 30.9136C67.595 30.9136 68.0959 30.3285 68.0959 29.5768C68.0959 28.8675 67.595 28.3672 66.9263 28.3672H66.8851ZM66.2157 29.4526V29.3684C66.2157 28.8675 66.4665 28.5338 66.8433 28.5338C67.3024 28.5338 67.6362 29.0347 67.6362 29.7446C67.6362 30.3709 67.3854 30.7458 66.9674 30.7458C66.5507 30.7464 66.2588 30.2461 66.2157 29.4526ZM69.0978 28.3672L69.0148 28.4084C68.638 28.5338 68.5557 28.5338 68.3473 28.6167V28.701C68.4303 28.6598 68.4715 28.6598 68.5145 28.6598C68.6386 28.6598 68.6817 28.7427 68.6817 28.9093V30.4545C68.6817 30.6641 68.5975 30.7471 68.3479 30.7471V30.8313H69.5163V30.7471C69.2668 30.7471 69.1408 30.6641 69.1408 30.4975V28.9511C69.3492 28.7428 69.5163 28.6598 69.6829 28.6598C69.9337 28.6598 70.1009 28.827 70.1009 29.0765V30.4133C70.1009 30.6641 70.0166 30.7471 69.7671 30.7471V30.8313H70.8943V30.7471C70.6448 30.7471 70.5606 30.6641 70.5606 30.4133V29.0765C70.5606 28.6598 70.268 28.3672 69.9343 28.3672C69.6835 28.3672 69.5163 28.4502 69.1414 28.7839V28.3672H69.0978ZM74.8188 30.4969C74.7358 30.5799 74.6934 30.5799 74.6104 30.5799C74.485 30.5799 74.4432 30.4969 74.4432 30.3291V29.1195C74.4432 28.6174 74.1925 28.3678 73.6504 28.3678C73.1482 28.3678 72.7733 28.6174 72.7733 28.9517C72.7733 29.0771 72.8562 29.2025 72.9816 29.2025C73.107 29.2025 73.2324 29.0771 73.2324 28.9517L73.19 28.7845V28.7434C73.19 28.618 73.3996 28.4926 73.6079 28.4926C73.8587 28.4926 73.9847 28.661 73.9847 28.9517V29.2867C73.6922 29.3697 73.5668 29.4121 73.316 29.578C72.8569 29.7876 72.6485 29.996 72.6485 30.3297C72.6485 30.6647 72.8993 30.9149 73.2337 30.9149C73.4832 30.9149 73.6928 30.7907 74.0265 30.4982C74.0265 30.7907 74.1519 30.9149 74.3603 30.9149C74.5274 30.9149 74.6528 30.8319 74.8194 30.6223L74.8188 30.4969ZM73.9847 29.4115V30.0378C73.9847 30.4545 73.8593 30.5799 73.4826 30.5799C73.2742 30.5799 73.1488 30.4127 73.1488 30.1619C73.1488 29.9947 73.19 29.8706 73.316 29.7452C73.525 29.5768 73.6079 29.5356 73.9847 29.4115ZM77.3664 28.5344H77.1581C76.9073 28.5344 76.8231 28.5344 76.7401 28.492L76.4475 28.409C76.3633 28.3678 76.2804 28.3678 76.155 28.3678C75.6116 28.3678 75.2361 28.7434 75.2361 29.2437C75.2361 29.5774 75.4033 29.8288 75.737 29.9542L75.654 30.0384L75.4869 30.1625C75.3184 30.3297 75.2361 30.4551 75.2361 30.5393C75.2361 30.6647 75.3191 30.7477 75.5287 30.8319L75.4444 30.8731C75.1519 31.1238 74.9853 31.291 74.9853 31.4994C74.9853 31.792 75.4033 32.0016 75.9042 32.0016C76.6983 32.0016 77.3246 31.5836 77.3246 31.0814C77.3246 30.7901 77.0738 30.5393 76.6983 30.5393L75.7794 30.4982C75.6952 30.4557 75.5698 30.4139 75.5698 30.3728C75.5698 30.2886 75.654 30.2056 75.737 30.0802C75.8212 30.039 75.8624 29.996 75.9042 29.996L76.155 30.0384H76.1961C76.6553 30.0384 77.0321 29.6616 77.0321 29.2025C77.0321 29.0353 77.0321 28.9517 76.9478 28.7434H77.3658L77.3664 28.5344ZM76.0714 28.5344C76.3639 28.5344 76.6147 28.9099 76.6147 29.3691C76.6147 29.7028 76.4893 29.9124 76.2392 29.9124C75.9042 29.9124 75.654 29.5356 75.654 29.0353C75.6965 28.701 75.7801 28.5344 76.0714 28.5344ZM75.6547 30.8724C75.8219 30.8724 75.863 30.9136 76.0302 30.9136L76.8661 30.956C77.0745 30.956 77.1999 31.039 77.1999 31.1644C77.1999 31.4981 76.7819 31.7077 76.1556 31.7077C75.6965 31.7077 75.3627 31.5393 75.3627 31.331C75.3621 31.2062 75.4451 31.0808 75.6547 30.8724ZM79.9141 30.4969C79.8299 30.5799 79.7887 30.5799 79.7057 30.5799C79.5803 30.5799 79.5373 30.4969 79.5373 30.3291V29.1195C79.5373 28.6174 79.2878 28.3678 78.7444 28.3678C78.2435 28.3678 77.8673 28.6174 77.8673 28.9517C77.8673 29.0771 77.9516 29.2025 78.0769 29.2025C78.2023 29.2025 78.3265 29.0771 78.3265 28.9517L78.2853 28.7845V28.7434C78.2853 28.618 78.4936 28.4926 78.7033 28.4926C78.954 28.4926 79.0788 28.661 79.0788 28.9517V29.2867C78.7862 29.3697 78.6621 29.4121 78.4113 29.578C77.9522 29.7876 77.7438 29.996 77.7438 30.3297C77.7438 30.6647 77.9933 30.9149 78.3277 30.9149C78.5785 30.9149 78.7868 30.7907 79.1218 30.4982C79.1218 30.7907 79.246 30.9149 79.4556 30.9149C79.6227 30.9149 79.7481 30.8319 79.9147 30.6223V30.4969H79.9141ZM79.0788 29.4115V30.0378C79.0788 30.4545 78.9546 30.5799 78.5779 30.5799C78.3695 30.5799 78.2441 30.4127 78.2441 30.1619C78.2441 29.9947 78.2853 29.8706 78.4113 29.7452C78.619 29.5768 78.7033 29.5356 79.0788 29.4115ZM80.6234 27.1564C80.4992 27.1564 80.3738 27.2805 80.3738 27.449C80.3738 27.5731 80.4992 27.6985 80.6234 27.6985C80.7918 27.6985 80.9172 27.5731 80.9172 27.449C80.9182 27.4101 80.9113 27.3715 80.8969 27.3355C80.8825 27.2994 80.8609 27.2667 80.8333 27.2393C80.8058 27.2119 80.773 27.1904 80.7369 27.1762C80.7008 27.1619 80.6622 27.1552 80.6234 27.1564ZM80.8741 28.3672H80.833L80.4562 28.4914L80.289 28.5756C80.1649 28.6167 80.1648 28.6167 80.0395 28.6598V28.7428C80.1648 28.7428 80.2066 28.7016 80.2478 28.7016C80.415 28.7016 80.4562 28.7845 80.4562 28.9941V30.3722C80.4562 30.6647 80.3732 30.7477 80.0395 30.7477V30.8319H81.3333V30.7477C80.9995 30.7477 80.9165 30.6647 80.9165 30.4139V28.3685H80.8741V28.3672ZM82.2952 28.3672L82.1698 28.4084C81.8348 28.5338 81.7518 28.5338 81.5435 28.6167V28.701C81.6264 28.6598 81.6264 28.6598 81.6689 28.6598C81.793 28.6598 81.8772 28.7427 81.8772 28.9093V30.4545C81.8772 30.6641 81.793 30.7471 81.5435 30.7471V30.8313H82.7119V30.7471C82.4193 30.7471 82.3363 30.6641 82.3363 30.4975V28.9511C82.5447 28.7428 82.7119 28.6598 82.8784 28.6598C83.1292 28.6598 83.2552 28.827 83.2552 29.0765V30.4133C83.2552 30.6641 83.171 30.7471 82.9215 30.7471V30.8313H84.0487V30.7471C83.7979 30.7471 83.715 30.6641 83.715 30.4133V29.0765C83.715 28.6598 83.4642 28.3672 83.0887 28.3672C82.8379 28.3672 82.6707 28.4502 82.337 28.7839V28.3672H82.2952ZM85.7598 28.4084C85.7187 28.4496 85.7187 28.4496 85.6769 28.4496C85.6351 28.4496 85.5515 28.4496 85.5097 28.4084C85.3843 28.3672 85.3001 28.3672 85.176 28.3672C84.758 28.3672 84.4243 28.6598 84.4243 28.9935C84.4243 29.2861 84.5914 29.5356 84.8834 29.7028L85.3001 29.9536C85.5509 30.079 85.6351 30.2043 85.6351 30.4127C85.6351 30.6211 85.4679 30.7895 85.176 30.7895C84.841 30.7895 84.6738 30.5799 84.5484 30.1208L84.5072 30.0378H84.4243V30.8724H84.5072C84.5072 30.8313 84.5484 30.7895 84.6326 30.7895C84.6738 30.7895 84.6738 30.7895 84.7168 30.8307L85.0506 30.8718C85.0917 30.8718 85.1335 30.913 85.2177 30.913C85.6769 30.913 86.0106 30.5793 86.0106 30.2037C86.0106 30.0783 86.0106 29.9529 85.9264 29.9112C85.8434 29.744 85.6769 29.6186 85.1335 29.2848C84.841 29.1595 84.758 29.0341 84.758 28.8257C84.758 28.6161 84.9252 28.4907 85.176 28.4907C85.4685 28.4907 85.6769 28.7003 85.7598 29.1595H85.8441V28.4078L85.7598 28.4084ZM87.0137 27.6985C86.9725 27.8657 86.9295 27.8657 86.7629 28.0753C86.7218 28.1582 86.6787 28.1994 86.6375 28.2425C86.5964 28.2836 86.5122 28.3678 86.345 28.492L86.3038 28.5344C86.3038 28.5344 86.3038 28.5756 86.345 28.5756H86.5958V30.2455C86.5958 30.6635 86.8041 30.913 87.0967 30.913C87.3474 30.913 87.5988 30.7458 87.7654 30.4963L87.6812 30.4121C87.5558 30.5793 87.4728 30.6204 87.3474 30.6204C87.1803 30.6204 87.0549 30.4532 87.0549 30.2037V28.5749H87.64V28.4078H87.0549V27.948L87.096 27.8226V27.7384L87.0137 27.6985ZM91.3991 29.9947C91.1483 30.3715 90.94 30.4969 90.605 30.4969C90.1041 30.4969 89.7703 30.079 89.7703 29.4526C89.7703 28.9093 90.1041 28.5338 90.522 28.5338C90.6892 28.5338 90.7728 28.5749 90.8146 28.7421L90.8976 28.9505C90.8976 29.0759 91.023 29.1601 91.1072 29.1601C91.2744 29.1601 91.3997 29.0347 91.3997 28.9093C91.3997 28.6167 91.023 28.3672 90.5638 28.3672C89.8964 28.3672 89.353 28.9511 89.353 29.7028C89.353 30.3715 89.8121 30.9136 90.3973 30.9136C90.8564 30.9136 91.1901 30.6211 91.4415 30.0378L91.3991 29.9947ZM92.9437 28.3672C92.2332 28.3672 91.774 28.8681 91.774 29.6198C91.774 30.3715 92.2762 30.9136 92.9849 30.9136C93.6536 30.9136 94.1545 30.3285 94.1545 29.5768C94.1545 28.8675 93.6536 28.3672 92.9849 28.3672H92.9437ZM92.2762 29.4526V29.3684C92.2762 28.8675 92.5257 28.5338 92.9025 28.5338C93.3616 28.5338 93.6954 29.0347 93.6954 29.7446C93.6954 30.3709 93.4446 30.7458 93.0266 30.7458C92.6099 30.7464 92.3174 30.2461 92.2762 29.4526ZM95.1563 28.3672H95.1152L94.9898 28.4084L94.8657 28.4914L94.7403 28.5338L94.5731 28.5749L94.4047 28.6161L94.3635 28.6585V28.7415C94.4477 28.7003 94.4889 28.7003 94.5307 28.7003C94.656 28.7003 94.7403 28.7833 94.7403 28.9499V30.4532C94.7403 30.6204 94.6561 30.704 94.4053 30.7458H94.3641V30.83H95.6591V30.7458C95.3254 30.7458 95.2 30.6628 95.2 30.4121V29.1183C95.2 29.0759 95.2412 28.9499 95.3254 28.8257C95.4084 28.7833 95.4926 28.7003 95.5749 28.7003C95.5749 28.7003 95.6173 28.7003 95.6173 28.7415L95.8257 28.8669C95.8257 28.8669 95.8669 28.9081 95.9087 28.9081C96.0771 28.9081 96.1594 28.8251 96.1594 28.6585C96.1594 28.4489 96.0341 28.366 95.8257 28.366C95.6173 28.366 95.4489 28.4901 95.2406 28.7827L95.1994 28.8251V28.366H95.1563V28.3672Z" fill="white"/>
<path fill-rule="evenodd" clip-rule="evenodd" d="M96.953 28.3672H96.9119L96.7865 28.4083L96.6611 28.4913L96.5369 28.5337L96.3685 28.5749L96.2013 28.6161L96.1602 28.6585V28.7415C96.2444 28.7003 96.2855 28.7003 96.3273 28.7003C96.4527 28.7003 96.5369 28.7833 96.5369 28.9498V30.4532C96.5369 30.6204 96.4527 30.704 96.202 30.7458H96.1608V30.83H97.4558V30.7458C97.1208 30.7458 96.9967 30.6628 96.9967 30.412V29.1182C96.9967 29.0758 97.0797 28.9498 97.1208 28.8257C97.205 28.7833 97.2893 28.7003 97.3716 28.7003C97.3716 28.7003 97.4128 28.7003 97.4128 28.7415L97.6224 28.8669C97.6224 28.8669 97.6636 28.908 97.7053 28.908C97.8725 28.908 97.9561 28.8251 97.9561 28.6585C97.9561 28.4489 97.8307 28.3659 97.6224 28.3659C97.4128 28.3659 97.2456 28.4901 97.0372 28.7826L96.9961 28.8251V28.3659H96.953V28.3672ZM97.9555 28.4083V28.4913C98.2063 28.4913 98.2892 28.5755 98.2892 28.7839V30.2461C98.2892 30.6216 98.5818 30.9136 98.958 30.9136C99.2505 30.9136 99.4171 30.7894 99.7508 30.4545V30.8724H99.8338L100.085 30.7894L100.293 30.7052L100.46 30.6641H100.503V30.5798H100.418C100.251 30.5798 100.169 30.4969 100.169 30.3291V28.409H99.3329V28.4919C99.6254 28.5344 99.7084 28.5762 99.7084 28.7845V30.1625C99.7084 30.4133 99.4589 30.5805 99.1663 30.5805C98.9155 30.5805 98.7484 30.4133 98.7484 30.2049V28.409L97.9555 28.4083ZM101.463 28.3672H101.38L101.255 28.4501H101.212L101.045 28.4913L100.712 28.6167H100.67V28.7009H100.796C100.963 28.7009 101.004 28.7839 101.004 28.9093V31.6241C101.004 31.8325 100.921 31.8749 100.629 31.9167V32.0009H101.964V31.9161C101.589 31.9161 101.463 31.8318 101.463 31.5823V30.6634C101.672 30.8306 101.797 30.913 102.007 30.913C102.674 30.913 103.175 30.2867 103.175 29.4938C103.175 28.8263 102.758 28.3666 102.256 28.3666C101.964 28.3666 101.714 28.4907 101.504 28.7833L101.463 28.3672ZM101.463 29.0347C101.463 28.9935 101.504 28.9935 101.504 28.9504C101.63 28.7833 101.839 28.7009 102.048 28.7009C102.423 28.7009 102.674 29.1189 102.674 29.7021C102.674 30.3284 102.423 30.7046 102.048 30.7046C101.922 30.7046 101.797 30.7046 101.714 30.6204C101.547 30.5374 101.463 30.4532 101.463 30.3709V29.0347ZM104.095 27.6984C104.053 27.8656 104.011 27.8656 103.844 28.0752C103.803 28.1582 103.719 28.1994 103.719 28.2424C103.678 28.2836 103.594 28.3678 103.426 28.4919L103.385 28.5344C103.385 28.5344 103.385 28.5755 103.426 28.5755H103.677V30.2455C103.677 30.6634 103.885 30.913 104.178 30.913C104.429 30.913 104.679 30.7458 104.846 30.4963L104.763 30.412C104.637 30.5792 104.554 30.6204 104.429 30.6204C104.262 30.6204 104.136 30.4532 104.136 30.2037V28.5749H104.678V28.4077H104.136V27.7384L104.095 27.6984ZM105.514 27.1564C105.476 27.1553 105.437 27.1622 105.401 27.1765C105.365 27.1909 105.332 27.2124 105.305 27.2398C105.278 27.2671 105.256 27.2998 105.242 27.3358C105.228 27.3717 105.221 27.4102 105.222 27.4489C105.222 27.5731 105.347 27.6984 105.514 27.6984C105.681 27.6984 105.807 27.5731 105.807 27.4489C105.808 27.4102 105.801 27.3717 105.787 27.3358C105.772 27.2998 105.751 27.2671 105.723 27.2398C105.696 27.2124 105.663 27.1909 105.627 27.1765C105.591 27.1622 105.553 27.1553 105.514 27.1564ZM105.764 28.3672H105.723L105.348 28.4913L105.181 28.5755C105.055 28.6167 105.012 28.6167 104.93 28.6597V28.7427C105.013 28.7427 105.055 28.7015 105.138 28.7015C105.263 28.7015 105.348 28.7845 105.348 28.9941V30.3721C105.348 30.6647 105.222 30.7477 104.889 30.7477V30.8319H106.182V30.7477C105.89 30.7477 105.807 30.6647 105.807 30.4139V28.3684H105.764V28.3672ZM107.645 28.3672C106.934 28.3672 106.475 28.8681 106.475 29.6198C106.475 30.3715 106.976 30.9136 107.645 30.9136C108.355 30.9136 108.855 30.3284 108.855 29.5768C108.855 28.8675 108.354 28.3672 107.686 28.3672H107.645ZM106.975 29.4526V29.3684C106.975 28.8675 107.226 28.5337 107.603 28.5337C108.062 28.5337 108.354 29.0347 108.354 29.7446C108.354 30.3709 108.104 30.7458 107.727 30.7458C107.31 30.7464 107.018 30.2461 106.975 29.4526ZM109.858 28.3672L109.732 28.4083C109.399 28.5337 109.315 28.5337 109.106 28.6167V28.7009C109.189 28.6597 109.23 28.6597 109.273 28.6597C109.399 28.6597 109.441 28.7427 109.441 28.9093V30.4545C109.441 30.6641 109.356 30.747 109.107 30.747V30.8312H110.275V30.747C110.026 30.747 109.9 30.6641 109.9 30.4975V28.9511C110.108 28.7427 110.275 28.6597 110.442 28.6597C110.693 28.6597 110.86 28.8269 110.86 29.0765V30.4133C110.86 30.6641 110.777 30.747 110.526 30.747V30.8312H111.653V30.747C111.362 30.747 111.319 30.6641 111.319 30.4133V29.0765C111.319 28.6597 111.027 28.3672 110.693 28.3672C110.442 28.3672 110.275 28.4501 109.9 28.7839V28.3672H109.858Z" fill="white"/>
<path fill-rule="evenodd" clip-rule="evenodd" d="M15.9852 0.665611C12.6229 2.6824 10.0596 6.57063 9.02784 11.3328C10.5655 11.7558 12.3203 11.9953 14.1812 11.9953C20.2259 11.9953 25.1566 9.46388 25.1566 6.35979C25.1566 6.18262 25.1403 6.00796 25.1085 5.83516C24.1489 4.55864 22.9657 3.46676 21.6164 2.61254L21.919 2.15964C25.9975 4.69732 28.7223 9.2206 28.7223 14.3615C28.7223 22.2708 22.2708 28.7223 14.3615 28.7223C6.45086 28.7223 0 22.2708 0 14.3615C0 6.45086 6.45149 0 14.3615 0C16.2816 0 18.1162 0.381152 19.7936 1.07109L19.5747 1.56141C18.4274 1.09194 17.2185 0.790243 15.9852 0.665611ZM27.3368 10.4957C26.0399 14.6116 20.725 17.7101 14.3983 17.7101C12.2985 17.7101 10.311 17.42 8.54438 16.8742C8.66727 20.3126 9.54436 23.5122 10.9567 26.1902C11.175 26.2551 11.3958 26.3144 11.6185 26.368C10.4489 24.0493 9.77891 21.3775 9.77891 18.5348C9.77891 18.2877 9.78452 18.0438 9.79451 17.7999C11.2293 18.1287 12.7807 18.3008 14.3983 18.3008C14.5561 18.3008 14.7139 18.2983 14.8711 18.2946C14.8649 18.5872 14.8649 18.8829 14.8717 19.1804C14.9322 21.846 15.4868 24.3693 16.4225 26.6075C22.7904 25.7423 27.726 20.2609 27.726 13.6622C27.726 12.5711 27.5907 11.51 27.3368 10.4957ZM5.03168 22.4766C4.01549 20.2808 3.44158 17.7918 3.44158 15.1587C3.44158 14.7682 3.45468 14.3802 3.47901 13.9965C2.7479 13.271 2.16775 12.4482 1.77038 11.5387C1.6548 12.2408 1.5966 12.9512 1.59634 13.6628C1.59634 17.0545 2.89949 20.1504 5.03168 22.4766ZM3.32368 7.1826C3.51457 7.84509 3.93128 8.47139 4.53263 9.03969C5.77215 5.70665 7.99418 2.93754 10.7889 1.18587C7.63509 2.17523 4.96972 4.31629 3.32368 7.1826ZM13.3989 5.91376C14.0112 5.91491 14.5981 6.15866 15.031 6.59161C15.464 7.02457 15.7077 7.61145 15.7089 8.22374C15.7077 8.83603 15.464 9.42291 15.031 9.85587C14.5981 10.2888 14.0112 10.5326 13.3989 10.5337C12.7865 10.5327 12.1995 10.2891 11.7664 9.85609C11.3333 9.42312 11.0895 8.83614 11.0883 8.22374C11.0896 7.61139 11.3335 7.02451 11.7666 6.59157C12.1996 6.15864 12.7866 5.91491 13.3989 5.91376Z" fill="white"/>
</svg>
