<svg width="445" height="432" viewBox="0 0 445 432" fill="none" xmlns="http://www.w3.org/2000/svg">
<path d="M168.805 47.1934C75.5766 73.0037 20.9233 169.504 46.7336 262.733C72.544 355.961 169.044 410.614 262.273 384.804C355.501 358.994 410.155 262.494 384.344 169.265C358.534 76.0363 262.034 21.383 168.805 47.1934Z" fill="url(#paint0_linear_2404_242763)"/>
<path d="M276.989 98.1074L280.313 96.4294C280.489 96.3807 280.793 96.1073 280.695 95.7554L280.425 92.0416C280.455 91.465 280.709 91.0157 281.237 90.8695C281.765 90.7234 282.39 90.9292 282.536 91.457L284.214 94.7811C284.263 94.9571 284.536 95.2603 284.888 95.1629L288.602 94.8924C289.179 94.9222 289.628 95.1767 289.774 95.7046C289.92 96.2324 289.714 96.8577 289.186 97.0038L285.862 98.6819C285.686 98.7306 285.383 99.0039 285.481 99.3558L285.751 103.07C285.721 103.646 285.467 104.096 284.939 104.242C284.411 104.388 283.786 104.182 283.64 103.654L281.962 100.33C281.913 100.154 281.64 99.8509 281.288 99.9484L277.574 100.219C276.997 100.189 276.548 99.9345 276.402 99.4067C276.304 99.0548 276.51 98.4295 276.989 98.1074Z" fill="#E69A49"/>
<path d="M117.39 117.229L120.559 115.629C120.727 115.583 121.016 115.322 120.923 114.987L120.665 111.446C120.694 110.897 120.936 110.468 121.439 110.329C121.943 110.19 122.539 110.386 122.678 110.889L124.278 114.058C124.324 114.226 124.585 114.515 124.92 114.422L128.461 114.164C129.01 114.193 129.439 114.435 129.578 114.938C129.717 115.442 129.521 116.038 129.018 116.177L125.849 117.777C125.681 117.823 125.392 118.084 125.485 118.419L125.743 121.96C125.715 122.509 125.472 122.938 124.969 123.077C124.466 123.216 123.869 123.02 123.73 122.517L122.13 119.348C122.084 119.18 121.823 118.891 121.488 118.984L117.947 119.242C117.398 119.214 116.969 118.971 116.83 118.468C116.691 117.965 116.887 117.368 117.39 117.229Z" fill="#D6DCE8"/>
<path d="M230.915 151.929L233.475 150.636C233.61 150.599 233.844 150.388 233.769 150.118L233.561 147.258C233.584 146.814 233.779 146.468 234.186 146.356C234.592 146.243 235.074 146.401 235.186 146.808L236.478 149.367C236.516 149.503 236.726 149.736 236.997 149.661L239.857 149.453C240.301 149.476 240.647 149.672 240.759 150.078C240.872 150.485 240.713 150.966 240.307 151.079L237.747 152.371C237.612 152.408 237.379 152.619 237.454 152.89L237.662 155.749C237.639 156.193 237.443 156.539 237.036 156.652C236.63 156.764 236.149 156.606 236.036 156.199L234.744 153.64C234.706 153.504 234.496 153.271 234.225 153.346L231.365 153.554C230.921 153.531 230.576 153.335 230.463 152.929C230.252 152.695 230.546 152.177 230.915 151.929Z" fill="#D6DCE8"/>
<path d="M130.077 332.196L134.672 329.876C134.915 329.809 135.335 329.431 135.2 328.945L134.826 323.811C134.867 323.014 135.219 322.393 135.949 322.191C136.678 321.989 137.543 322.273 137.745 323.003L140.064 327.598C140.132 327.841 140.51 328.26 140.996 328.126L146.13 327.752C146.927 327.793 147.548 328.145 147.75 328.875C147.952 329.604 147.668 330.469 146.938 330.671L142.343 332.99C142.1 333.058 141.681 333.435 141.815 333.922L142.189 339.056C142.148 339.853 141.796 340.474 141.066 340.676C140.337 340.878 139.472 340.594 139.27 339.864L136.951 335.269C136.883 335.025 136.505 334.606 136.019 334.741L130.885 335.115C130.088 335.074 129.467 334.722 129.265 333.992C129.063 333.263 129.415 332.641 130.077 332.196Z" fill="#FACA15"/>
<path d="M363.218 210.602L365.626 206.99C365.776 206.84 365.927 206.389 365.626 206.088L363.218 202.476C362.917 201.875 362.917 201.273 363.369 200.821C363.82 200.37 364.572 200.219 365.024 200.671L368.635 203.078C368.786 203.229 369.237 203.379 369.538 203.078L373.149 200.671C373.751 200.37 374.353 200.37 374.804 200.821C375.256 201.273 375.406 202.025 374.955 202.476L372.547 206.088C372.397 206.238 372.246 206.69 372.547 206.99L374.955 210.602C375.256 211.204 375.256 211.805 374.804 212.257C374.353 212.708 373.6 212.859 373.149 212.407L369.538 210C369.387 209.849 368.936 209.699 368.635 210L365.024 212.407C364.422 212.708 363.82 212.708 363.369 212.257C362.917 211.805 362.767 211.053 363.218 210.602Z" fill="#E69A49"/>
<path d="M130.506 184.849L133.587 178.67C133.794 178.403 133.942 177.661 133.407 177.245L128.888 172.025C128.293 171.135 128.174 170.185 128.796 169.383C129.419 168.581 130.576 168.193 131.379 168.816L137.557 171.897C137.825 172.104 138.567 172.252 138.982 171.717L144.203 167.198C145.093 166.603 146.043 166.484 146.845 167.106C147.647 167.729 148.035 168.886 147.412 169.689L144.331 175.867C144.124 176.135 143.976 176.877 144.511 177.292L149.03 182.513C149.625 183.403 149.744 184.353 149.122 185.155C148.499 185.957 147.342 186.345 146.539 185.722L140.36 182.641C140.093 182.434 139.351 182.286 138.936 182.821L133.715 187.34C132.825 187.934 131.875 188.054 131.073 187.432C130.271 186.809 129.883 185.652 130.506 184.849Z" fill="#FACA15"/>
<path d="M191.87 367.353L196.187 365.174C196.415 365.111 196.809 364.756 196.682 364.299L196.331 359.477C196.37 358.728 196.7 358.145 197.385 357.955C198.071 357.765 198.883 358.032 199.072 358.718L201.251 363.034C201.314 363.262 201.669 363.656 202.126 363.529L206.948 363.178C207.697 363.217 208.28 363.547 208.47 364.233C208.66 364.918 208.393 365.73 207.707 365.92L203.391 368.099C203.163 368.162 202.769 368.517 202.896 368.974L203.247 373.796C203.208 374.544 202.878 375.128 202.192 375.317C201.507 375.507 200.695 375.24 200.505 374.555L198.327 370.239C198.263 370.01 197.908 369.616 197.451 369.743L192.629 370.094C191.881 370.055 191.297 369.725 191.108 369.04C190.918 368.354 191.185 367.542 191.87 367.353Z" fill="#FACA15"/>
<path d="M108.903 256.943L111.905 251.618C112.101 251.391 112.265 250.742 111.81 250.35L108.05 245.531C107.565 244.718 107.502 243.872 108.088 243.191C108.675 242.51 109.716 242.219 110.397 242.806L115.721 245.808C115.948 246.004 116.598 246.168 116.989 245.714L121.808 241.954C122.622 241.468 123.467 241.405 124.148 241.992C124.83 242.578 125.12 243.619 124.533 244.3L121.531 249.624C121.336 249.852 121.172 250.501 121.626 250.892L125.386 255.711C125.871 256.525 125.935 257.37 125.348 258.052C124.761 258.733 123.721 259.023 123.039 258.437L117.715 255.434C117.488 255.239 116.838 255.075 116.447 255.529L111.628 259.289C110.814 259.775 109.969 259.838 109.288 259.251C108.606 258.665 108.316 257.624 108.903 256.943Z" fill="#FACA15"/>
<path d="M184.211 90.8738L189.847 88.1522C190.386 88.0029 190.506 87.3888 190.432 87.1191L189.868 80.8866C189.913 80.0028 190.499 78.9696 191.308 78.7456C192.117 78.5216 193.075 78.837 193.644 79.8412L196.365 85.4763C196.515 86.0157 197.129 86.1361 197.399 86.0614L203.631 85.4975C204.515 85.5432 205.548 86.1284 205.772 86.9375C205.996 87.7467 205.681 88.7052 204.676 89.2736L199.041 91.9952C198.502 92.1445 198.382 92.7586 198.456 93.0284L199.02 99.2608C198.974 100.145 198.389 101.178 197.58 101.402C196.771 101.626 195.812 101.31 195.244 100.306L192.522 94.6711C192.373 94.1317 191.759 94.0113 191.489 94.086L185.257 94.6499C184.373 94.6042 183.34 94.019 183.116 93.2099C182.817 92.131 183.133 91.1725 184.211 90.8738Z" fill="#D6DCE8"/>
<path d="M315.862 151.607L318.693 150.24C318.964 150.165 319.024 149.857 318.987 149.721L318.704 146.591C318.727 146.147 319.02 145.628 319.427 145.515C319.833 145.403 320.315 145.561 320.6 146.066L321.967 148.896C322.042 149.167 322.351 149.228 322.486 149.19L325.617 148.907C326.061 148.93 326.58 149.224 326.692 149.63C326.805 150.037 326.646 150.518 326.142 150.804L323.311 152.171C323.041 152.246 322.98 152.554 323.018 152.69L323.301 155.82C323.278 156.264 322.984 156.783 322.578 156.896C322.171 157.008 321.69 156.85 321.404 156.345L320.037 153.515C319.962 153.244 319.654 153.183 319.518 153.221L316.388 153.504C315.944 153.481 315.425 153.187 315.312 152.781C315.2 152.374 315.494 151.855 315.862 151.607Z" fill="#D6DCE8"/>
<path d="M290.711 327.43L297.089 324.349C297.7 324.18 297.836 323.485 297.752 323.18L297.113 316.125C297.165 315.125 297.827 313.955 298.743 313.702C299.659 313.448 300.744 313.805 301.387 314.942L304.468 321.32C304.637 321.931 305.332 322.067 305.638 321.983L312.692 321.344C313.693 321.396 314.862 322.058 315.116 322.974C315.369 323.89 315.012 324.975 313.875 325.619L307.497 328.699C306.886 328.868 306.75 329.563 306.835 329.869L307.473 336.923C307.421 337.924 306.759 339.093 305.843 339.347C304.927 339.6 303.842 339.243 303.199 338.107L300.118 331.728C299.949 331.118 299.254 330.981 298.949 331.066L291.894 331.704C290.894 331.652 289.724 330.99 289.471 330.074C289.217 329.158 289.574 328.073 290.711 327.43Z" fill="#E69A49"/>
<path d="M320.601 262.135L325.185 259.921C325.624 259.8 325.722 259.3 325.661 259.081L325.203 254.011C325.24 253.292 325.716 252.451 326.374 252.269C327.032 252.087 327.812 252.343 328.274 253.16L330.488 257.744C330.61 258.183 331.11 258.281 331.329 258.22L336.399 257.762C337.118 257.799 337.958 258.275 338.141 258.933C338.323 259.591 338.066 260.371 337.249 260.833L332.665 263.048C332.226 263.169 332.129 263.669 332.189 263.888L332.648 268.958C332.611 269.677 332.135 270.517 331.477 270.7C330.818 270.882 330.039 270.625 329.576 269.808L327.362 265.224C327.241 264.786 326.741 264.688 326.522 264.748L321.452 265.207C320.733 265.17 319.892 264.694 319.71 264.036C319.528 263.377 320.004 262.537 320.601 262.135Z" fill="#FFC516"/>
<path d="M65.6162 194.978L72.4141 194.363C73.0024 194.2 73.4595 194.707 73.5409 195.001L76.5095 201.148C77.048 201.949 78.1749 202.587 79.0574 202.343C79.94 202.098 80.6596 201.265 80.628 200.007L80.013 193.21C79.8501 192.621 80.357 192.164 80.6512 192.083L86.7975 189.114C87.5986 188.576 88.2367 187.449 87.9924 186.566C87.7481 185.684 86.9154 184.964 85.6572 184.996L78.8594 185.611C78.271 185.774 77.814 185.267 77.7325 184.972L74.764 178.826C74.2255 178.025 73.0986 177.387 72.216 177.631C71.3335 177.875 70.6139 178.708 70.6454 179.966L71.2605 186.764C71.4234 187.353 70.9165 187.81 70.6223 187.891L64.476 190.86C63.6749 191.398 63.0367 192.525 63.281 193.408C63.6068 194.584 64.7337 195.222 65.6162 194.978Z" fill="#FACA15"/>
<path d="M29.275 330.268L38.8866 329.398C39.7185 329.168 40.3647 329.884 40.4799 330.3L44.6771 338.991C45.4385 340.123 47.0318 341.026 48.2797 340.68C49.5275 340.335 50.545 339.157 50.5004 337.378L49.6308 327.767C49.4005 326.935 50.1172 326.289 50.5331 326.174L59.2234 321.976C60.3561 321.215 61.2585 319.622 60.913 318.374C60.5675 317.126 59.3902 316.108 57.6112 316.153L47.9997 317.023C47.1678 317.253 46.5216 316.536 46.4064 316.12L42.2092 307.43C41.4478 306.297 39.8544 305.395 38.6066 305.741C37.3588 306.086 36.3412 307.263 36.3859 309.042L37.2555 318.654C37.4858 319.486 36.7691 320.132 36.3532 320.247L27.6629 324.444C26.5302 325.206 25.6278 326.799 25.9733 328.047C26.4339 329.711 28.0272 330.613 29.275 330.268Z" fill="#FFC516"/>
<path d="M45.2348 86.2884L54.0969 85.4865C54.8639 85.2742 55.4597 85.9351 55.5659 86.3186L59.4359 94.3312C60.1379 95.3756 61.607 96.2076 62.7576 95.8891C63.9081 95.5706 64.8463 94.485 64.8051 92.8447L64.0033 83.9827C63.791 83.2156 64.4518 82.6198 64.8353 82.5136L72.848 78.6437C73.8924 77.9416 74.7243 76.4726 74.4058 75.322C74.0873 74.1715 73.0017 73.2332 71.3615 73.2744L62.4994 74.0762C61.7324 74.2886 61.1365 73.6277 61.0304 73.2442L57.1604 65.2316C56.4583 64.1872 54.9893 63.3551 53.8387 63.6737C52.6882 63.9922 51.75 65.0778 51.7912 66.718L52.5929 75.5801C52.8053 76.3471 52.1445 76.943 51.761 77.0492L43.7483 80.9191C42.7039 81.6212 41.8719 83.0903 42.1905 84.2408C42.6152 85.7749 44.0842 86.6069 45.2348 86.2884Z" fill="#FFC516"/>
<path d="M396.31 252.259L408.389 256.564C409.521 256.75 409.902 257.974 409.809 258.54L410.031 271.362C410.319 273.153 411.738 275.129 413.436 275.408C415.134 275.686 417.018 274.832 417.955 272.661L422.26 260.582C422.445 259.45 423.67 259.069 424.236 259.162L437.058 258.94C438.849 258.652 440.825 257.233 441.103 255.535C441.381 253.837 440.528 251.954 438.357 251.016L426.277 246.711C425.145 246.526 424.765 245.301 424.858 244.735L424.635 231.913C424.348 230.123 422.928 228.146 421.23 227.868C419.533 227.59 417.649 228.443 416.712 230.614L412.407 242.694C412.221 243.826 410.997 244.206 410.431 244.113L397.609 244.336C395.818 244.623 393.842 246.043 393.563 247.741C393.192 250.005 394.612 251.981 396.31 252.259Z" fill="#FFC516"/>
<path d="M142.963 130.342C141.84 130.653 141.182 131.814 141.493 132.937C141.804 134.059 142.966 134.717 144.088 134.406C145.21 134.096 145.868 132.934 145.558 131.812C145.247 130.689 144.085 130.031 142.963 130.342Z" fill="#D6DCE8"/>
<path d="M215.538 183.311C214.416 183.621 213.758 184.783 214.068 185.906C214.379 187.028 215.541 187.686 216.663 187.375C217.785 187.064 218.443 185.903 218.133 184.78C217.822 183.658 216.66 183 215.538 183.311Z" fill="#D6DCE8"/>
<path d="M262.683 97.8557C262.088 98.857 262.418 100.151 263.419 100.745C264.421 101.34 265.714 101.01 266.309 100.008C266.903 99.0071 266.573 97.7134 265.572 97.1189C264.571 96.5244 263.277 96.8543 262.683 97.8557Z" fill="#FFC516"/>
<path d="M194.648 57.4338C194.053 58.4351 194.383 59.7288 195.385 60.3233C196.386 60.9178 197.68 60.5879 198.274 59.5866C198.869 58.5852 198.539 57.2915 197.537 56.697C196.536 56.1026 195.242 56.4324 194.648 57.4338Z" fill="#D6DCE8"/>
<path d="M73.2773 150.254C72.6828 151.255 73.0127 152.549 74.014 153.144C75.0154 153.738 76.3091 153.408 76.9036 152.407C77.4981 151.406 77.1682 150.112 76.1668 149.517C75.1655 148.923 73.8718 149.253 73.2773 150.254Z" fill="#FFC516"/>
<path d="M82.1137 233.184C81.5192 234.185 81.8491 235.479 82.8505 236.073C83.8518 236.668 85.1455 236.338 85.74 235.337C86.3345 234.335 86.0046 233.042 85.0033 232.447C84.0019 231.853 82.7082 232.182 82.1137 233.184Z" fill="#FFC516"/>
<path d="M105.115 316.067C104.52 317.068 104.85 318.362 105.851 318.956C106.853 319.551 108.147 319.221 108.741 318.219C109.335 317.218 109.006 315.924 108.004 315.33C107.003 314.735 105.709 315.065 105.115 316.067Z" fill="#FFC516"/>
<path d="M160.738 358.403C160.144 359.404 160.474 360.698 161.475 361.292C162.476 361.887 163.77 361.557 164.365 360.555C164.959 359.554 164.629 358.26 163.628 357.666C162.626 357.071 161.333 357.401 160.738 358.403Z" fill="#FFC516"/>
<path d="M262.493 359.09C261.899 360.091 262.228 361.385 263.23 361.98C264.231 362.574 265.525 362.244 266.119 361.243C266.714 360.241 266.384 358.948 265.383 358.353C264.381 357.759 263.088 358.089 262.493 359.09Z" fill="#FFC516"/>
<path d="M333.291 295.91C332.696 296.912 333.026 298.205 334.028 298.8C335.029 299.394 336.323 299.065 336.917 298.063C337.512 297.062 337.182 295.768 336.181 295.174C335.179 294.579 333.885 294.909 333.291 295.91Z" fill="#FFC516"/>
<path d="M371.025 227.418C370.431 228.42 370.761 229.713 371.762 230.308C372.763 230.902 374.057 230.572 374.652 229.571C375.246 228.57 374.916 227.276 373.915 226.681C372.914 226.087 371.62 226.417 371.025 227.418Z" fill="#FFC516"/>
<path d="M328.418 122.207C327.824 123.209 328.154 124.502 329.155 125.097C330.157 125.691 331.45 125.361 332.045 124.36C332.639 123.359 332.309 122.065 331.308 121.47C330.307 120.876 329.013 121.206 328.418 122.207Z" fill="#FFC516"/>
<path d="M298.022 213.552L316.427 199.555L309.88 190.864L291.474 204.862L298.022 213.552Z" fill="#989FB0"/>
<path d="M418.883 158.763L376.962 103.086L291.607 168.039L333.528 223.716L418.883 158.763Z" fill="white" stroke="#989FB0" stroke-width="2" stroke-miterlimit="10"/>
<path d="M355.714 207.786L312.659 150.906" stroke="#989FB0" stroke-width="2" stroke-miterlimit="10"/>
<path d="M376.769 191.833L333.714 134.953" stroke="#989FB0" stroke-width="2" stroke-miterlimit="10"/>
<path d="M397.824 175.911L354.77 119.031" stroke="#989FB0" stroke-width="2" stroke-miterlimit="10"/>
<path d="M390.199 122.062L305.979 185.812" stroke="#989FB0" stroke-width="2" stroke-miterlimit="10"/>
<path d="M404.574 141.054L320.354 204.805" stroke="#989FB0" stroke-width="2" stroke-miterlimit="10"/>
<path d="M318.821 285.925C312.138 290.983 302.64 289.659 297.57 282.961L289.168 271.861C288.751 271.31 288.862 270.505 289.411 270.089L311.656 253.251C312.205 252.835 313.01 252.947 313.427 253.498L321.83 264.599C326.807 271.365 325.412 280.935 318.821 285.925Z" fill="#D5DDEA"/>
<path d="M266.216 171.9L223.282 204.398L282.309 282.379L282.378 282.471C282.378 282.471 282.378 282.471 282.448 282.562C284.9 285.612 296.388 280.813 308.197 271.875C320.006 262.936 327.652 253.252 325.474 249.994C325.474 249.994 325.474 249.994 325.404 249.903L325.335 249.811L266.308 171.83L266.216 171.9Z" fill="white"/>
<path d="M287.395 199.885L303.784 221.536L303.853 221.628L303.923 221.72C306.192 224.908 298.455 234.661 286.646 243.6C274.837 252.539 263.441 257.268 260.897 254.288L260.828 254.196L260.758 254.104L244.37 232.453C246.822 235.503 258.309 230.704 270.119 221.765C281.928 212.826 289.595 202.982 287.395 199.885Z" fill="#989FB0"/>
<path d="M267.774 135.858C278.911 150.64 270.199 176.149 248.28 192.818C226.361 209.487 199.467 211.057 188.33 196.275C188.263 196.185 188.195 196.096 188.128 196.006C188.06 195.917 187.925 195.737 187.858 195.648C184.295 189.761 198.628 172.097 220.176 155.709C241.725 139.321 262.605 130.348 267.21 135.301C267.277 135.391 267.412 135.57 267.48 135.659C267.572 135.589 267.64 135.679 267.774 135.858Z" fill="#D5DDEA"/>
<path d="M267.093 135.358L267.16 135.447C268.413 137.299 267.731 140.621 265.398 144.637C260.707 152.826 249.566 164.374 235.103 175.36C220.64 186.346 206.448 194.042 197.412 196.279C192.928 197.442 189.557 197.198 188.12 195.486L188.053 195.397C187.986 195.308 187.918 195.218 187.851 195.129C184.303 189.272 198.579 171.699 220.043 155.395C241.507 139.09 262.305 130.162 266.891 135.09C266.959 135.179 267.026 135.269 267.093 135.358Z" fill="#D5DDEA"/>
<path d="M265.371 144.672L265.438 144.761C260.753 152.937 249.624 164.466 235.177 175.434C220.731 186.403 206.555 194.086 197.53 196.319L197.463 196.23C197.396 196.141 197.329 196.052 197.329 196.052C194.297 191.076 206.567 175.881 224.97 161.909C243.465 147.867 261.284 140.216 265.236 144.494C265.236 144.494 265.303 144.583 265.371 144.672Z" fill="#989FB0"/>
<path d="M232.049 162.521C232.367 163.138 230.83 165.022 228.574 166.737C226.224 168.523 224.001 169.497 223.521 168.86L208.157 144.752L212.574 141.394L231.912 162.339L232.049 162.521Z" fill="#989FB0"/>
<path d="M212.21 145.098C215.088 142.908 215.719 138.871 213.618 136.08C211.517 133.29 207.481 132.804 204.603 134.995C201.724 137.185 201.094 141.223 203.195 144.013C205.295 146.803 209.332 147.289 212.21 145.098Z" fill="#989FB0"/>
<path d="M169.845 347.599L127.924 291.922L213.278 226.969L255.199 282.646L169.845 347.599Z" fill="white" stroke="#989FB0" stroke-width="2" stroke-miterlimit="10"/>
<path d="M234.144 299.794L191.089 242.914" stroke="#989FB0" stroke-width="2" stroke-miterlimit="10"/>
<path d="M213.088 315.716L170.034 258.836" stroke="#989FB0" stroke-width="2" stroke-miterlimit="10"/>
<path d="M192.034 331.669L148.979 274.789" stroke="#989FB0" stroke-width="2" stroke-miterlimit="10"/>
<path d="M142.299 309.695L226.52 245.945" stroke="#989FB0" stroke-width="2" stroke-miterlimit="10"/>
<path d="M156.674 328.711L240.895 264.961" stroke="#989FB0" stroke-width="2" stroke-miterlimit="10"/>
<path d="M248.745 237.221L230.339 251.219L236.886 259.91L255.292 245.912L248.745 237.221Z" fill="#989FB0"/>
<path d="M117.343 83.3245C116.625 88.1117 113.513 97.4469 108.008 98.8831C107.769 98.8831 107.529 98.8831 107.29 99.1224C102.024 99.8405 96.0399 96.2501 92.2101 93.6171C90.2952 92.1809 88.3803 90.5054 86.7048 88.8298C85.9867 88.1117 85.0292 87.1543 84.3111 86.4362C78.8058 80.4521 74.4973 73.0319 71.8643 65.1329C71.3856 63.4574 70.9068 61.7818 71.1462 60.1063C71.1462 59.6276 71.3856 59.3882 71.3856 59.1488C71.8643 57.952 72.8217 56.7552 74.2579 56.5159C75.4547 56.2765 76.4122 56.7552 77.609 56.9946C78.8058 57.4733 79.7632 57.952 80.9601 58.6701C78.3271 55.5584 77.609 50.2924 77.609 46.4626C77.609 46.2233 77.609 45.7445 77.8483 45.7445C78.0877 45.5052 78.8058 45.7445 79.0452 45.9839C82.875 48.8562 82.875 54.1222 84.5505 58.4308C84.5505 55.319 84.7899 52.2073 84.7899 49.0956C84.7899 46.9413 85.0292 44.3084 86.7048 42.8722C86.9441 42.6328 87.1835 42.6328 87.4229 42.6328C87.9016 42.6328 88.1409 43.1115 88.3803 43.3509C91.2527 48.3775 89.5771 54.6009 90.0558 60.3457C90.2952 62.4999 90.5346 64.6542 91.0133 66.8085C91.2527 67.7659 91.7314 69.9202 92.2101 72.0744C92.6888 73.0319 93.1676 73.9893 93.8857 74.9468C94.125 75.4255 94.6037 75.9042 95.0825 76.1436C95.8006 76.8617 96.758 77.5798 97.7155 78.2979C99.6304 79.2553 101.545 79.9734 103.7 80.4521C107.529 81.1702 111.359 81.1702 115.189 81.4096C115.907 81.4096 116.625 81.6489 117.104 82.1277C117.343 82.6064 117.343 82.8458 117.343 83.3245Z" fill="#E1ECFF"/>
<path d="M167.609 162.56C162.582 162.56 157.316 160.884 153.486 158.491C146.066 153.704 141.518 146.523 137.209 140.06L145.587 134.554C149.417 140.299 153.247 146.523 158.752 149.874C163.061 152.746 170.002 153.704 173.832 150.352C178.619 146.044 177.422 137.906 175.508 131.921C173.114 124.501 168.566 118.038 163.061 113.969L169.045 106.07C176.465 111.576 182.21 119.714 185.082 129.049C189.151 141.735 187.715 151.789 180.534 158.012C176.944 161.124 172.156 162.56 167.609 162.56Z" fill="#1E305B"/>
<path d="M177.902 83.0772C178.142 86.6677 176.945 90.2581 175.509 93.8485C170.003 108.21 164.259 122.572 157.556 136.455C156.12 139.088 154.923 141.96 153.487 144.593C151.572 148.423 149.179 152.732 144.87 153.689C141.28 154.407 137.929 152.732 134.817 151.056C133.86 150.578 132.902 149.859 132.423 148.902C131.945 147.945 132.184 146.748 132.423 145.79C135.296 131.428 140.801 118.024 146.306 104.381C148.939 97.6783 151.812 90.7368 153.966 83.7953C155.642 79.0081 156.838 72.7846 163.062 72.3059C168.806 72.0665 177.424 76.6144 177.902 83.0772Z" fill="#1E305B"/>
<path d="M111.119 125.926C111.119 126.404 111.119 126.644 111.119 127.122C110.88 130.234 110.162 133.106 108.486 135.739C106.571 138.612 103.699 141.005 100.348 141.724C99.6298 141.963 98.9117 141.963 98.1937 141.963C95.0819 142.202 91.9702 141.245 89.0979 140.048C85.5074 138.612 81.917 136.936 77.8478 136.697C75.6936 136.458 73.5393 136.697 71.385 137.176C70.1882 137.415 69.2308 137.894 68.034 138.133C66.8371 138.612 65.6403 139.091 64.4435 139.569C60.3743 141.484 56.3052 144.117 52.236 145.793C48.8849 147.229 44.8158 147.947 41.9434 145.793C40.5072 144.835 39.7891 143.16 39.0711 141.724C35.0019 134.064 31.4115 126.404 27.821 118.505C27.5816 118.266 27.3423 117.787 27.3423 117.309C27.3423 116.112 28.7785 115.154 29.7359 114.676C29.9753 114.436 30.2146 114.436 30.454 114.197C33.087 113 35.4806 112.043 38.353 111.564C41.4647 111.324 44.8158 111.803 46.97 113.957C48.4062 115.394 49.3637 117.069 50.3211 118.984C51.2786 121.138 52.4754 123.293 53.4328 125.447C56.3052 123.053 59.1775 120.66 62.2892 118.505C63.2467 117.787 64.2041 117.309 65.1616 116.83C66.8371 115.872 68.752 114.915 70.6669 114.436C73.7787 113.239 77.1297 112.761 80.4808 112.521C82.1564 112.282 83.8319 112.043 85.5074 112.282C87.4223 112.282 89.3372 112.761 91.0128 113C95.5607 113.957 100.348 114.915 104.896 115.872L99.8692 115.394C103.938 116.351 108.726 117.787 110.401 121.617C111.119 122.814 111.119 124.489 111.119 125.926Z" fill="#E1ECFF"/>
<path d="M93.4051 114.446C91.7295 120.908 93.1657 127.85 97.2349 133.355C97.4742 133.595 97.7136 134.073 98.1923 133.834C98.4317 133.834 98.4317 133.595 98.671 133.355C99.3891 131.68 99.6285 129.765 99.8678 128.089C100.347 124.02 101.783 117.557 100.347 113.488C98.671 109.658 94.1231 111.334 93.4051 114.446Z" fill="#AAB2C5"/>
<path d="M123.087 68.4887C121.172 71.1217 118.778 73.276 116.624 75.6696C103.938 89.3133 97.9538 108.223 94.3634 126.654C93.4059 131.441 92.9272 136.707 95.7995 140.298C97.2357 141.973 99.1506 143.17 101.066 144.127C104.177 145.803 107.05 147.478 110.161 149.154C113.752 151.069 117.582 153.223 121.651 153.462C126.438 153.702 131.225 151.308 134.816 147.957C138.406 144.606 140.8 140.298 143.193 135.989C149.177 124.978 154.683 113.728 159.47 102.239C160.906 98.8878 162.342 95.2973 162.821 91.7069C163.539 86.4409 162.342 81.1749 161.385 76.1483C161.146 74.9515 160.906 73.5153 159.949 72.5579C158.752 71.3611 156.837 71.3611 155.401 71.6004C144.869 72.0791 134.098 73.0366 124.044 70.643C121.89 70.1642 119.496 69.4462 118.3 67.5312" fill="#E1ECFF"/>
<path d="M71.3848 137.408C70.188 137.648 69.2306 138.126 68.0338 138.366C67.7944 135.015 67.3157 131.185 66.3582 127.594C65.4008 124.483 64.204 121.61 62.2891 118.738C63.2465 118.02 64.204 117.541 65.1614 117.062C67.0763 120.174 68.5125 123.286 69.4699 126.637C70.4274 130.227 71.1455 134.057 71.3848 137.408Z" fill="#B2C3DF"/>
<path d="M103.936 132.622C102.979 135.016 103.458 131.904 103.218 134.776C103.218 137.409 103.936 140.042 105.373 142.436C108.245 146.505 113.271 148.899 118.059 150.574C122.367 152.011 126.915 152.729 131.224 150.574C136.49 147.941 140.559 141.718 140.08 135.734C139.601 127.835 130.266 123.766 123.325 123.048C114.708 122.09 110.399 125.202 103.697 130.229V132.622H103.936Z" fill="#B2C3DF"/>
<path d="M170.72 56.7526C170.72 56.992 170.48 57.4707 170.48 57.7101C169.284 62.9761 167.847 68.0027 167.369 73.508C167.129 75.9017 167.608 80.2102 165.214 81.8857C163.3 83.0825 159.948 82.3645 157.794 82.3645C151.092 81.8857 144.629 80.6889 137.688 80.6889C137.209 80.6889 136.73 80.6889 136.012 80.6889C133.619 80.4495 131.464 79.4921 129.549 78.2953C126.916 77.0985 124.523 75.6623 121.89 74.7048C119.735 73.9868 117.342 73.508 116.145 71.5931C114.709 69.6782 114.709 67.2846 114.47 65.1303C113.751 57.9494 113.991 50.2898 115.906 43.3483C117.102 39.0398 119.496 34.7313 123.087 31.6195C130.986 24.4387 143.672 23.0025 153.486 27.7897C160.667 31.3802 166.89 37.6036 169.762 45.2632C170.959 48.6143 171.438 52.6835 170.72 56.7526Z" fill="#E1ECFF"/>
<path d="M170.719 56.755C170.719 56.9944 170.479 57.4731 170.479 57.7125C169.283 62.9785 167.846 68.0051 167.368 73.5104C167.128 75.9041 167.607 80.2126 165.213 81.8881C163.299 83.0849 159.948 82.3669 157.793 82.3669C151.091 81.8881 144.628 80.6913 137.687 80.6913C137.208 80.6913 136.729 80.6913 136.011 80.6913C138.884 79.4945 141.995 79.4945 145.107 79.0158C154.921 77.3402 163.538 70.3987 167.368 61.3029C168.565 58.4306 169.283 55.3189 169.522 52.2071C169.761 49.8135 169.761 47.4199 169.283 45.2656C170.958 48.6167 171.437 52.6859 170.719 56.755Z" fill="#E1ECFF" stroke="#B2C3DF" stroke-width="2" stroke-miterlimit="10" stroke-linecap="round" stroke-linejoin="round"/>
<path d="M149.177 76.623C146.544 79.0166 143.432 80.6921 140.081 80.6921C134.336 80.6921 128.352 79.4953 123.086 76.8623C121.411 75.9049 119.975 74.9474 118.539 73.99C117.82 73.2719 116.863 72.5538 116.384 71.8357C114.709 69.9208 113.751 67.7665 113.273 65.1335C111.836 59.6282 112.794 52.926 114.709 47.6601C116.863 42.1547 120.214 40.0004 125.959 39.7611C131.703 39.2824 138.406 41.1973 143.911 43.8302C144.15 44.0696 144.39 44.0696 144.629 44.309C147.023 45.5058 149.177 46.942 150.852 48.6175C158.991 56.0377 156.837 69.4421 149.177 76.623Z" fill="#1C3177"/>
<path d="M136.491 139.809C136.491 140.048 136.491 140.048 136.491 140.287C136.491 141.484 136.252 142.442 135.773 143.399C134.098 147.947 129.31 150.819 124.523 152.256C119.736 153.692 114.709 153.931 110.161 155.367C106.332 156.564 102.502 158.24 99.6294 160.873C98.9113 161.591 98.1932 162.07 97.7145 162.788C97.7145 163.027 97.4751 163.027 97.4751 163.266C92.2092 169.729 90.773 179.064 84.5495 184.809C84.0708 185.288 83.5921 185.527 83.1134 185.766C82.6346 185.766 82.1559 185.527 81.6772 185.527C72.8208 181.697 64.6824 176.91 56.5441 171.883C55.3473 171.165 53.9111 170.208 53.193 169.011C52.7143 168.054 52.7143 167.096 53.193 166.139C54.3898 162.548 59.6558 158.24 62.0495 157.282C64.6824 156.325 67.7942 156.564 70.4271 157.522C73.0601 158.479 75.6931 160.155 77.8474 161.83C78.3261 158.479 79.2836 154.889 80.7197 151.777C81.1985 150.819 81.6772 149.862 82.1559 148.905C82.6346 147.947 83.3527 147.229 83.8315 146.272C85.2676 144.117 87.1825 142.202 89.0974 140.527C91.7304 138.133 94.6028 135.979 97.4751 134.064C101.784 131.192 106.332 128.559 111.119 127.362C111.837 127.123 112.555 127.123 113.273 126.883C118.06 125.926 123.326 126.644 127.874 128.559C130.507 129.516 132.901 131.192 134.576 133.346C135.773 135.022 136.491 137.415 136.491 139.809Z" fill="#E1ECFF"/>
<path d="M99.39 160.882C98.6719 161.6 97.9538 162.079 97.4751 162.797C97.4751 163.036 97.2358 163.036 97.2358 163.276C94.3634 159.685 91.0123 156.813 87.1825 154.659C85.507 153.701 83.5921 152.983 81.6772 152.265C81.4378 152.026 80.9591 152.026 80.7197 151.786C81.1985 150.829 81.6772 149.872 82.1559 148.914C82.3953 148.914 82.6346 149.153 82.874 149.153C84.7889 149.872 86.9432 150.59 88.8581 151.786C92.6879 153.941 96.5177 157.052 99.39 160.882Z" fill="#B2C3DF"/>
<path d="M208.539 98.3904C208.539 98.6297 208.539 99.1085 208.3 99.3478C207.582 101.981 204.949 103.417 202.316 103.896C201.598 104.135 200.64 104.135 199.922 104.135C198.007 104.374 196.332 104.374 194.417 104.853C192.502 105.332 190.587 106.529 188.672 107.486C186.757 108.444 184.603 109.162 182.688 109.64C181.491 109.88 180.294 110.119 179.097 110.359C173.831 111.077 168.566 110.598 163.539 108.922C160.427 107.965 158.034 105.332 156.597 101.981C154.443 96.7148 154.922 90.0127 159.948 86.901C166.411 82.8318 170.48 88.5765 175.746 90.9701C176.704 91.4489 177.661 91.6882 178.619 91.9276C179.816 92.1669 181.012 92.1669 182.209 92.1669C184.842 91.9276 187.475 91.2095 189.869 90.0127C194.177 87.8584 198.007 84.5073 201.837 81.3956C202.555 80.9169 203.273 80.1988 204.231 80.4382C205.188 80.6775 205.667 81.8743 205.667 83.0712V83.3105C205.427 84.268 204.949 85.2254 204.709 86.1829C204.231 90.4914 209.018 94.3212 208.539 98.3904Z" fill="#E1ECFF"/>
<path d="M206.625 108.699L188.912 21.5712C188.672 20.6138 189.39 19.8957 190.109 19.6563C191.066 19.417 191.784 20.1351 192.023 20.8531L209.736 107.981C209.976 108.939 209.258 109.657 208.539 109.896C207.821 110.135 206.864 109.417 206.625 108.699Z" fill="white" stroke="#AAB2C5" stroke-width="2" stroke-miterlimit="10" stroke-linecap="round" stroke-linejoin="round"/>
<path d="M212.129 96.9565C211.89 96.2384 211.172 95.7596 210.454 95.7596L211.172 95.5203C212.369 95.0415 212.847 93.6054 212.369 92.4086C211.89 91.4511 210.693 90.9724 209.736 91.2117L210.214 90.9724C211.411 90.4937 211.89 89.0575 211.411 87.8607C211.172 87.1426 210.693 86.9032 209.975 86.6639C210.933 85.9458 211.411 84.749 210.933 83.5521C210.454 82.3553 209.018 81.8766 207.821 82.3553L199.683 86.1851C198.486 86.6639 198.007 88.1 198.486 89.2968C198.725 90.0149 199.204 90.2543 199.922 90.4937C198.964 91.2117 198.486 92.4086 198.964 93.6054C199.443 94.5628 200.64 95.0415 201.597 94.8022L200.879 95.0416C199.683 95.5203 199.204 96.9565 199.683 98.1533C199.922 98.8714 200.64 99.3501 201.358 99.3501C200.401 100.068 200.161 101.265 200.64 102.222C201.119 103.419 202.555 103.898 203.752 103.419L210.933 100.068C212.129 99.5894 212.608 98.3926 212.129 96.9565Z" fill="#D1D9E7"/>
<path opacity="0.4" d="M140.321 53.4008C139.364 54.837 137.449 55.3157 136.013 54.5977C135.534 54.3583 134.816 54.1189 134.337 53.8796C127.635 51.2466 120.454 52.9221 118.539 57.9487C118.061 59.1455 116.385 58.9062 116.385 57.7094C116.146 56.0338 116.385 54.1189 117.103 52.4434C119.497 45.9806 127.396 43.1082 134.816 45.9806C136.731 46.6987 138.407 47.8955 139.843 49.0923C141.04 50.2891 141.04 51.9647 140.321 53.4008Z" fill="white"/>
<path opacity="0.4" d="M117.343 90.0237C122.13 92.4174 131.944 95.5291 137.928 96.0078C139.125 96.2472 139.604 97.2046 139.364 98.4014C135.295 107.976 131.944 117.55 130.747 121.141C130.508 122.098 129.55 122.577 128.832 122.338C124.524 121.141 112.556 117.79 107.768 115.875C106.811 115.636 106.572 114.678 106.811 113.721C110.88 103.667 113.752 94.811 114.949 90.9812C115.428 90.0237 116.625 89.545 117.343 90.0237Z" fill="#AAB2C5"/>
<path d="M182.929 109.427C181.732 109.666 180.535 109.905 179.338 110.145C177.423 107.272 176.227 103.443 176.466 99.6127C176.705 97.4585 177.423 94.3468 178.86 91.9531C180.056 92.1925 181.253 92.1925 182.45 92.1925C181.014 94.3468 179.817 97.4585 179.578 99.8521C179.338 103.443 180.774 107.272 182.929 109.427Z" fill="#B2C3DF"/>
<path d="M97.9553 78.2977C93.6468 81.1701 89.817 84.7605 86.4659 88.8297C85.7478 88.1116 84.7904 87.1541 84.0723 86.436C87.184 82.6062 91.0138 79.2552 95.0829 76.3828L97.9553 78.2977Z" fill="#B2C3DF"/>
<g filter="url(#filter0_d_2404_242763)">
<path d="M253.541 52.9254C231.041 45.5052 221.706 73.75 198.727 61.7818L190.588 22.0476C215.482 32.5796 225.057 8.6433 245.402 13.1912L253.541 52.9254Z" fill="url(#paint1_linear_2404_242763)"/>
</g>
<path d="M227.563 43.0132L227.1 41.0393L230.219 32.0808L231.921 31.6814L232.562 34.4136L231.555 34.65L229.594 40.3197L229.615 40.4123L236.648 38.7619L237.12 40.7706L227.563 43.0132ZM233.742 43.7618L233.112 41.0759L232.953 40.191L231.006 31.896L233.357 31.3445L236.139 43.1994L233.742 43.7618Z" fill="#D6D6E1"/>
<path d="M221.718 46.8572C220.722 47.087 219.807 47.043 218.975 46.7252C218.147 46.4065 217.432 45.8312 216.83 44.9995C216.231 44.1668 215.782 43.1017 215.482 41.8042C215.178 40.5114 215.111 39.3649 215.279 38.3645C215.451 37.3632 215.839 36.5415 216.441 35.8993C217.047 35.2523 217.845 34.8125 218.837 34.5797C219.829 34.347 220.738 34.3861 221.564 34.6971C222.394 35.0072 223.109 35.5723 223.708 36.3925C224.307 37.2088 224.756 38.2638 225.056 39.5575C225.361 40.858 225.429 42.0146 225.259 43.0275C225.094 44.0395 224.711 44.8723 224.111 45.5261C223.511 46.1799 222.714 46.6236 221.718 46.8572ZM221.23 44.7791C221.91 44.6197 222.372 44.151 222.617 43.3729C222.861 42.5947 222.822 41.5231 222.497 40.1579C222.286 39.2587 222.018 38.5318 221.692 37.9771C221.371 37.4215 221.007 37.0326 220.6 36.8104C220.198 36.5873 219.771 36.5287 219.319 36.6347C218.644 36.7931 218.183 37.2576 217.936 38.028C217.689 38.7984 217.722 39.8575 218.034 41.2052C218.248 42.1159 218.517 42.8548 218.842 43.422C219.169 43.9844 219.536 44.3786 219.944 44.6047C220.35 44.8269 220.779 44.8851 221.23 44.7791Z" fill="#D6D6E1"/>
<path d="M205.293 48.2398L204.83 46.2659L207.949 37.3073L209.651 36.908L210.292 39.6402L209.285 39.8765L207.324 45.5463L207.345 45.6389L214.378 43.9885L214.85 45.9971L205.293 48.2398ZM211.472 48.9884L210.842 46.3025L210.683 45.4176L208.736 37.1226L211.087 36.5711L213.869 48.426L211.472 48.9884Z" fill="#D6D6E1"/>
<defs>
<filter id="filter0_d_2404_242763" x="168.588" y="1.60938" width="106.953" height="96.1719" filterUnits="userSpaceOnUse" color-interpolation-filters="sRGB">
<feFlood flood-opacity="0" result="BackgroundImageFix"/>
<feColorMatrix in="SourceAlpha" type="matrix" values="0 0 0 0 0 0 0 0 0 0 0 0 0 0 0 0 0 0 127 0" result="hardAlpha"/>
<feOffset dy="11"/>
<feGaussianBlur stdDeviation="11"/>
<feColorMatrix type="matrix" values="0 0 0 0 0.397708 0 0 0 0 0.47749 0 0 0 0 0.575 0 0 0 0.27 0"/>
<feBlend mode="normal" in2="BackgroundImageFix" result="effect1_dropShadow_2404_242763"/>
<feBlend mode="normal" in="SourceGraphic" in2="effect1_dropShadow_2404_242763" result="shape"/>
</filter>
<linearGradient id="paint0_linear_2404_242763" x1="98" y1="86.5" x2="308.5" y2="369.5" gradientUnits="userSpaceOnUse">
<stop offset="0.005" stop-color="#708CD7"/>
<stop offset="0.155" stop-color="#445581"/>
<stop offset="0.48" stop-color="#122966"/>
<stop offset="0.865" stop-color="#09173F"/>
</linearGradient>
<linearGradient id="paint1_linear_2404_242763" x1="222.044" y1="11.4027" x2="222.044" y2="65.3409" gradientUnits="userSpaceOnUse">
<stop stop-color="#FA6A45"/>
<stop offset="0.9964" stop-color="#78270E"/>
</linearGradient>
</defs>
</svg>
