<svg width="118" height="28" viewBox="0 0 118 28" fill="none" xmlns="http://www.w3.org/2000/svg">
<path fill-rule="evenodd" clip-rule="evenodd" d="M11.375 4.46026V10.1078C11.3748 11.0028 11.0323 11.8611 10.4228 12.4939L7.84768 15.168C9.75117 15.0287 11.6558 15.4222 13.3629 16.3076C15.2784 17.3026 17.4727 17.5563 19.552 17.0231L19.8608 16.9433L15.5773 12.4939C14.9677 11.8611 14.6252 11.0028 14.625 10.1078V4.46026C13.5428 4.38872 12.4573 4.38872 11.375 4.46026ZM16.25 4.61551C16.458 4.61747 16.6589 4.5365 16.8111 4.38927C16.9633 4.24205 17.0554 4.03979 17.0683 3.82418C17.0812 3.60856 17.014 3.39602 16.8805 3.23034C16.747 3.06465 16.5574 2.95846 16.3508 2.93363C15.2392 2.78965 14.1202 2.71788 13 2.71876C11.8799 2.7185 10.7608 2.79026 9.64927 2.93363C9.44261 2.95846 9.253 3.06465 9.11951 3.23034C8.98601 3.39602 8.91879 3.60856 8.93171 3.82418C8.94462 4.03979 9.03669 4.24205 9.18893 4.38927C9.34117 4.5365 9.54199 4.61747 9.75002 4.61551V10.1078C9.74964 10.5552 9.57818 10.9841 9.27335 11.3003L2.45593 18.381C0.700932 20.2046 1.47768 23.4154 4.04952 23.871C6.95935 24.3885 9.95043 24.6563 13 24.6563C16.0507 24.6563 19.0407 24.3874 21.9505 23.8721C24.5213 23.4154 25.3002 20.2046 23.543 18.381L16.7267 11.3014C16.5756 11.1447 16.4558 10.9586 16.374 10.7538C16.2922 10.549 16.2501 10.3295 16.25 10.1078V4.61551Z" fill="#111928"/>
<circle cx="5" cy="21" r="1" fill="white"/>
<circle cx="12" cy="19" r="1" fill="white"/>
<circle cx="17" cy="22" r="1" fill="white"/>
<circle cx="13.5" cy="22.5" r="0.5" fill="white"/>
<circle cx="8.5" cy="20.5" r="0.5" fill="white"/>
<circle cx="19.5" cy="20.5" r="0.5" fill="white"/>
<path d="M50.2003 4.60969V9.48969C50.2003 9.82035 50.275 10.0604 50.4243 10.2097C50.5843 10.3484 50.851 10.4177 51.2243 10.4177H52.3443V11.9377H50.9043C50.083 11.9377 49.4536 11.7457 49.0163 11.3617C48.579 10.9777 48.3603 10.3537 48.3603 9.48969V4.60969H47.3203V3.12169H48.3603V0.929688H50.2003V3.12169H52.3443V4.60969H50.2003Z" fill="#111928"/>
<path d="M43.7556 4.40056C44.0223 3.95256 44.3743 3.6059 44.8116 3.36056C45.2596 3.10456 45.7876 2.97656 46.3956 2.97656V4.86456H45.9316C45.217 4.86456 44.673 5.0459 44.2996 5.40856C43.937 5.77123 43.7556 6.40056 43.7556 7.29656V11.9366H41.9316V3.12056H43.7556V4.40056Z" fill="#111928"/>
<path d="M32.16 3.152C32.224 2.16 32.6027 1.38667 33.296 0.832001C34 0.277334 34.896 0 35.984 0C36.7307 0 37.376 0.133334 37.92 0.400001C38.464 0.666667 38.8747 1.02933 39.152 1.488C39.4293 1.94667 39.568 2.464 39.568 3.04C39.568 3.70133 39.392 4.26667 39.04 4.736C38.688 5.20533 38.2667 5.52 37.776 5.68V5.744C38.4053 5.936 38.896 6.288 39.248 6.8C39.6 7.30133 39.776 7.94667 39.776 8.736C39.776 9.36533 39.632 9.92533 39.344 10.416C39.056 10.9067 38.6293 11.296 38.064 11.584C37.4987 11.8613 36.8213 12 36.032 12C34.88 12 33.9307 11.7067 33.184 11.12C32.448 10.5227 32.0533 9.66933 32 8.56H33.76C33.8027 9.12533 34.0213 9.58933 34.416 9.952C34.8107 10.304 35.344 10.48 36.016 10.48C36.6667 10.48 37.168 10.304 37.52 9.952C37.872 9.58933 38.048 9.12533 38.048 8.56C38.048 7.81333 37.808 7.28533 37.328 6.976C36.8587 6.656 36.1333 6.496 35.152 6.496H34.736V4.992H35.168C36.032 4.98133 36.688 4.83733 37.136 4.56C37.5947 4.28267 37.824 3.84533 37.824 3.248C37.824 2.736 37.6587 2.33067 37.328 2.032C36.9973 1.72267 36.528 1.568 35.92 1.568C35.3227 1.568 34.8587 1.72267 34.528 2.032C34.1973 2.33067 34 2.704 33.936 3.152H32.16Z" fill="#111928"/>
<path d="M111.397 0.445312L107.717 7.53331V11.5653H105.893V7.53331L102.197 0.445312H104.229L106.805 5.90131L109.381 0.445312H111.397Z" fill="#111928"/>
<path d="M101.31 0.445312V1.93331H98.3498V11.5653H96.5258V1.93331H93.5498V0.445312H101.31Z" fill="#111928"/>
<path d="M89.7926 11.5653L87.2326 7.11731H85.8406V11.5653H84.0166V0.445312H87.8566C88.7099 0.445312 89.4299 0.594646 90.0166 0.893312C90.6139 1.19198 91.0566 1.59198 91.3446 2.09331C91.6433 2.59465 91.7926 3.15465 91.7926 3.77331C91.7926 4.49865 91.5793 5.15998 91.1526 5.75731C90.7366 6.34398 90.0913 6.74398 89.2166 6.95731L91.9686 11.5653H89.7926ZM85.8406 5.66131H87.8566C88.5393 5.66131 89.0513 5.49065 89.3926 5.14931C89.7446 4.80798 89.9206 4.34931 89.9206 3.77331C89.9206 3.19731 89.7499 2.74931 89.4086 2.42931C89.0673 2.09865 88.5499 1.93331 87.8566 1.93331H85.8406V5.66131Z" fill="#111928"/>
<path d="M79.5641 9.29369H74.9081L74.1081 11.5657H72.2041L76.1881 0.429688H78.3001L82.2841 11.5657H80.3641L79.5641 9.29369ZM79.0521 7.80569L77.2441 2.63769L75.4201 7.80569H79.0521Z" fill="#111928"/>
<path d="M71.1207 3.75731C71.1207 4.32265 70.9874 4.85598 70.7207 5.35731C70.4541 5.85865 70.0274 6.26931 69.4407 6.58931C68.8541 6.89865 68.1021 7.05331 67.1847 7.05331H65.1687V11.5653H63.3447V0.445312H67.1847C68.0381 0.445312 68.7581 0.594646 69.3447 0.893312C69.9421 1.18131 70.3847 1.57598 70.6727 2.07731C70.9714 2.57865 71.1207 3.13865 71.1207 3.75731ZM67.1847 5.56531C67.8781 5.56531 68.3954 5.41065 68.7367 5.10131C69.0781 4.78131 69.2487 4.33331 69.2487 3.75731C69.2487 2.54131 68.5607 1.93331 67.1847 1.93331H65.1687V5.56531H67.1847Z" fill="#111928"/>
<path d="M111.192 16.1406C112.376 16.1406 113.411 16.37 114.296 16.8286C115.192 17.2766 115.88 17.9273 116.36 18.7806C116.851 19.6233 117.096 20.61 117.096 21.7406C117.096 22.8713 116.851 23.8526 116.36 24.6846C115.88 25.5166 115.192 26.1566 114.296 26.6046C113.411 27.042 112.376 27.2606 111.192 27.2606H107.56V16.1406H111.192ZM111.192 25.7726C112.493 25.7726 113.491 25.4206 114.184 24.7166C114.877 24.0126 115.224 23.0206 115.224 21.7406C115.224 20.45 114.877 19.442 114.184 18.7166C113.491 17.9913 112.493 17.6286 111.192 17.6286H109.384V25.7726H111.192Z" fill="#111928"/>
<path d="M101.153 17.613V20.877H104.993V22.365H101.153V25.773H105.473V27.261H99.3291V16.125H105.473V17.613H101.153Z" fill="#111928"/>
<path d="M97.6418 16.1406V17.6286H94.6818V27.2606H92.8578V17.6286H89.8818V16.1406H97.6418Z" fill="#111928"/>
<path d="M84.6259 27.376C83.8793 27.376 83.2073 27.248 82.6099 26.992C82.0126 26.7253 81.5433 26.352 81.2019 25.872C80.8606 25.392 80.6899 24.832 80.6899 24.192H82.6419C82.6846 24.672 82.8713 25.0667 83.2019 25.376C83.5433 25.6853 84.0179 25.84 84.6259 25.84C85.2553 25.84 85.7459 25.6907 86.0979 25.392C86.4499 25.0827 86.6259 24.688 86.6259 24.208C86.6259 23.8347 86.5139 23.5307 86.2899 23.296C86.0766 23.0613 85.8046 22.88 85.4739 22.752C85.1539 22.624 84.7059 22.4853 84.1299 22.336C83.4046 22.144 82.8126 21.952 82.3539 21.76C81.9059 21.5573 81.5219 21.248 81.2019 20.832C80.8819 20.416 80.7219 19.8613 80.7219 19.168C80.7219 18.528 80.8819 17.968 81.2019 17.488C81.5219 17.008 81.9699 16.64 82.5459 16.384C83.1219 16.128 83.7886 16 84.5459 16C85.6233 16 86.5033 16.272 87.1859 16.816C87.8793 17.3493 88.2633 18.0853 88.3379 19.024H86.3219C86.2899 18.6187 86.0979 18.272 85.7459 17.984C85.3939 17.696 84.9299 17.552 84.3539 17.552C83.8313 17.552 83.4046 17.6853 83.0739 17.952C82.7433 18.2187 82.5779 18.6027 82.5779 19.104C82.5779 19.4453 82.6793 19.728 82.8819 19.952C83.0953 20.1653 83.3619 20.336 83.6819 20.464C84.0019 20.592 84.4393 20.7307 84.9939 20.88C85.7299 21.0827 86.3273 21.2853 86.7859 21.488C87.2553 21.6907 87.6499 22.0053 87.9699 22.432C88.3006 22.848 88.4659 23.408 88.4659 24.112C88.4659 24.6773 88.3113 25.2107 88.0019 25.712C87.7033 26.2133 87.2606 26.6187 86.6739 26.928C86.0979 27.2267 85.4153 27.376 84.6259 27.376Z" fill="#111928"/>
<path d="M74.5554 17.613V20.877H78.3954V22.365H74.5554V25.773H78.8754V27.261H72.7314V16.125H78.8754V17.613H74.5554Z" fill="#111928"/>
<path d="M71.0442 16.1406V17.6286H68.0842V27.2606H66.2602V17.6286H63.2842V16.1406H71.0442Z" fill="#111928"/>
<path d="M55.8973 21.5486C56.4946 21.6553 57.0013 21.97 57.4173 22.4926C57.8333 23.0153 58.0413 23.6073 58.0413 24.2686C58.0413 24.834 57.892 25.346 57.5933 25.8046C57.3053 26.2526 56.884 26.61 56.3293 26.8766C55.7746 27.1326 55.1293 27.2606 54.3933 27.2606H49.9453V16.1406H54.1853C54.9426 16.1406 55.5933 16.2686 56.1373 16.5246C56.6813 16.7806 57.092 17.1273 57.3693 17.5646C57.6466 17.9913 57.7853 18.4713 57.7853 19.0046C57.7853 19.6446 57.6146 20.178 57.2733 20.6046C56.932 21.0313 56.4733 21.346 55.8973 21.5486ZM51.7693 20.8126H54.0253C54.6226 20.8126 55.0866 20.6793 55.4173 20.4126C55.7586 20.1353 55.9293 19.7406 55.9293 19.2286C55.9293 18.7273 55.7586 18.338 55.4173 18.0606C55.0866 17.7726 54.6226 17.6286 54.0253 17.6286H51.7693V20.8126ZM54.2333 25.7726C54.852 25.7726 55.3373 25.6233 55.6893 25.3246C56.0413 25.026 56.2173 24.61 56.2173 24.0766C56.2173 23.5326 56.0306 23.1006 55.6573 22.7806C55.284 22.4606 54.788 22.3006 54.1693 22.3006H51.7693V25.7726H54.2333Z" fill="#111928"/>
<path d="M45.6535 24.989H40.9975L40.1975 27.261H38.2935L42.2775 16.125H44.3895L48.3735 27.261H46.4535L45.6535 24.989ZM45.1415 23.501L43.3335 18.333L41.5095 23.501H45.1415Z" fill="#111928"/>
<path d="M33.824 25.7886H37.584V27.2606H32V16.1406H33.824V25.7886Z" fill="#111928"/>
</svg>
