<svg width="118" height="28" viewBox="0 0 118 28" fill="none" xmlns="http://www.w3.org/2000/svg">
<path fill-rule="evenodd" clip-rule="evenodd" d="M11.3745 4.46026V10.1078C11.3743 11.0028 11.0318 11.8611 10.4223 12.4939L7.84719 15.168C9.75068 15.0287 11.6553 15.4222 13.3624 16.3076C15.278 17.3026 17.4722 17.5563 19.5515 17.0231L19.8603 16.9433L15.5768 12.4939C14.9672 11.8611 14.6247 11.0028 14.6245 10.1078V4.46026C13.5423 4.38872 12.4568 4.38872 11.3745 4.46026ZM16.2495 4.61551C16.4575 4.61747 16.6584 4.5365 16.8106 4.38927C16.9629 4.24205 17.0549 4.03979 17.0678 3.82418C17.0808 3.60856 17.0135 3.39602 16.88 3.23034C16.7465 3.06465 16.5569 2.95846 16.3503 2.93363C15.2388 2.78965 14.1197 2.71788 12.9995 2.71876C11.8794 2.7185 10.7604 2.79026 9.64878 2.93363C9.44212 2.95846 9.25252 3.06465 9.11902 3.23034C8.98552 3.39602 8.9183 3.60856 8.93122 3.82418C8.94414 4.03979 9.0362 4.24205 9.18844 4.38927C9.34068 4.5365 9.54151 4.61747 9.74953 4.61551V10.1078C9.74915 10.5552 9.57769 10.9841 9.27286 11.3003L2.45544 18.381C0.700444 20.2046 1.47719 23.4154 4.04903 23.871C6.95886 24.3885 9.94994 24.6563 12.9995 24.6563C16.0502 24.6563 19.0402 24.3874 21.95 23.8721C24.5208 23.4154 25.2997 20.2046 23.5425 18.381L16.7262 11.3014C16.5751 11.1447 16.4553 10.9586 16.3735 10.7538C16.2917 10.549 16.2496 10.3295 16.2495 10.1078V4.61551Z" fill="white"/>
<circle cx="5" cy="21" r="1" fill="#111928"/>
<circle cx="12" cy="19" r="1" fill="#111928"/>
<circle cx="17" cy="22" r="1" fill="#111928"/>
<circle cx="13.5" cy="22.5" r="0.5" fill="#111928"/>
<circle cx="8.5" cy="20.5" r="0.5" fill="#111928"/>
<circle cx="19.5" cy="20.5" r="0.5" fill="#111928"/>
<path d="M50.2003 4.60969V9.48969C50.2003 9.82035 50.275 10.0604 50.4243 10.2097C50.5843 10.3484 50.851 10.4177 51.2243 10.4177H52.3443V11.9377H50.9043C50.083 11.9377 49.4536 11.7457 49.0163 11.3617C48.579 10.9777 48.3603 10.3537 48.3603 9.48969V4.60969H47.3203V3.12169H48.3603V0.929688H50.2003V3.12169H52.3443V4.60969H50.2003Z" fill="white"/>
<path d="M43.7556 4.40056C44.0223 3.95256 44.3743 3.6059 44.8116 3.36056C45.2596 3.10456 45.7876 2.97656 46.3956 2.97656V4.86456H45.9316C45.217 4.86456 44.673 5.0459 44.2996 5.40856C43.937 5.77123 43.7556 6.40056 43.7556 7.29656V11.9366H41.9316V3.12056H43.7556V4.40056Z" fill="white"/>
<path d="M32.16 3.152C32.224 2.16 32.6027 1.38667 33.296 0.832001C34 0.277334 34.896 0 35.984 0C36.7307 0 37.376 0.133334 37.92 0.400001C38.464 0.666667 38.8747 1.02933 39.152 1.488C39.4293 1.94667 39.568 2.464 39.568 3.04C39.568 3.70133 39.392 4.26667 39.04 4.736C38.688 5.20533 38.2667 5.52 37.776 5.68V5.744C38.4053 5.936 38.896 6.288 39.248 6.8C39.6 7.30133 39.776 7.94667 39.776 8.736C39.776 9.36533 39.632 9.92533 39.344 10.416C39.056 10.9067 38.6293 11.296 38.064 11.584C37.4987 11.8613 36.8213 12 36.032 12C34.88 12 33.9307 11.7067 33.184 11.12C32.448 10.5227 32.0533 9.66933 32 8.56H33.76C33.8027 9.12533 34.0213 9.58933 34.416 9.952C34.8107 10.304 35.344 10.48 36.016 10.48C36.6667 10.48 37.168 10.304 37.52 9.952C37.872 9.58933 38.048 9.12533 38.048 8.56C38.048 7.81333 37.808 7.28533 37.328 6.976C36.8587 6.656 36.1333 6.496 35.152 6.496H34.736V4.992H35.168C36.032 4.98133 36.688 4.83733 37.136 4.56C37.5947 4.28267 37.824 3.84533 37.824 3.248C37.824 2.736 37.6587 2.33067 37.328 2.032C36.9973 1.72267 36.528 1.568 35.92 1.568C35.3227 1.568 34.8587 1.72267 34.528 2.032C34.1973 2.33067 34 2.704 33.936 3.152H32.16Z" fill="white"/>
<path d="M111.395 0.445312L107.715 7.53331V11.5653H105.891V7.53331L102.195 0.445312H104.227L106.803 5.90131L109.379 0.445312H111.395Z" fill="white"/>
<path d="M101.309 0.445312V1.93331H98.3488V11.5653H96.5248V1.93331H93.5488V0.445312H101.309Z" fill="white"/>
<path d="M89.7916 11.5653L87.2316 7.11731H85.8396V11.5653H84.0156V0.445312H87.8556C88.709 0.445312 89.429 0.594646 90.0156 0.893312C90.613 1.19198 91.0556 1.59198 91.3436 2.09331C91.6423 2.59465 91.7916 3.15465 91.7916 3.77331C91.7916 4.49865 91.5783 5.15998 91.1516 5.75731C90.7356 6.34398 90.0903 6.74398 89.2156 6.95731L91.9676 11.5653H89.7916ZM85.8396 5.66131H87.8556C88.5383 5.66131 89.0503 5.49065 89.3916 5.14931C89.7436 4.80798 89.9196 4.34931 89.9196 3.77331C89.9196 3.19731 89.749 2.74931 89.4076 2.42931C89.0663 2.09865 88.549 1.93331 87.8556 1.93331H85.8396V5.66131Z" fill="white"/>
<path d="M79.5631 9.29369H74.9071L74.1071 11.5657H72.2031L76.1871 0.429688H78.2991L82.2831 11.5657H80.3631L79.5631 9.29369ZM79.0511 7.80569L77.2431 2.63769L75.4191 7.80569H79.0511Z" fill="white"/>
<path d="M71.1198 3.75731C71.1198 4.32265 70.9864 4.85598 70.7198 5.35731C70.4531 5.85865 70.0264 6.26931 69.4398 6.58931C68.8531 6.89865 68.1011 7.05331 67.1838 7.05331H65.1678V11.5653H63.3438V0.445312H67.1838C68.0371 0.445312 68.7571 0.594646 69.3438 0.893312C69.9411 1.18131 70.3838 1.57598 70.6718 2.07731C70.9704 2.57865 71.1198 3.13865 71.1198 3.75731ZM67.1838 5.56531C67.8771 5.56531 68.3944 5.41065 68.7358 5.10131C69.0771 4.78131 69.2478 4.33331 69.2478 3.75731C69.2478 2.54131 68.5598 1.93331 67.1838 1.93331H65.1678V5.56531H67.1838Z" fill="white"/>
<path d="M111.193 16.1406C112.377 16.1406 113.411 16.37 114.297 16.8286C115.193 17.2766 115.881 17.9273 116.361 18.7806C116.851 19.6233 117.097 20.61 117.097 21.7406C117.097 22.8713 116.851 23.8526 116.361 24.6846C115.881 25.5166 115.193 26.1566 114.297 26.6046C113.411 27.042 112.377 27.2606 111.193 27.2606H107.561V16.1406H111.193ZM111.193 25.7726C112.494 25.7726 113.491 25.4206 114.185 24.7166C114.878 24.0126 115.225 23.0206 115.225 21.7406C115.225 20.45 114.878 19.442 114.185 18.7166C113.491 17.9913 112.494 17.6286 111.193 17.6286H109.385V25.7726H111.193Z" fill="white"/>
<path d="M101.154 17.613V20.877H104.994V22.365H101.154V25.773H105.474V27.261H99.3301V16.125H105.474V17.613H101.154Z" fill="white"/>
<path d="M97.6428 16.1406V17.6286H94.6828V27.2606H92.8588V17.6286H89.8828V16.1406H97.6428Z" fill="white"/>
<path d="M84.6255 27.376C83.8788 27.376 83.2068 27.248 82.6095 26.992C82.0121 26.7253 81.5428 26.352 81.2015 25.872C80.8601 25.392 80.6895 24.832 80.6895 24.192H82.6415C82.6841 24.672 82.8708 25.0667 83.2015 25.376C83.5428 25.6853 84.0175 25.84 84.6255 25.84C85.2548 25.84 85.7455 25.6907 86.0975 25.392C86.4495 25.0827 86.6255 24.688 86.6255 24.208C86.6255 23.8347 86.5135 23.5307 86.2895 23.296C86.0761 23.0613 85.8041 22.88 85.4735 22.752C85.1535 22.624 84.7055 22.4853 84.1295 22.336C83.4041 22.144 82.8121 21.952 82.3535 21.76C81.9055 21.5573 81.5215 21.248 81.2015 20.832C80.8815 20.416 80.7215 19.8613 80.7215 19.168C80.7215 18.528 80.8815 17.968 81.2015 17.488C81.5215 17.008 81.9695 16.64 82.5455 16.384C83.1215 16.128 83.7881 16 84.5455 16C85.6228 16 86.5028 16.272 87.1855 16.816C87.8788 17.3493 88.2628 18.0853 88.3375 19.024H86.3215C86.2895 18.6187 86.0975 18.272 85.7455 17.984C85.3935 17.696 84.9295 17.552 84.3535 17.552C83.8308 17.552 83.4041 17.6853 83.0735 17.952C82.7428 18.2187 82.5775 18.6027 82.5775 19.104C82.5775 19.4453 82.6788 19.728 82.8815 19.952C83.0948 20.1653 83.3614 20.336 83.6814 20.464C84.0014 20.592 84.4388 20.7307 84.9935 20.88C85.7295 21.0827 86.3268 21.2853 86.7855 21.488C87.2548 21.6907 87.6495 22.0053 87.9695 22.432C88.3001 22.848 88.4655 23.408 88.4655 24.112C88.4655 24.6773 88.3108 25.2107 88.0015 25.712C87.7028 26.2133 87.2601 26.6187 86.6735 26.928C86.0975 27.2267 85.4148 27.376 84.6255 27.376Z" fill="white"/>
<path d="M74.5545 17.613V20.877H78.3945V22.365H74.5545V25.773H78.8745V27.261H72.7305V16.125H78.8745V17.613H74.5545Z" fill="white"/>
<path d="M71.0432 16.1406V17.6286H68.0832V27.2606H66.2592V17.6286H63.2832V16.1406H71.0432Z" fill="white"/>
<path d="M55.8973 21.5486C56.4946 21.6553 57.0013 21.97 57.4173 22.4926C57.8333 23.0153 58.0413 23.6073 58.0413 24.2686C58.0413 24.834 57.892 25.346 57.5933 25.8046C57.3053 26.2526 56.884 26.61 56.3293 26.8766C55.7746 27.1326 55.1293 27.2606 54.3933 27.2606H49.9453V16.1406H54.1853C54.9426 16.1406 55.5933 16.2686 56.1373 16.5246C56.6813 16.7806 57.092 17.1273 57.3693 17.5646C57.6466 17.9913 57.7853 18.4713 57.7853 19.0046C57.7853 19.6446 57.6146 20.178 57.2733 20.6046C56.932 21.0313 56.4733 21.346 55.8973 21.5486ZM51.7693 20.8126H54.0253C54.6226 20.8126 55.0866 20.6793 55.4173 20.4126C55.7586 20.1353 55.9293 19.7406 55.9293 19.2286C55.9293 18.7273 55.7586 18.338 55.4173 18.0606C55.0866 17.7726 54.6226 17.6286 54.0253 17.6286H51.7693V20.8126ZM54.2333 25.7726C54.852 25.7726 55.3373 25.6233 55.6893 25.3246C56.0413 25.026 56.2173 24.61 56.2173 24.0766C56.2173 23.5326 56.0306 23.1006 55.6573 22.7806C55.284 22.4606 54.788 22.3006 54.1693 22.3006H51.7693V25.7726H54.2333Z" fill="white"/>
<path d="M45.653 24.989H40.997L40.197 27.261H38.293L42.277 16.125H44.389L48.373 27.261H46.453L45.653 24.989ZM45.141 23.501L43.333 18.333L41.509 23.501H45.141Z" fill="white"/>
<path d="M33.824 25.7886H37.584V27.2606H32V16.1406H33.824V25.7886Z" fill="white"/>
</svg>
