<svg width="12" height="13" viewBox="0 0 12 13" fill="none" xmlns="http://www.w3.org/2000/svg">
<path d="M0 3.17383C0 2.75898 0.335156 2.42383 0.75 2.42383H9.75C10.1648 2.42383 10.5 2.75898 10.5 3.17383C10.5 3.58867 10.1648 3.92383 9.75 3.92383H0.75C0.335156 3.92383 0 3.58867 0 3.17383ZM1.5 6.92383C1.5 6.50898 1.83516 6.17383 2.25 6.17383H11.25C11.6648 6.17383 12 6.50898 12 6.92383C12 7.33867 11.6648 7.67383 11.25 7.67383H2.25C1.83516 7.67383 1.5 7.33867 1.5 6.92383ZM10.5 10.6738C10.5 11.0887 10.1648 11.4238 9.75 11.4238H0.75C0.335156 11.4238 0 11.0887 0 10.6738C0 10.259 0.335156 9.92383 0.75 9.92383H9.75C10.1648 9.92383 10.5 10.259 10.5 10.6738Z" fill="#285192"/>
</svg>
