<svg width="14" height="15" viewBox="0 0 14 15" fill="none" xmlns="http://www.w3.org/2000/svg">
<path fill-rule="evenodd" clip-rule="evenodd" d="M9.1875 1.29883C8.6133 1.29877 8.04604 1.42429 7.52547 1.6666C7.0049 1.90891 6.54363 2.26214 6.17398 2.70153C5.80434 3.14093 5.53527 3.65585 5.38563 4.21021C5.23599 4.76457 5.20941 5.34495 5.30775 5.91066C5.34683 6.13816 5.28908 6.32891 5.17883 6.43916L1.38717 10.2302C1.05917 10.5585 0.874944 11.0035 0.875 11.4675V13.1113C0.875 13.3528 1.071 13.5488 1.3125 13.5488H3.5C3.61603 13.5488 3.72731 13.5027 3.80936 13.4207C3.89141 13.3386 3.9375 13.2274 3.9375 13.1113V12.2363H4.8125C4.92853 12.2363 5.03981 12.1902 5.12186 12.1082C5.20391 12.0261 5.25 11.9149 5.25 11.7988V10.9238H6.125C6.24099 10.9237 6.3522 10.8776 6.43417 10.7955L7.98467 9.24499C8.0955 9.13474 8.28625 9.07699 8.51317 9.11666C9.05036 9.20921 9.60092 9.1892 10.13 9.05792C10.6591 8.92663 11.1551 8.68692 11.5867 8.35397C12.0183 8.02101 12.3761 7.60206 12.6374 7.12365C12.8986 6.64524 13.0578 6.11779 13.1046 5.5747C13.1514 5.03161 13.085 4.4847 12.9095 3.96862C12.734 3.45253 12.4533 2.97851 12.085 2.57656C11.7168 2.17462 11.2692 1.85351 10.7704 1.63356C10.2716 1.41362 9.73261 1.29964 9.1875 1.29883ZM9.1875 3.04883C9.07147 3.04883 8.96019 3.09492 8.87814 3.17697C8.79609 3.25902 8.75 3.3703 8.75 3.48633C8.75 3.60236 8.79609 3.71364 8.87814 3.79569C8.96019 3.87773 9.07147 3.92383 9.1875 3.92383C9.5356 3.92383 9.86944 4.06211 10.1156 4.30825C10.3617 4.55439 10.5 4.88823 10.5 5.23633C10.5 5.35236 10.5461 5.46364 10.6281 5.54569C10.7102 5.62773 10.8215 5.67383 10.9375 5.67383C11.0535 5.67383 11.1648 5.62773 11.2469 5.54569C11.3289 5.46364 11.375 5.35236 11.375 5.23633C11.375 4.65617 11.1445 4.09977 10.7343 3.68953C10.3241 3.2793 9.76766 3.04883 9.1875 3.04883Z" fill="#224996"/>
</svg>
