<svg width="160" height="40" viewBox="0 0 160 40" fill="none" xmlns="http://www.w3.org/2000/svg">
<path d="M50.5437 12.8027V28.1962H46.5176V12.8027H50.5437Z" fill="#001E61"/>
<path d="M63.1581 11.9785V24.6445C63.1581 26.039 63.2026 27.455 63.247 28.1964H59.6784L59.5163 26.6787H59.4719C58.7477 27.9394 57.4144 28.448 56.1595 28.448C53.6 28.448 51.4849 26.1809 51.4849 22.653C51.4693 18.8736 53.7987 16.7082 56.3869 16.7082C57.6026 16.7082 58.6013 17.0695 59.0928 17.7922H59.1372V11.9785H63.1581ZM59.1372 21.8126C59.1372 21.6466 59.1372 21.4539 59.1085 21.2826C58.9647 20.4956 58.3608 19.8506 57.5189 19.8506C56.1699 19.8506 55.566 21.0845 55.566 22.5567C55.566 24.2804 56.3921 25.1771 57.5006 25.1771C58.3137 25.1771 58.9333 24.5883 59.0745 23.8361C59.1242 23.6086 59.1346 23.3463 59.1346 23.0813V21.8126H59.1372Z" fill="#001E61"/>
<path d="M67.7516 24.0201C67.8797 24.9115 69.1451 25.4066 70.562 25.4066C71.6 25.4066 72.5751 25.2915 73.5738 24.973L74.081 27.7246C72.7581 28.26 71.3255 28.4313 69.9712 28.4313C66.1072 28.4313 63.9268 26.2498 63.9268 22.6925C63.9268 20.0721 65.5712 16.7021 69.6156 16.7021C73.1634 16.7021 74.6797 19.3681 74.6797 22.4516C74.6797 23.1368 74.6013 23.7418 74.5359 24.0175H67.7516V24.0201ZM70.9751 21.2337C70.9751 20.5833 70.6797 19.3949 69.4196 19.3949C68.2326 19.3949 67.7699 20.5137 67.7019 21.2337H70.9751Z" fill="#001E61"/>
<path d="M75.4561 20.7846C75.4561 19.2883 75.4116 17.9982 75.3672 16.9596H78.8365L79.0142 18.3916H79.0927C79.4953 17.8081 80.5437 16.708 82.3842 16.708C84.9384 16.708 86.3371 18.496 86.3371 21.5661V28.1962H82.311V22.0747C82.311 20.7846 81.877 20.019 80.9175 20.019C80.1358 20.019 79.7803 20.5731 79.5946 21.0067C79.5058 21.2128 79.4822 21.5313 79.4822 21.8338V28.1936H75.4561V20.7846Z" fill="#001E61"/>
<path d="M92.2118 13.7656V16.9562H94.4941V19.9701H92.2118V23.1955C92.2118 24.5312 92.5124 25.0852 93.4902 25.0852C93.8981 25.0852 94.2222 25.0451 94.4445 24.9996V28.1232C93.9817 28.2892 93.085 28.431 92.0523 28.431C90.8706 28.431 89.8824 28.0028 89.302 27.4086C88.6327 26.7233 88.2876 25.6206 88.2876 23.9075V19.9728H86.9333V16.9589H88.2876V14.6677L92.2118 13.7656Z" fill="#001E61"/>
<path d="M99.1791 13.8624C99.1843 14.9545 98.3869 15.8083 97.1033 15.8083C95.8693 15.8083 95.0798 14.9518 95.085 13.8624C95.0798 12.7382 95.8824 11.9111 97.132 11.9111C98.3869 11.9111 99.1634 12.7382 99.1791 13.8624ZM95.119 28.1959V16.9593H99.1451V28.1959H95.119Z" fill="#001E61"/>
<path d="M104.933 13.7656V16.9562H107.216V19.9701H104.933V23.1955C104.933 24.5312 105.234 25.0852 106.212 25.0852C106.619 25.0852 106.944 25.0451 107.166 24.9996V28.1232C106.703 28.2892 105.806 28.431 104.774 28.431C103.592 28.431 102.604 28.0028 102.023 27.4086C101.354 26.7233 101.009 25.6206 101.009 23.9075V19.9728H99.6548V16.9589H101.009V14.6677L104.933 13.7656Z" fill="#001E61"/>
<path d="M112.131 16.959L113.446 22.0072C113.602 22.6308 113.791 23.4526 113.924 24.0066H114.002C114.136 23.4231 114.282 22.6014 114.4 22.0205L115.404 16.9617H119.694L117.346 24.1003C115.707 28.8166 114.625 30.5189 113.438 31.603C112.183 32.7325 110.805 33.1394 109.796 33.2358L108.965 29.7641C109.372 29.7133 109.846 29.558 110.337 29.3412C110.849 29.1298 111.375 28.6667 111.631 28.3134C111.754 28.1528 111.838 27.9654 111.838 27.8048C111.838 27.6683 111.809 27.497 111.681 27.2052L107.67 16.9617H112.131V16.959Z" fill="#001E61"/>
<path d="M120.627 13.0116C121.765 12.8296 123.472 12.6797 125.485 12.6797C127.788 12.6797 129.438 13.0062 130.573 13.8788C131.537 14.6336 132.055 15.7284 132.055 17.2354C132.055 19.1545 130.648 20.5196 129.477 20.9586V21.0389C130.476 21.4779 131.017 22.4602 131.401 23.7959C131.854 25.3617 132.35 27.5994 132.641 28.1936H128.523C128.293 27.7493 127.903 26.5421 127.469 24.647C127.061 22.8028 126.51 22.4201 125.265 22.4201H124.612V28.1936H120.627V13.0116ZM124.614 19.465H125.663C127.179 19.465 128.055 18.7048 128.055 17.5539C128.055 16.4029 127.312 15.7445 125.974 15.7338C125.216 15.7338 124.813 15.7739 124.614 15.8248V19.465Z" fill="#9B9E97"/>
<path d="M146.562 22.685C146.512 20.9371 146.473 18.8814 146.478 16.4724H146.418C145.956 18.5228 145.32 20.8167 144.834 22.5083L143.344 27.875H140.193L138.933 22.5244C138.549 20.8675 138.086 18.5897 137.733 16.4724H137.689C137.605 18.6432 137.527 20.9371 137.461 22.685L137.234 28.1962H133.524L134.45 12.8027H139.869L140.863 16.9489C141.276 18.6619 141.723 20.6989 142.034 22.5913H142.112C142.531 20.7123 143.033 18.5361 143.474 16.9141L144.601 12.8027H149.901L150.654 28.1962H146.745L146.562 22.685Z" fill="#9B9E97"/>
<path d="M20.3346 16.5636L20.3425 13.7103L20.3503 10.6964L20.3608 6.08984C18.7137 6.37357 17.0876 6.9544 15.5529 7.84573C15.532 7.85912 15.5085 7.86982 15.4876 7.88321C15.4562 7.90194 15.4248 7.92068 15.3934 7.93942L15.3804 13.6193L15.3725 16.6332L12.9464 18.0599L8.08887 20.9078C8.08887 20.9533 8.08887 21.0015 8.08887 21.047C8.09671 22.7842 8.39998 24.5347 9.01697 26.2237L12.9281 23.9244L15.3542 22.4978L17.898 21.0015L20.3242 19.5749L20.3346 16.5636Z" fill="#001E61"/>
<path d="M37.5451 21.1782C37.5477 21.0926 37.5477 21.0069 37.5477 20.9186L32.8079 18.1001L30.2824 16.5984L30.2902 13.721L30.3033 7.96889C30.2719 7.95016 30.2379 7.92874 30.2065 7.91001C28.6981 7.016 27.051 6.40573 25.3438 6.10059L25.3333 10.7767L25.3255 13.6541L25.3177 16.6439L25.3098 19.5214L27.8353 21.023L30.2667 22.4684L32.7922 23.97L36.6092 26.2398C37.2 24.6257 37.519 22.9127 37.5451 21.1782Z" fill="#0071CE"/>
<path d="M30.2378 33.9806C31.7489 33.0786 33.0456 31.941 34.1097 30.6428L30.2535 28.3489L27.8143 26.8982L25.2966 25.4019L22.8574 23.9512L20.3136 25.4474L17.8875 26.8741L15.3437 28.3703L11.511 30.6214C12.6064 31.9704 13.9031 33.0839 15.328 33.9431C15.4116 33.994 15.4927 34.0422 15.5763 34.0904L20.2979 31.3173L22.8417 29.8211L25.2809 31.2718L30.0365 34.1011C30.0731 34.0797 30.1097 34.0582 30.1463 34.0368C30.1777 34.0154 30.209 33.9993 30.2378 33.9806Z" fill="#9B9E97"/>
<path d="M152.12 13.6247C152.201 13.6113 152.319 13.6006 152.452 13.6006C152.617 13.6006 152.732 13.6274 152.81 13.6889C152.876 13.7424 152.912 13.8227 152.912 13.9271C152.912 14.0717 152.813 14.1707 152.716 14.2055V14.2109C152.792 14.243 152.837 14.3179 152.863 14.4223C152.897 14.5508 152.931 14.698 152.952 14.7408H152.695C152.68 14.7087 152.651 14.6177 152.62 14.4759C152.588 14.334 152.541 14.2965 152.439 14.2965H152.366V14.7408H152.118V13.6247H152.12ZM152.369 14.1118H152.465C152.588 14.1118 152.664 14.0476 152.664 13.9486C152.664 13.8442 152.593 13.7933 152.481 13.7906C152.421 13.7906 152.387 13.7933 152.369 13.7987V14.1118Z" fill="#9B9E97"/>
<path d="M152.497 12.8564C151.759 12.8564 151.161 13.4694 151.161 14.2242C151.161 14.979 151.759 15.592 152.497 15.592C153.234 15.592 153.833 14.979 153.833 14.2242C153.833 13.4694 153.236 12.8564 152.497 12.8564ZM152.497 15.2681C151.932 15.2681 151.477 14.7997 151.477 14.2242C151.477 13.6461 151.934 13.1803 152.497 13.1803C153.059 13.1803 153.516 13.6487 153.516 14.2242C153.519 14.7997 153.061 15.2681 152.497 15.2681Z" fill="#9B9E97"/>
</svg>
