<svg width="13" height="13" viewBox="0 0 13 13" fill="none" xmlns="http://www.w3.org/2000/svg">
<g clip-path="url(#clip0_2012_4744)">
<path d="M0.0996094 2.63839C0.0996094 2.16429 0.482645 1.78125 0.956752 1.78125H11.2425C11.7166 1.78125 12.0996 2.16429 12.0996 2.63839C12.0996 3.1125 11.7166 3.49554 11.2425 3.49554H0.956752C0.482645 3.49554 0.0996094 3.1125 0.0996094 2.63839ZM0.0996094 6.92411C0.0996094 6.45 0.482645 6.06696 0.956752 6.06696H11.2425C11.7166 6.06696 12.0996 6.45 12.0996 6.92411C12.0996 7.39821 11.7166 7.78125 11.2425 7.78125H0.956752C0.482645 7.78125 0.0996094 7.39821 0.0996094 6.92411ZM12.0996 11.2098C12.0996 11.6839 11.7166 12.067 11.2425 12.067H0.956752C0.482645 12.067 0.0996094 11.6839 0.0996094 11.2098C0.0996094 10.7357 0.482645 10.3527 0.956752 10.3527H11.2425C11.7166 10.3527 12.0996 10.7357 12.0996 11.2098Z" fill="#4076D0"/>
</g>
<defs>
<clipPath id="clip0_2012_4744">
<rect width="12" height="12" fill="white" transform="translate(0.0996094 0.923828)"/>
</clipPath>
</defs>
</svg>
