<svg width="132" height="26" viewBox="0 0 132 26" fill="none" xmlns="http://www.w3.org/2000/svg">
<path d="M38.4895 6.52148V20.3756H34.866V6.52148H38.4895Z" fill="#0437A7"/>
<path d="M49.8424 5.78027V17.1796C49.8424 18.4347 49.8824 19.7091 49.9224 20.3764H46.7106L46.5647 19.0105H46.5247C45.873 20.1451 44.673 20.6028 43.5436 20.6028C41.24 20.6028 39.3365 18.5624 39.3365 15.3873C39.3224 11.9858 41.4188 10.037 43.7483 10.037C44.8424 10.037 45.7412 10.3622 46.1836 11.0126H46.2236V5.78027H49.8424ZM46.2236 14.6309C46.2236 14.4816 46.2236 14.3081 46.1977 14.1539C46.0683 13.4457 45.5247 12.8651 44.7671 12.8651C43.553 12.8651 43.0094 13.9757 43.0094 15.3006C43.0094 16.852 43.753 17.659 44.7506 17.659C45.4824 17.659 46.04 17.129 46.1671 16.4521C46.2118 16.2474 46.2212 16.0113 46.2212 15.7728V14.6309H46.2236Z" fill="#0437A7"/>
<path d="M53.9765 16.6184C54.0918 17.4206 55.2306 17.8663 56.5059 17.8663C57.4401 17.8663 58.3177 17.7627 59.2165 17.476L59.673 19.9525C58.4824 20.4343 57.193 20.5884 55.9742 20.5884C52.4965 20.5884 50.5342 18.6251 50.5342 15.4236C50.5342 13.0651 52.0142 10.0322 55.6542 10.0322C58.8471 10.0322 60.2118 12.4316 60.2118 15.2067C60.2118 15.8234 60.1412 16.3679 60.0824 16.616H53.9765V16.6184ZM56.8777 14.1107C56.8777 13.5253 56.6118 12.4557 55.4777 12.4557C54.4095 12.4557 53.993 13.4626 53.9318 14.1107H56.8777Z" fill="#0437A7"/>
<path d="M60.9107 13.706C60.9107 12.3594 60.8707 11.1982 60.8307 10.2636H63.953L64.113 11.5524H64.1836C64.546 11.0272 65.4895 10.0371 67.146 10.0371C69.4448 10.0371 70.7036 11.6463 70.7036 14.4094V20.3765H67.0801V14.8671C67.0801 13.706 66.6895 13.017 65.826 13.017C65.1225 13.017 64.8025 13.5157 64.6354 13.906C64.5554 14.0914 64.5342 14.3781 64.5342 14.6503V20.3741H60.9107V13.706Z" fill="#0437A7"/>
<path d="M75.9907 7.38867V10.2602H78.0448V12.9727H75.9907V15.8756C75.9907 17.0776 76.2613 17.5763 77.1413 17.5763C77.5084 17.5763 77.8001 17.5402 78.0001 17.4992V20.3105C77.5836 20.4599 76.7766 20.5875 75.8472 20.5875C74.7836 20.5875 73.8942 20.2021 73.3719 19.6673C72.7695 19.0506 72.4589 18.0581 72.4589 16.5163V12.9751H71.2401V10.2626H72.4589V8.2005L75.9907 7.38867Z" fill="#0437A7"/>
<path d="M82.2613 7.47588C82.266 8.45875 81.5483 9.22722 80.393 9.22722C79.2824 9.22722 78.5719 8.45634 78.5766 7.47588C78.5719 6.46411 79.2942 5.71973 80.4189 5.71973C81.5483 5.71973 82.2471 6.46411 82.2613 7.47588ZM78.6071 20.376V10.2631H82.2307V20.376H78.6071Z" fill="#0437A7"/>
<path d="M87.44 7.38867V10.2602H89.4942V12.9727H87.44V15.8756C87.44 17.0776 87.7106 17.5763 88.5906 17.5763C88.9577 17.5763 89.2495 17.5402 89.4495 17.4992V20.3105C89.033 20.4599 88.2259 20.5875 87.2965 20.5875C86.233 20.5875 85.3436 20.2021 84.8212 19.6673C84.2189 19.0506 83.9083 18.0581 83.9083 16.5163V12.9751H82.6895V10.2626H83.9083V8.2005L87.44 7.38867Z" fill="#0437A7"/>
<path d="M93.9177 10.2627L95.1012 14.8061C95.2424 15.3674 95.4118 16.1069 95.5318 16.6056H95.6024C95.7224 16.0804 95.8542 15.3409 95.96 14.8181L96.8636 10.2651H100.725L98.6118 16.6899C97.1365 20.9345 96.1624 22.4667 95.0942 23.4423C93.9647 24.4589 92.7247 24.8251 91.8165 24.9118L91.0683 21.7873C91.4353 21.7415 91.8612 21.6018 92.3036 21.4067C92.7647 21.2164 93.2377 20.7996 93.4683 20.4816C93.5789 20.3371 93.6542 20.1685 93.6542 20.0239C93.6542 19.9011 93.6283 19.7469 93.513 19.4843L89.9036 10.2651H93.9177V10.2627Z" fill="#0437A7"/>
<path d="M101.565 6.70985C102.588 6.54604 104.125 6.41113 105.937 6.41113C108.01 6.41113 109.494 6.70503 110.515 7.49036C111.384 8.1697 111.85 9.15498 111.85 10.5112C111.85 12.2385 110.584 13.4671 109.53 13.8622V13.9344C110.428 14.3295 110.915 15.2136 111.261 16.4157C111.668 17.8249 112.115 19.8389 112.377 20.3737H108.671C108.464 19.9738 108.113 18.8873 107.722 17.1817C107.355 15.5219 106.859 15.1775 105.739 15.1775H105.151V20.3737H101.565V6.70985ZM105.153 12.5179H106.097C107.461 12.5179 108.25 11.8338 108.25 10.7979C108.25 9.76204 107.581 9.16943 106.377 9.15979C105.694 9.15979 105.332 9.19593 105.153 9.2417V12.5179Z" fill="#9B9E97"/>
<path d="M124.906 15.4155C124.861 13.8424 124.826 11.9923 124.831 9.82421H124.777C124.36 11.6695 123.788 13.734 123.351 15.2565L122.01 20.0865H119.174L118.04 15.2709C117.694 13.7798 117.278 11.7297 116.96 9.82421H116.92C116.845 11.7779 116.774 13.8424 116.715 15.4155L116.511 20.3756H113.172L114.005 6.52148H118.882L119.777 10.253C120.148 11.7948 120.551 13.628 120.831 15.3312H120.901C121.278 13.6401 121.73 11.6815 122.127 10.2217L123.141 6.52148H127.911L128.588 20.3756H125.071L124.906 15.4155Z" fill="#9B9E97"/>
<path d="M11.3012 9.90686L11.3083 7.33887L11.3153 4.62635L11.3247 0.480469C9.84238 0.735822 8.37885 1.25857 6.99768 2.06077C6.97885 2.07281 6.95768 2.08245 6.93885 2.09449C6.91062 2.11136 6.88238 2.12822 6.85415 2.14508L6.84238 7.25697L6.83532 9.96949L4.65179 11.2535L0.280029 13.8167C0.280029 13.8576 0.280029 13.901 0.280029 13.9419C0.287088 15.5054 0.56003 17.0808 1.11532 18.6009L4.63532 16.5316L6.81885 15.2476L9.10826 13.901L11.2918 12.617L11.3012 9.90686Z" fill="#0437A7"/>
<path d="M26.7906 14.0601C26.7929 13.983 26.7929 13.9059 26.7929 13.8264L22.527 11.2898L20.2541 9.93831L20.2612 7.34864L20.2729 2.17171C20.2447 2.15485 20.2141 2.13558 20.1859 2.11871C18.8282 1.31411 17.3459 0.76486 15.8094 0.490234L15.8 4.69875L15.7929 7.28841L15.7859 9.97926L15.7788 12.5689L18.0518 13.9204L20.24 15.2212L22.5129 16.5727L25.9482 18.6155C26.48 17.1629 26.767 15.6211 26.7906 14.0601Z" fill="#0071CE"/>
<path d="M20.2141 25.5822C21.5741 24.7703 22.7412 23.7465 23.6988 22.5781L20.2282 20.5136L18.0329 19.208L15.767 17.8613L13.5717 16.5557L11.2823 17.9023L9.09881 19.1863L6.8094 20.5329L3.35999 22.5589C4.34587 23.773 5.51293 24.7751 6.79528 25.5484C6.87057 25.5942 6.94352 25.6376 7.01881 25.6809L11.2682 23.1852L13.5576 21.8386L15.7529 23.1443L20.0329 25.6906C20.0659 25.6713 20.0988 25.652 20.1317 25.6328C20.16 25.6135 20.1882 25.599 20.2141 25.5822Z" fill="#9B9E97"/>
<path d="M129.908 7.26192C129.981 7.24987 130.087 7.24023 130.207 7.24023C130.355 7.24023 130.459 7.26432 130.53 7.31973C130.588 7.36791 130.621 7.44018 130.621 7.53413C130.621 7.66422 130.532 7.75335 130.445 7.78467V7.78948C130.513 7.81839 130.553 7.88584 130.577 7.9798C130.607 8.09543 130.638 8.22792 130.657 8.26647H130.426C130.412 8.23756 130.386 8.15565 130.358 8.02798C130.33 7.9003 130.287 7.86657 130.195 7.86657H130.13V8.26647H129.906V7.26192H129.908ZM130.132 7.70035H130.219C130.33 7.70035 130.398 7.64254 130.398 7.5534C130.398 7.45945 130.334 7.41368 130.233 7.41127C130.179 7.41127 130.148 7.41368 130.132 7.4185V7.70035Z" fill="#9B9E97"/>
<path d="M130.247 6.57031C129.583 6.57031 129.045 7.12197 129.045 7.80131C129.045 8.48064 129.583 9.0323 130.247 9.0323C130.911 9.0323 131.449 8.48064 131.449 7.80131C131.449 7.12197 130.913 6.57031 130.247 6.57031ZM130.247 8.74082C129.739 8.74082 129.329 8.31924 129.329 7.80131C129.329 7.28097 129.741 6.8618 130.247 6.8618C130.753 6.8618 131.165 7.28337 131.165 7.80131C131.167 8.31924 130.755 8.74082 130.247 8.74082Z" fill="#9B9E97"/>
</svg>
