<svg width="14" height="15" viewBox="0 0 14 15" fill="none" xmlns="http://www.w3.org/2000/svg">
<path d="M6.70954 2.17994C5.40579 2.26307 4.2497 2.77385 3.33204 3.67182C2.4986 4.48666 1.96813 5.52573 1.80517 6.66541C1.7636 6.95088 1.75485 7.08541 1.75595 7.42885C1.75595 7.91338 1.79751 8.2601 1.90798 8.70307C2.00532 9.08698 2.10595 9.36151 2.29079 9.73666C2.49313 10.1479 2.68892 10.4498 2.98642 10.8085C3.11548 10.9649 3.49063 11.3346 3.66017 11.4735C4.43782 12.109 5.34345 12.5017 6.32892 12.6296C6.67017 12.6745 7.0836 12.6843 7.20173 12.6515C7.40079 12.5957 7.56048 12.4951 7.67642 12.3507C7.8186 12.1746 7.88532 11.9679 7.87001 11.7437C7.85688 11.5282 7.79564 11.3882 7.63048 11.1914C7.5572 11.1039 7.48064 10.9551 7.4522 10.8414C7.42485 10.7364 7.42485 10.5296 7.4522 10.4257C7.5211 10.1599 7.69829 9.94776 7.94329 9.8351C8.10626 9.76073 8.09751 9.76182 8.91345 9.75307C9.31923 9.7487 9.66376 9.74213 9.67907 9.73885C9.69439 9.73448 9.75564 9.72463 9.81579 9.71479C10.402 9.62291 10.9642 9.33088 11.3984 8.89229C11.7528 8.53463 11.988 8.13979 12.1334 7.65307C12.2516 7.25932 12.2789 6.76713 12.21 6.26948C12.0066 4.80932 11.0441 3.52198 9.60798 2.79135C8.97142 2.4676 8.31189 2.2762 7.56814 2.20073C7.40735 2.18432 6.85282 2.1712 6.70954 2.17994ZM5.79079 3.37651C6.08829 3.47057 6.30923 3.70026 6.38907 3.99776C6.4197 4.11698 6.4197 4.31166 6.38798 4.43198C6.30704 4.73932 6.06532 4.98104 5.75798 5.06198C5.63329 5.09479 5.45173 5.09479 5.32704 5.06198C5.02407 4.98213 4.79767 4.76557 4.70251 4.46479C4.67188 4.36635 4.66095 4.17276 4.68063 4.06229C4.7397 3.71995 5.00985 3.43885 5.3522 3.3601C5.45501 3.33604 5.69345 3.34479 5.79079 3.37651ZM8.63782 3.3601C8.98235 3.43229 9.25798 3.71557 9.31814 4.06229C9.33782 4.17276 9.32689 4.36635 9.29626 4.46479C9.2011 4.76557 8.9747 4.98213 8.67173 5.06198C8.54704 5.09479 8.36548 5.09479 8.24079 5.06198C7.93345 4.98104 7.69173 4.73932 7.61079 4.43198C7.57798 4.30948 7.57798 4.11588 7.61079 3.99557C7.6972 3.67073 7.96407 3.41916 8.2911 3.35573C8.36876 3.34041 8.55579 3.3426 8.63782 3.3601ZM3.92595 5.68541C4.11954 5.71604 4.26829 5.79479 4.41267 5.94026C4.55813 6.08682 4.63142 6.23776 4.65876 6.44776C4.69376 6.71573 4.59204 6.99026 4.3886 7.18385C4.28142 7.28666 4.16876 7.34901 4.01673 7.39276C3.90517 7.42448 3.68423 7.42666 3.57595 7.39713C3.18001 7.28885 2.9197 6.95088 2.9197 6.54948C2.9197 6.36901 2.96563 6.20932 3.0586 6.06932C3.25001 5.78166 3.59017 5.63073 3.92595 5.68541ZM10.4425 5.7062C10.8231 5.81338 11.0791 6.15245 11.0791 6.54838C11.0791 6.72885 11.0364 6.87323 10.9413 7.02198C10.6678 7.44526 10.0991 7.55026 9.68782 7.25166C9.55439 7.15541 9.42751 6.97823 9.37501 6.81526C9.27876 6.51885 9.35314 6.18416 9.56642 5.95666C9.70095 5.81448 9.86282 5.7237 10.0455 5.6887C10.1505 5.66791 10.3397 5.67666 10.4425 5.7062Z" fill="#224996"/>
</svg>
